<svg xmlns="http://www.w3.org/2000/svg" width="501.3" height="157.36"><defs><style>.a{fill:#4c963f}</style></defs><path class="a" d="M309.84 93.05V79.38h.93l.12 7.82h.8V73.46h1.17l-.06 10.23h1.05l.18-14.05h.99v6.9h.8l.06-9.92 1.17-.06v4.13l1.11-.02-.02-7.83.74-.01.02 7.8 3.6-.08.06-7.74.76-.01.05 7.75 1.1-.01.03-3.92.9-.06-.03 9.61.95-.03.09-6.44.93-.06.03 13.65h.92l.03-9.77h1.08l.12 13.59.96.03-.06-7.7h1.01l.07 13.55-21.66.06zM.25 157.2L0 128.66l10.1-9h6.29v-1.73l4.8.13.12 1.6 3.7.12.37-2.09h3.7v2.09h2.71v-4.18h3.08v4.67h2.59v-2.2h-1.24v-1.23h1.23c0-1.61.38-2.74 2-2.71.17-.58 0-.59.06-1.64h-1.38c-.54-.43-.48-.8 0-1.11h1.7v-1.79a.78.78 0 011.41 0v1.73h1.49c.51.37.67.74 0 1.11h-1.31v1.53c1.15-.16 2.17.8 2.34 2.94l1.24.1v1.35h-1.35v1.82c.48.08 2.81 0 3.68 0 .15-.8 0-2.24 1.13-2.07l16.35.19.1-.8h1l.06-3.6h4.83v2l9.61-.25-.08-3.82h2.66l.11 1.9 8.89-6 3 3h11l-.2 46.58z"/><path class="a" d="M118.61 41.22v1h-.83v1.16h.74l-.07 4.72-.82-2.31v5.7l-1.13-.06.06 1.49h1v2.9h-.82v1l.94.06-.06 2h-1v.88l-1-.06.06 2.16h-1v1.31h1l.15 4.36h-1v2h-1.28v-3h-1v6.8l-.37.61-.36-5.31-.64 5.19-.49-5.19-.56 5.37h-1.71l.25 2.19 1.7.28v1.71h-2.71v2h2c-.35 2.53.22 7.61-.21 10.12-.11.63-1.19-.89-1.25.4s.29 4.89.24 6.4-1-.43-1 .85.37 3.7.27 4.33c-1-.31-1 .52-1.92 1.1-.21 2.55.22 4.63.31 7.23l-.25 46.8 65-.24c.17-19-.56-37.1-.61-56.56l-4.45-11.32-11.1-.09v-2h-1v-2h-.85l-.09-1.83V79.4l-1.92-.06v-2.93h-.88l-.15-8.81-1.13-7.5v-1.04h.7v-.49h-.73v-.76h-.49v.76h-.61V59h.67l-.06 1.1-.58 7.5v5.88h-1.67v-5.82l-.46-7.56v-1.16h.7v-.52h-.64v-.7h-.5v.67h-.61a2.13 2.13 0 000 .52h.58c0 .35 0 .72-.09 1.16l-.46 3.81-.49 3.72-.06 8.93H143v.85L142.79 88l-14.37-.07-.06-9.48-1.06-.06v-2h1.28l-.06-1.8-2 .06-.06-2h-1l-.06-5.09-.86.06c-.31-2.69-.24-5-.49-7.66l-.61 7.66h-1.24l-.06-4.55.89.1V61.9h-.86V60h-.7l-.06-.91-.85-.06v-2.1h1v-.89h-.94v-2.93l1-.06v-1.28h-1.1l-.09-5.91-.83 2.34v-4.78c.31 0 .72-.05.89 0v-1.07h-.86v-1.07h-1.12zm0 12.35h1.1v2h-1.1zm-1.4 10.25l3.26.06v2.92h-3.23v-3zM298.23 0l-1.31 17.9-.37.91-.36 8.78-.49.31-.46 6.71-.61.42-.24 4.33h-1v-3l-1.49-11.29-1.28 11.29-.06 10.79h.76v1h1v.92h.88l.06 9.79h-3.9l-.06-5.92c-.46-4.21-.47-8.32-.76-12.53-.33 4.27-.86 8.26-1.07 12.44v11h-1c-1.48.57-1 1.16-1 1.74h1.8l.06.94 2 1v48.93h-1.71v-1.22h-1.52l.09-6.4s0 .14.58.08c2.06-.75 0-1.34-.06-1.34h-1.07l-1-4-.06-7c-.16-3.16-.34-5.84-.67-.06l-.06 7.08-1.28 3.84-1.13-.06c-1.17.46-1.23.94.06 1.4h.58l.06 7.5-2.44.06-6.7-6.91-.28-4.18c-.24-1-.45-2.63-.85 0l-.19 4.24-12.48 12.87-1-.06-.06 2h1v1.16h.86v12.41h-2.84V130h-.85v-6.62h.94l-1.22-1v-.8h-1.67v-1.06c3.45-.42.39-5.28-2.21-4.71v-6.62l1.22.06v-1.28h-1l.06-2.74-1.15-.83v-1.28c1.11-.59 1.18-1.24 0-1.95l-1-8.66-1.22 8.66c-.76.51-1.69 1 0 1.86v1.28l-1.43.82v2.81h-.8v1.19l1 .12.09 6.32c-3.45-.57-5.34 5.31-2.1 4.7v1.07h-1.32l.1.79-3.66 2.38v6.56h-2v-6l-2.19-.06v4.94h-3.66v-9.82L231 120l-.12-7.65c1.32-1.07.56-1.78 0-2.53-1.4 0-2.28-.08-2.38-1.59-.56-14-9.82-19.64-18.29-22.1l.09-7.78h1.4l.09-1.74h-1.58c0-4.21-2.38-4.71-4.33-5.21l-.46-5.34-.76-.06-.61 5.4c-2.23.6-4.67 1-4.64 5.21l-1.64.19v1.4l1.73.06v7.87c-14.73 2.92-18.22 15-18.11 21.49l-4.27 3.42.1 12.62h-2.81V125l1.83.09.09 1.13-1-.09v3.93l-4.45-.18.13 27.38h230.66v-57l2.93-2.44.09-19.39L403 61.07v-1.16h.88v-.94H403V57h-.85v1.95h-1v1h1v1.19l-1.53 17.29h-.88l-1.07-11.74s.74-.36.73-.91-.48-.95-1.13-1a1.07 1.07 0 00-1.12.92c-.11.54.73.94.73.94l-1.22 9.18h-.89l-4.81-26.71v-6.7h1v-1h-.82v-.89c.81-.64 1.2-1.32 0-2h-1c-.91.61-1.19 1.28 0 2v.86h-1v1.09h.86v6.71h-6.86l-.06-6.8h.88v-1.13h-.91l-.06-.94c1.25-.87.22-1.71-.06-1.77s-1 0-1 0c-1.29.73-.55 1.26 0 1.77v.88h-1.12v1.1h1.12l.16 6.77-5.07 26.34h-.82l-.73-8.81s.66-.6.64-1.06a1.14 1.14 0 00-1-1.07 1.08 1.08 0 00-1.06 1.1c0 .5.79 1 .79 1l-.61 11.5h-1l-1.48-17.26v-.92h1v-1.03h-.94v-1.74h-.88v1.77h-1v1h1v.95c-.54 5.46-.63 11.28-1.31 17.44l-.12 19.45 2.81 2.5v8.26l-16.62.19-.37 1-.39 1.13v1.71h-1v1.16h-2l-.15-45.89c.42-.2 1.19-.74 2.13-1.22v-.94h1.86c.09-.91.1-1.56-1-1.8h-1l-.09-10.71-.86-12.65-1 12.53.06 5.09h-3.72l-.09-9.75h.82v-1h.92v-1h.94l-.09-9.66-1.34-10.7-1.53 10.67v2.83h-.85l-.49-4-.48-.73s-.77-5.87-.86-6.1-.25-.21-.3-.7c-.28-2.44-.4-8.84-.4-8.84l-.4-1-1-17.9-1 17.9-.43.94-.54 8.69-.37.55-.67 6.27-.61.85-.18 4h-1.07l-.06-3-1.5-10.77-1.34 10.77v9.72l1.07.06v1l1 .06.06.95h1L338.3 58l-3.93-.06c0-2.07 0-2.78-.12-4.94l-1-12.56-.95 12.5.07 10.64-.83.09c-.88.47-1.36.36-1.28 2h2v1a9.35 9.35 0 011.92 1.07l.13 25.26-2.9.06-.09-4.67h-.95l-1.83-2.13v-3.84l-.91-.09-2-2.08v-3.69l-2-2.1-.09-3.78h-1.77l-.09-9.52c.64.27 2.15 0 1.95-1.21h.95c1.17-.4.85-.78.06-1.18h-1c.16-.93-.62-1.41-1.92-1.19V56c-.4-1.07-1.12-1.36-1.89 0v1.5c-1-.37-2.4.48-2 1.25h-.88c-1 .63-.41.88 0 1.18h.82c.36 1.25.87 1.35 1.92 1.21l.21 9.52h-2.07v3.81l-1.89 2.07-.06 3.81-2 2-.95.07.06 3.93-1.99 1.83-.18 5.12h-3.72l-.1-25.64 2-1v-1h1.83c0-.8.05-1-.91-1.83h-.95V53.07c-.39-3.49-.12-10.3-1-12.69-.11 2.9-.6 10.31-1 12.69l.06 5.94-4-.06v-9.74h1v-1h1.07v-.89h.79v-11L304.64 25 303 36.44v2.83h-1l-.34-4.11-.66-.46-.64-6.77-.36-.33-.24-8.75-.43-1zm21.19 58.08h.52v.71h-1.55c-.05-.67.5-.75 1-.74zm1.95 0c.62 0 1.65-.18 1.59.71h-1.62v-.74zm-3 1.77h1.52v.73c-.6.02-1.56.15-1.5-.73zm3 0H323c.06.88-.94.75-1.56.73z"/><path class="a" d="M401.62 157.24v-13.31l2-.09-.23-22.45-1.64.08c.28-1.83 1.12-1.51 1.81-2.09l-.08-1.91 6.27-12.41h7.56l3.29 8.58 1.23-.17 6.94-15.73h7.32l3.47 8.87h1.94v-6.4l-.8-.1c-.28-1.15-1.22-1.63-2.17-2.12h2.2l10.49-13.17.11-2.51c-1.11.34-1.46-.55-1.79-1.47l-.06-11.24 1.14-11.6a84.66 84.66 0 001.29 9.32 3 3 0 001.53-.07L457 30.51l3.42 36.8 1.68.09L464 58l.87 11.39c.21 3.89.09 7.78.05 11.66a1.93 1.93 0 01-1.71 1.7l-.09 2.45 9.29 12.65 2.68.06a2.9 2.9 0 00-2.1 2.2l-1 .17.13 42.62h11.14l.16-14.75h-.8c.21-.7-.34-1.41 1-1.32l.19-1.35a3.88 3.88 0 013.73-2.31l-.07-2.74c-1.1.24-1.06-1.34-1-2.88l-.68-1.07A5.79 5.79 0 01485 114c-.15-1.34-.41-2.69.58-3.12l1.2-.25v-1.71c-2.25.22-1.46-3.6-1.14-4.1h.79v-2.85c.14-1.69 1.07-2.59 2.81-3.14l.19-1.62c-2.81-1-1.56-5.19 0-5.16 1.33 0 2.41.51 2.35 1.9-.06 1.56 0 2.48-.53 3.13 3 .83 2.29 2.29 2.79 3.54v6.08c1.3.47 2.17.15 2 2.53h1v-3.29c.46-1.69 1.14-1 1.83-.19.79.34 1.06 1.19 1.17 2.83 1.41 3.88 1.63 7.55.08 9.84a2.85 2.85 0 01-2.84 1v4.69c1.63 0 2.32.67 2.58 1.6v31.47z"/></svg>