<svg xmlns="http://www.w3.org/2000/svg" width="497.19" height="159.36"><path d="M117.51 41.28h.1v-.06zm378.61 77.14c1.55-2.29 1.33-6-.08-9.84-.11-1.64-.38-2.49-1.17-2.83-.69-.81-1.37-1.5-1.83.19v3.29h-1c.17-2.38-.7-2.06-2-2.53v-6.08c-.5-1.25.21-2.71-2.79-3.54.53-.65.47-1.57.53-3.13.06-1.39-1-1.9-2.35-1.9-1.56 0-2.81 4.16 0 5.16l-.19 1.62c-1.74.55-2.67 1.45-2.81 3.14v2.85h-.79c-.32.5-1.11 4.32 1.14 4.1v1.71l-1.2.25c-1 .43-.73 1.78-.58 3.12a5.74 5.74 0 00.79 2.48l.68 1.07c-.06 1.54-.1 3.12 1 2.88l.07 2.74a3.89 3.89 0 00-3.73 2.31l-.19 1.35c-1.34-.09-.79.62-1 1.32h.8l-.16 14.75h-11.14l-.12-42.62 1-.17a2.91 2.91 0 012.1-2.2l-2.68-.06-9.3-12.65.09-2.45a1.93 1.93 0 001.71-1.7c0-3.88.16-7.77-.05-11.66L460 58l-1.9 9.4-1.68-.09-3.42-36.8-3.56 36.74a2.94 2.94 0 01-1.53.07 85.93 85.93 0 01-1.29-9.32l-1.14 11.6.06 11.24c.33.92.68 1.81 1.79 1.47l-.11 2.51L436.73 98h-2.2c1 .49 1.89 1 2.17 2.12l.8.1v6.4h-1.94l-3.47-8.87h-7.32l-6.94 15.73-1.23.17-3.29-8.58h-7.56l-6.08 12v-16.81l2.93-2.44.09-19.39L401 61.07v-1.16h.88V59H401v-2h-.85v2h-1v1h1v1.19l-1.53 17.29h-.88l-1.07-11.74s.74-.36.73-.91a1.1 1.1 0 00-1.13-1 1.07 1.07 0 00-1.12.92c-.11.54.73.94.73.94l-1.22 9.18h-.89L389 49.11v-6.7h1v-1h-.82v-.89c.81-.64 1.2-1.32 0-2h-1c-.91.61-1.19 1.28 0 2v.86h-1v1.09h.82v6.71h-6.86l-.06-6.8h.92v-1.13h-.91l-.06-.94c1.25-.87.22-1.71-.06-1.77a5.32 5.32 0 00-1 0c-1.29.73-.55 1.26 0 1.77v.88h-1.12v1.1h1.12l.16 6.77L375 75.4h-.82l-.73-8.81s.66-.6.64-1.06a1.14 1.14 0 00-1-1.07 1.08 1.08 0 00-1.06 1.1c0 .5.79 1 .79 1l-.61 11.5h-1l-1.46-17.26v-.92h1v-1h-.94v-1.77h-.88v1.77h-1v1h1v.95c-.54 5.46-.63 11.28-1.31 17.44l-.12 19.45 2.81 2.5v8.26l-16.62.19-.37 1-.39 1.13v1.71h-1v1.16h-2l-.15-45.89c.42-.2 1.19-.74 2.13-1.22v-.94h1.86c.09-.91.1-1.56-1-1.8h-1l-.09-10.71-.86-12.65-1 12.53.06 5.09h-3.72l-.09-9.75h.82v-1h.92v-1h.94l-.09-9.66L347.32 26l-1.53 10.67v2.83h-.85l-.49-4-.48-.73s-.77-5.87-.86-6.1-.25-.21-.3-.7c-.28-2.44-.4-8.84-.4-8.84l-.4-1L341 .2l-1 17.9-.43.94-.57 8.69-.37.55-.63 6.27-.61.85-.18 4h-1.07l-.06-3-1.5-10.77-1.34 10.77v9.72l1.07.06v1l1 .06.06.95h1L336.3 58l-3.93-.06c0-2.07 0-2.78-.12-4.94l-1-12.56-.95 12.5.07 10.64-.83.09c-.88.47-1.36.36-1.28 2h2v1a9.51 9.51 0 011.92 1.07l.13 25.26-2.9.06V93h2.09l-.07-13.55h-1l.06 7.7h-1l-.12-13.59h-1.08v9.77h-.92V69.68l-.93.06-.09 6.44h-.95v-9.61l-.9.06v3.92h-1.1l-.05-7.75h-.76l-.06 7.74-2.73.06-.09-9.45c.64.27 2.15 0 1.95-1.21h.95c1.17-.4.85-.78.06-1.18h-1c.16-.93-.62-1.41-1.92-1.19V56c-.4-1.07-1.12-1.36-1.89 0v1.5c-1-.37-2.4.48-2 1.25H315c-1 .63-.41.88 0 1.18h.82c.36 1.25.87 1.35 1.92 1.21l.21 9.52h-.85v-4.1l-1.17.06v7.81l-.81.89v-5.68h-1l-.09 6.9-.06 3.81-1.07 1.07.05-8h-1.17v8.9l-.76.06.06 3.93-.11.1-.11-7.07h-.93v8l-.84.77-.18 5.12h-3.81l-.1-25.57 2-1v-1h1.83c0-.8.05-1-.91-1.83H307V53.07c-.39-3.49-.12-10.3-1-12.69-.11 2.9-.6 10.31-1 12.69V59h-4v-9.79h1v-1h1.07v-.89h.79v-11L302.64 25 301 36.44v2.83h-1l-.34-4.11-.66-.46-.64-6.77-.36-.33-.24-8.75-.43-1L296.23 0l-1.31 17.9-.37.91-.36 8.78-.49.31-.46 6.71-.61.42-.24 4.33h-1v-3l-1.49-11.29-1.28 11.29-.06 10.79h.76v1h1v.92h.88l.06 9.79h-3.9l-.06-5.92c-.46-4.21-.47-8.32-.76-12.53-.33 4.27-.86 8.26-1.07 12.44v11h-1c-1.48.57-1 1.16-1 1.74h1.8l.06.94 2 1v48.93h-1.71v-1.22h-1.52l.09-6.4s0 .14.58.08c2.06-.75 0-1.34-.06-1.34h-1.07l-1-4-.06-7c-.16-3.16-.34-5.84-.67-.06l-.06 7.08-1.28 3.84-1.13-.06c-1.17.46-1.23.94.06 1.4h.58l.06 7.5-2.44.06-6.7-6.91-.28-4.18c-.24-1-.45-2.63-.85 0l-.19 4.24-12.48 12.87-1-.06-.06 2h1v1.16h.86v12.41h-2.84V130h-.85v-6.62h.94l-1.22-1v-.8h-1.67v-1.06c3.45-.42.39-5.28-2.21-4.71v-6.62l1.22.06V108h-1l.06-2.74-1.15-.83v-1.28c1.11-.59 1.18-1.24 0-2l-1-8.66-1.22 8.66c-.76.51-1.69 1 0 1.86v1.28l-1.43.82v2.81h-.8v1.19l1 .12.09 6.32c-3.45-.57-5.34 5.31-2.1 4.7v1.07h-1.32l.1.79-3.66 2.38v6.56h-2v-6l-2.19-.06V130h-3.66v-9.82L229 120l-.12-7.65c1.32-1.07.56-1.78 0-2.53-1.4 0-2.28-.08-2.38-1.59-.56-14-9.82-19.64-18.29-22.1l.09-7.78h1.4l.09-1.74h-1.58c0-4.21-2.38-4.71-4.33-5.21l-.46-5.34-.76-.06-.61 5.4c-2.23.6-4.67 1-4.64 5.21l-1.64.19v1.4l1.73.06v7.87c-14.73 2.92-18.22 15-18.11 21.49l-4.27 3.38.1 12.62h-2.81V125l1.83.09.09 1.13-1-.09v3.93l-3.69-.15c-.17-9.61-.37-19.27-.4-29.3l-4.45-11.32-11.1-.09v-2h-1v-2h-.85l-.09-1.83v-4l-1.92-.06v-2.9H149l-.15-8.81-1.13-7.5v-1h.7v-.49h-.73v-.76h-.49v.76h-.61V59h.67l-.06 1.1-.58 7.5v5.88h-1.72v-5.82l-.46-7.56v-1.16h.7v-.52h-.64v-.7h-.5v.67h-.61a2.26 2.26 0 000 .52h.61a5.45 5.45 0 01-.09 1.16l-.46 3.81-.49 3.72-.06 8.93h-.9v.85L141.79 88l-14.37-.07-.06-9.48-1.06-.06v-2h1.28l-.06-1.8-2 .06-.06-2h-1l-.06-5.09-.86.06c-.31-2.69-.24-5-.49-7.66l-.61 7.66h-1.24l-.06-4.55.89.1V61.9h-.86V60h-.7l-.06-.91-.85-.06v-2.1h1V56h-.94v-2.89l1-.06v-1.28h-1.1l-.09-5.91-.83 2.34v-4.78a5.22 5.22 0 01.89 0v-1.07h-.86v-1.07h-1v.94h-.83v1.16h.74l-.07 4.72-.82-2.31v5.7l-1.13-.06.06 1.49h1v2.9h-.82v1l.94.06-.06 2h-1v.88l-1-.06.06 2.16h-1v1.31h1l.15 4.36h-1v2h-1.28v-3h-1v6.8l-.37.61-.36-5.31-.64 5.19-.49-5.19-.58 5.37h-1.71l.25 2.19 1.7.28v1.71h-2.71v2h2c-.35 2.53.22 7.61-.21 10.12-.11.63-1.19-.89-1.25.4s.29 4.89.24 6.4-1-.43-1 .85.37 3.7.27 4.33c-1-.31-1 .52-1.92 1.1-.21 2.55.22 4.63.31 7.23v.11H95l-3-3-8.89 6-.11-1.9h-2.67l.08 3.82-9.61.25v-2H66l-.06 3.6h-1l-.1.8-16.35-.19c-1.13-.17-1 1.27-1.13 2.07-.87 0-3.2.08-3.68 0v-1.82H45V117l-1.24-.1c-.17-2.14-1.19-3.1-2.34-2.94v-1.53h1.31c.67-.37.51-.74 0-1.11h-1.49v-1.73a.83.83 0 00-.37-.37.77.77 0 00-1 .37v1.79h-1.7c-.48.31-.54.68 0 1.11h1.38c-.06 1.05.11 1.06-.06 1.64-1.62 0-2 1.1-2 2.71h-1.27v1.23h1.24v2.2h-2.59v-4.67h-3.08v4.18h-2.71v-2.09h-3.7l-.38 2.09-3.7-.12-.12-1.6-4.8-.13v1.73H10.1l-10.1 9L.13 143H0v16.36h495.5v-2.18h.36v-31.47c-.26-.93-.95-1.6-2.58-1.6v-4.69a2.85 2.85 0 002.84-1zM319.44 60.58l-.07-.73H321c.06.88-.94.75-1.56.73zm-.1-2.53c.62 0 1.65-.18 1.59.71h-1.62zm-1.45 2.53c-.6 0-1.56.15-1.5-.73h1.5zm-1.5-1.79c-.05-.67.5-.75 1-.74h.52v.71zm-198.78-5.22h1.1v2h-1.1zm-1.37 10.25l3.23.06v2.92h-3.23z" fill="#4c963f"/></svg>