<svg xmlns="http://www.w3.org/2000/svg" viewBox="0 0 123.48 31.09"><defs><style>.cls-1{fill:#fff}.cls-2{fill:#5fba4f}.cls-3{fill:#3255a5}</style></defs><g id="Шар_2" data-name="Шар 2"><g id="Слой_1" data-name="Слой 1"><path class="cls-1" d="M16.32 3.24L9.56 18.78h-.34L2.64 3.44a.15.15 0 01.13-.2h1.48l5.15 12 5.23-12h1.69m0-.9h-1.69a.91.91 0 00-.83.54L9.4 13 5.08 2.89a.92.92 0 00-.83-.55H2.56a.9.9 0 00-.76.41.91.91 0 00-.07.85l6.66 15.54a.9.9 0 00.83.54h.34a.91.91 0 00.83-.54L17.15 3.6a.9.9 0 00-.83-1.26"/><path class="cls-2" d="M9.56 21.34h-.34a2.57 2.57 0 01-2.35-1.55L.21 4.25A2.55 2.55 0 012.56.69h1.69A2.57 2.57 0 016.6 2.24l2.82 6.57 2.87-6.59A2.54 2.54 0 0114.63.69h1.69a2.54 2.54 0 011.95.9h.57l-.23.53a2.51 2.51 0 01.05 2.14L11.9 19.8a2.55 2.55 0 01-2.34 1.54"/><path class="cls-1" d="M19.2 2.56a1.18 1.18 0 01.86.36 1.16 1.16 0 01.36.86A1.23 1.23 0 0119.2 5a1.16 1.16 0 01-.85-.36 1.18 1.18 0 01-.35-.86 1.16 1.16 0 01.36-.86 1.16 1.16 0 01.85-.36m.74 16.22h-1.48V7.29h1.47zM19.2 1.65a2 2 0 00-1.49.63 2.08 2.08 0 00-.62 1.5 2 2 0 00.62 1.49 2 2 0 001.49.63 2.09 2.09 0 001.5-.63 2 2 0 00.62-1.49 2.13 2.13 0 00-2.12-2.13m.74 4.74h-1.47a.9.9 0 00-.91.9v11.49a.9.9 0 00.91.9h1.47a.9.9 0 00.91-.9V7.29a.9.9 0 00-.91-.9"/><path class="cls-2" d="M19.94 21.34h-1.48a2.56 2.56 0 01-2.55-2.56V7.29a2.58 2.58 0 01.3-1.21A3.78 3.78 0 0119.2 0a3.77 3.77 0 013 6.08 2.47 2.47 0 01.31 1.21v11.49a2.56 2.56 0 01-2.56 2.56m-.74-18a.49.49 0 00-.31.13.51.51 0 00-.13.31.48.48 0 00.13.3.44.44 0 00.31.13.52.52 0 00.32-.13.47.47 0 00.12-.3.5.5 0 00-.12-.31.52.52 0 00-.32-.13"/><path class="cls-1" d="M24.27 18.78H22.8V2.85h1.47zm0-16.78H22.8a.9.9 0 00-.91.9v15.88a.9.9 0 00.91.9h1.47a.9.9 0 00.91-.9V2.85a.9.9 0 00-.91-.9"/><path class="cls-2" d="M24.27 21.34H22.8a2.56 2.56 0 01-2.56-2.56V2.85A2.56 2.56 0 0122.8.3h1.47a2.56 2.56 0 012.56 2.55v15.93a2.56 2.56 0 01-2.56 2.56"/><path class="cls-1" d="M32.77 7a5.35 5.35 0 012.56.61 5.88 5.88 0 012 1.8V7.29h1.47v11.49h-1.46v-2a6.3 6.3 0 01-2.09 1.7 5.82 5.82 0 01-6.69-1.2A6 6 0 0126.83 13a5.81 5.81 0 011.74-4.24A5.67 5.67 0 0132.77 7m.11 10.72a4.61 4.61 0 002.3-.61 4.34 4.34 0 001.67-1.65 4.75 4.75 0 00.59-2.36 4.55 4.55 0 00-1.32-3.33 4.35 4.35 0 00-3.23-1.34 4.43 4.43 0 00-2.28.57A4.38 4.38 0 0029 10.73a4.65 4.65 0 000 4.64 4.63 4.63 0 001.67 1.73 4.41 4.41 0 002.26.61m-.16-11.62a6.57 6.57 0 00-4.84 2 6.73 6.73 0 00-2 4.88 6.86 6.86 0 002 4.94 6.74 6.74 0 007.74 1.38 7.75 7.75 0 00.79-.46.9.9 0 00.9.82h1.44a.9.9 0 00.9-.9V7.29a.9.9 0 00-.9-.9h-1.46a.9.9 0 00-.9.83 4.89 4.89 0 00-.69-.42 6.33 6.33 0 00-3-.71m.11 10.72a3.48 3.48 0 01-1.8-.49 3.66 3.66 0 01-1.34-1.39 3.77 3.77 0 01-.51-1.88 3.84 3.84 0 01.5-1.88 3.55 3.55 0 011.33-1.36 3.51 3.51 0 011.83-.49 3.47 3.47 0 012.59 1.07 3.66 3.66 0 011.05 2.7 3.8 3.8 0 01-.45 1.91 3.39 3.39 0 01-1.32 1.31 3.75 3.75 0 01-1.86.49"/><path class="cls-2" d="M32.73 21.63a8.21 8.21 0 01-6-2.54A8.41 8.41 0 0124.27 13a8.32 8.32 0 012.49-6 8.17 8.17 0 016-2.52A8 8 0 0136 5.1a2.53 2.53 0 011.31-.37h1.49a2.56 2.56 0 012.55 2.56v11.49a2.56 2.56 0 01-2.55 2.56h-1.46A2.59 2.59 0 0136 21a8.26 8.26 0 01-3.29.66M32.89 11a1.92 1.92 0 00-1.72 1 2.17 2.17 0 00-.28 1.07 2.13 2.13 0 00.29 1.07 2 2 0 00.74.77 1.75 1.75 0 001 .27 2.06 2.06 0 001-.28 1.7 1.7 0 00.7-.68 2.17 2.17 0 00.26-1.11 2.05 2.05 0 00-.58-1.54 1.83 1.83 0 00-1.41-.57"/><path class="cls-1" d="M69.36 7a5.32 5.32 0 012.56.61 5.7 5.7 0 012 1.8V7.29h1.46v11.49h-1.45v-2a6.27 6.27 0 01-2.08 1.7 5.83 5.83 0 01-6.7-1.2A6 6 0 0163.42 13a5.82 5.82 0 011.75-4.24A5.67 5.67 0 0169.36 7m.11 10.72a4.58 4.58 0 002.3-.61 4.27 4.27 0 001.67-1.65 4.75 4.75 0 00.56-2.37 4.58 4.58 0 00-1.31-3.33A4.58 4.58 0 0067.2 9a4.45 4.45 0 00-1.66 1.7 4.69 4.69 0 00-.62 2.32 4.63 4.63 0 00.63 2.32 4.48 4.48 0 001.67 1.73 4.37 4.37 0 002.25.61m-.11-11.59a6.55 6.55 0 00-4.83 2 6.74 6.74 0 00-2 4.88 6.83 6.83 0 002 4.94 6.52 6.52 0 004.81 2 6.59 6.59 0 002.93-.66 9 9 0 00.79-.46.89.89 0 00.89.82h1.46a.9.9 0 00.9-.9V7.29a.9.9 0 00-.9-.9h-1.48a.91.91 0 00-.9.83 4.89 4.89 0 00-.69-.42 6.3 6.3 0 00-3-.71m.11 10.72a3.45 3.45 0 01-1.79-.49 3.61 3.61 0 01-1.35-1.39 3.78 3.78 0 010-3.76 3.59 3.59 0 013.15-1.85 3.44 3.44 0 012.59 1.07 3.67 3.67 0 011.06 2.7 3.9 3.9 0 01-.45 1.91 3.42 3.42 0 01-1.33 1.31 3.72 3.72 0 01-1.86.49"/><path class="cls-2" d="M69.32 21.63a8.23 8.23 0 01-6-2.54A8.4 8.4 0 0160.87 13a8.31 8.31 0 012.48-6 8.19 8.19 0 016-2.52 8 8 0 013.26.66 2.59 2.59 0 011.31-.37h1.46A2.56 2.56 0 0178 7.29v11.49a2.56 2.56 0 01-2.56 2.56h-1.51a2.56 2.56 0 01-1.31-.34 8.31 8.31 0 01-3.3.66M69.48 11a1.86 1.86 0 00-1 .26 1.77 1.77 0 00-.72.74 2.08 2.08 0 00-.29 1.07 2.13 2.13 0 00.29 1.07 2 2 0 00.74.77 1.77 1.77 0 001 .27 2.12 2.12 0 001-.28 1.68 1.68 0 00.69-.68 2.17 2.17 0 00.26-1.11 2.05 2.05 0 00-.58-1.54 1.81 1.81 0 00-1.39-.57"/><path class="cls-1" d="M46.07 7a2.74 2.74 0 011.31.39l-.78 1.24a2.13 2.13 0 00-.78-.2A2.1 2.1 0 0044.4 9a3.8 3.8 0 00-1 1.88 18.42 18.42 0 00-.27 4v3.89h-1.56V7.29h1.51V9a5.19 5.19 0 011.42-1.51A2.81 2.81 0 0146.07 7m0-.9a3.75 3.75 0 00-2.07.63l-.15.1a.92.92 0 00-.78-.44h-1.5a.9.9 0 00-.91.9v11.49a.9.9 0 00.91.9h1.51a.9.9 0 00.9-.9v-3.89a16.6 16.6 0 01.24-3.72A3.07 3.07 0 0145 9.71a1.3 1.3 0 01.83-.38 1.33 1.33 0 01.43.13.84.84 0 00.35.07.9.9 0 00.77-.42l.77-1.25a.9.9 0 00-.32-1.26 3.56 3.56 0 00-1.75-.51"/><path class="cls-2" d="M43.08 21.34h-1.51A2.56 2.56 0 0139 18.78V7.29a2.56 2.56 0 012.56-2.56h1.51a2.58 2.58 0 01.87.16 5.08 5.08 0 014.67.26 2.55 2.55 0 011.23 1.59 2.61 2.61 0 01-.3 2L48.78 10A2.53 2.53 0 0146 11.11a4.19 4.19 0 00-.18.5 15.65 15.65 0 00-.18 3.28v3.89a2.56 2.56 0 01-2.55 2.56"/><path class="cls-1" d="M52.33 3v4.29h2.34v1.28h-2.34v10.21h-1.48V8.57h-2V7.29h2V3h1.48m0-.9h-1.48a.9.9 0 00-.91.9v3.39h-1.11a.9.9 0 00-.9.9v1.28a.9.9 0 00.9.9h1.11v9.31a.9.9 0 00.91.9h1.48a.9.9 0 00.9-.9V9.47h1.44a.9.9 0 00.9-.9V7.29a.9.9 0 00-.9-.9h-1.44V3a.9.9 0 00-.9-.9"/><path class="cls-2" d="M52.33 21.34h-1.48a2.56 2.56 0 01-2.56-2.56v-7.71a2.57 2.57 0 01-2-2.5V7.29a2.56 2.56 0 012-2.5V3A2.56 2.56 0 0150.85.47h1.48A2.55 2.55 0 0154.88 3v1.74a2.57 2.57 0 012.35 2.55v1.28a2.55 2.55 0 01-2.35 2.54v7.67a2.56 2.56 0 01-2.55 2.56"/><path class="cls-1" d="M60.83 7a2.71 2.71 0 011.31.39l-.77 1.25a1.85 1.85 0 00-2.21.36 3.72 3.72 0 00-1 1.88 17.57 17.57 0 00-.28 4v3.89h-1.55V7.29h1.51V9a5.21 5.21 0 011.43-1.48A2.8 2.8 0 0160.83 7m0-.9a3.75 3.75 0 00-2.06.64l-.15.1a.92.92 0 00-.78-.44h-1.51a.9.9 0 00-.9.9v11.48a.9.9 0 00.9.9h1.51a.9.9 0 00.9-.9v-3.89a16.6 16.6 0 01.26-3.72 3 3 0 01.78-1.46 1.3 1.3 0 01.83-.38 1.4 1.4 0 01.42.13.92.92 0 00.36.07.91.91 0 00.77-.42l.77-1.25a.91.91 0 00-.33-1.26 3.56 3.56 0 00-1.75-.51"/><path class="cls-2" d="M57.84 21.34h-1.51a2.56 2.56 0 01-2.56-2.56V7.29a2.56 2.56 0 012.56-2.56h1.51a2.58 2.58 0 01.87.16 5.07 5.07 0 014.68.27 2.56 2.56 0 01.92 3.57L63.54 10a2.55 2.55 0 01-2.17 1.21 2.49 2.49 0 01-.61-.08 2.94 2.94 0 00-.18.5 15.65 15.65 0 00-.18 3.28v3.89a2.56 2.56 0 01-2.56 2.56"/><path class="cls-1" d="M84.93 7a4.07 4.07 0 012.29.66 3.84 3.84 0 011.47 1.76 9.26 9.26 0 01.48 3.46v5.91h-1.48V13.3a13.59 13.59 0 00-.16-2.65 3 3 0 00-1-1.72 3 3 0 00-1.9-.57 3.66 3.66 0 00-2.41.88 4.29 4.29 0 00-1.4 2.2 15.37 15.37 0 00-.21 3.13v4.21h-1.47V7.29h1.48v2.06a6.14 6.14 0 012-1.77A4.84 4.84 0 0184.93 7m0-.9a5.76 5.76 0 00-2.77.7 6.18 6.18 0 00-.64.4.9.9 0 00-.9-.8h-1.48a.9.9 0 00-.9.9v11.48a.9.9 0 00.9.9h1.48a.9.9 0 00.91-.9v-4.21a14.47 14.47 0 01.18-2.91 3.25 3.25 0 011.1-1.72 2.74 2.74 0 011.83-.68 2.08 2.08 0 011.36.38 2 2 0 01.66 1.21 12.35 12.35 0 01.14 2.44v5.48a.9.9 0 00.9.9h1.48a.9.9 0 00.9-.9v-5.9a10 10 0 00-.55-3.81 4.79 4.79 0 00-1.81-2.17 5 5 0 00-2.78-.8"/><path class="cls-2" d="M89.17 21.34h-1.48a2.56 2.56 0 01-2.56-2.56V13.3a13.36 13.36 0 00-.09-2v-.07a.89.89 0 00-.09-.25 1.12 1.12 0 00-.3 0 1.14 1.14 0 00-.77.29 1.59 1.59 0 00-.56.87 13.24 13.24 0 00-.13 2.5v4.21a2.56 2.56 0 01-2.56 2.56h-1.49a2.56 2.56 0 01-2.55-2.56V7.29a2.56 2.56 0 012.55-2.56h1.48a2.63 2.63 0 011.28.34 7.38 7.38 0 013-.63 6.59 6.59 0 013.69 1.07A6.41 6.41 0 0191 8.41a11.28 11.28 0 01.68 4.46v5.91a2.56 2.56 0 01-2.55 2.56"/><path class="cls-1" d="M94.92 7a4.69 4.69 0 013.2 1.56l-1 1a3.43 3.43 0 00-2.32-1.15 1.79 1.79 0 00-1.24.47A1.48 1.48 0 0093.1 10a1.67 1.67 0 00.42 1 6 6 0 001.78 1.21 6.54 6.54 0 012.24 1.65 3 3 0 01.59 1.81 3.24 3.24 0 01-1 2.4 3.4 3.4 0 01-2.48 1 4.31 4.31 0 01-1.9-.44 3.91 3.91 0 01-1.5-1.19l.93-1.06a3.21 3.21 0 002.4 1.28 2.17 2.17 0 001.52-.57 1.77 1.77 0 00.62-1.34 1.75 1.75 0 00-.41-1.13 6.77 6.77 0 00-1.87-1.22 6 6 0 01-2.11-1.59 2.92 2.92 0 01-.56-1.81 2.89 2.89 0 01.89-2.18A3.12 3.12 0 0194.92 7m0-.9A4 4 0 0092 7.21 3.8 3.8 0 0090.87 10a3.87 3.87 0 00.73 2.31 6.82 6.82 0 002.4 1.9 5.43 5.43 0 011.59 1 .77.77 0 01.2.54.88.88 0 01-.33.68 1.31 1.31 0 01-.91.33 2.41 2.41 0 01-1.73-1 .87.87 0 00-.67-.31.89.89 0 00-.68.31l-.93 1.05a.92.92 0 000 1.16 5.09 5.09 0 001.82 1.45 5.33 5.33 0 002.29.52 4.32 4.32 0 003.12-1.24 4.16 4.16 0 001.26-3 3.92 3.92 0 00-.76-2.34 7.4 7.4 0 00-2.56-1.92 5 5 0 01-1.49-1A.75.75 0 0194 10a.57.57 0 01.22-.44.84.84 0 01.63-.24 2.62 2.62 0 011.69.9.91.91 0 00.63.25.87.87 0 00.63-.27l1-1a.9.9 0 00.2-.67.92.92 0 00-.28-.63 5.54 5.54 0 00-3.82-1.81"/><path class="cls-2" d="M94.65 21.63a7 7 0 01-3-.68A6.7 6.7 0 0189.23 19a2.56 2.56 0 01.1-3.26l.93-1a2.66 2.66 0 01.72-.58 6.14 6.14 0 01-.73-.82 5.49 5.49 0 01-1-3.27 5.48 5.48 0 011.67-4 5.71 5.71 0 014-1.58 7.12 7.12 0 015 2.27 2.55 2.55 0 01.06 3.61l-1 1-.21.19a5.93 5.93 0 01.81.87 5.57 5.57 0 011.08 3.33 5.78 5.78 0 01-1.75 4.21 5.94 5.94 0 01-4.28 1.72"/><path class="cls-3" d="M2.56 3.24h1.69L9.4 15.25l5.23-12.01h1.69L9.56 18.78h-.34L2.56 3.24z"/><path class="cls-1" d="M16.32 3.24L9.56 18.78h-.34L2.56 3.24h1.69l5.15 12 5.23-12h1.69m0-.9h-1.69a.91.91 0 00-.83.54L9.4 13 5.08 2.89a.92.92 0 00-.83-.55H2.56a.9.9 0 00-.83 1.26l6.66 15.54a.9.9 0 00.83.54h.34a.91.91 0 00.83-.54L17.15 3.6a.9.9 0 00-.83-1.26"/><path class="cls-3" d="M19.2 2.56a1.18 1.18 0 01.86.36 1.15 1.15 0 01.36.86A1.23 1.23 0 0119.2 5a1.14 1.14 0 01-.85-.36 1.18 1.18 0 01-.35-.86 1.15 1.15 0 01.36-.86 1.14 1.14 0 01.85-.36m-.74 4.73h1.48v11.49h-1.49z"/><path class="cls-1" d="M19.2 2.56a1.18 1.18 0 01.86.36 1.16 1.16 0 01.36.86A1.23 1.23 0 0119.2 5a1.16 1.16 0 01-.85-.36 1.18 1.18 0 01-.35-.86 1.16 1.16 0 01.36-.86 1.16 1.16 0 01.85-.36m.74 16.22h-1.48V7.29h1.47zM19.2 1.65a2 2 0 00-1.49.63 2.08 2.08 0 00-.62 1.5 2 2 0 00.62 1.49 2 2 0 001.49.63 2.09 2.09 0 001.5-.63 2 2 0 00.62-1.49 2.13 2.13 0 00-2.12-2.13m.74 4.74h-1.47a.9.9 0 00-.91.9v11.49a.9.9 0 00.91.9h1.47a.9.9 0 00.91-.9V7.29a.9.9 0 00-.91-.9"/><path class="cls-3" d="M22.8 2.85h1.48v15.93H22.8z"/><path class="cls-1" d="M24.27 18.78H22.8V2.85h1.47zm0-16.78H22.8a.9.9 0 00-.91.9v15.88a.9.9 0 00.91.9h1.47a.9.9 0 00.91-.9V2.85a.9.9 0 00-.91-.9"/><path class="cls-3" d="M38.8 7.29v11.49h-1.46v-2a6.3 6.3 0 01-2.09 1.7 5.82 5.82 0 01-6.69-1.2A6 6 0 0126.83 13a5.81 5.81 0 011.74-4.24A5.69 5.69 0 0132.77 7a5.35 5.35 0 012.56.61 5.88 5.88 0 012 1.8V7.29zm-5.91 1.13a4.43 4.43 0 00-2.28.58A4.38 4.38 0 0029 10.73a4.65 4.65 0 000 4.64 4.63 4.63 0 001.67 1.73 4.45 4.45 0 002.26.62 4.62 4.62 0 002.3-.62 4.34 4.34 0 001.67-1.65 4.75 4.75 0 00.59-2.36 4.55 4.55 0 00-1.32-3.33 4.35 4.35 0 00-3.23-1.34"/><path class="cls-1" d="M32.77 7a5.35 5.35 0 012.56.61 5.88 5.88 0 012 1.8V7.29h1.47v11.49h-1.46v-2a6.3 6.3 0 01-2.09 1.7 5.82 5.82 0 01-6.69-1.2A6 6 0 0126.83 13a5.81 5.81 0 011.74-4.24A5.67 5.67 0 0132.77 7m.11 10.72a4.61 4.61 0 002.3-.61 4.34 4.34 0 001.67-1.65 4.75 4.75 0 00.59-2.36 4.55 4.55 0 00-1.32-3.33 4.35 4.35 0 00-3.23-1.34 4.43 4.43 0 00-2.28.57A4.38 4.38 0 0029 10.73a4.65 4.65 0 000 4.64 4.63 4.63 0 001.67 1.73 4.41 4.41 0 002.26.61m-.16-11.62a6.57 6.57 0 00-4.84 2 6.73 6.73 0 00-2 4.88 6.86 6.86 0 002 4.94 6.74 6.74 0 007.74 1.38 7.75 7.75 0 00.79-.46.9.9 0 00.9.82h1.44a.9.9 0 00.9-.9V7.29a.9.9 0 00-.9-.9h-1.46a.9.9 0 00-.9.83 4.89 4.89 0 00-.69-.42 6.33 6.33 0 00-3-.71m.11 10.72a3.48 3.48 0 01-1.8-.49 3.66 3.66 0 01-1.34-1.39 3.77 3.77 0 01-.51-1.88 3.84 3.84 0 01.5-1.88 3.55 3.55 0 011.33-1.36 3.51 3.51 0 011.83-.49 3.47 3.47 0 012.59 1.07 3.66 3.66 0 011.05 2.7 3.8 3.8 0 01-.45 1.91 3.39 3.39 0 01-1.32 1.31 3.75 3.75 0 01-1.86.49"/><path class="cls-3" d="M75.39 7.29v11.49h-1.46v-2a6.37 6.37 0 01-2.08 1.7 5.83 5.83 0 01-6.7-1.2A6 6 0 0163.42 13a5.78 5.78 0 011.75-4.24A5.67 5.67 0 0169.36 7a5.32 5.32 0 012.56.61 5.7 5.7 0 012 1.8V7.29zm-5.91 1.13a4.47 4.47 0 00-3.94 2.31 4.69 4.69 0 00-.62 2.32 4.63 4.63 0 00.63 2.32 4.48 4.48 0 001.67 1.73 4.38 4.38 0 002.25.62 4.59 4.59 0 002.3-.62 4.27 4.27 0 001.67-1.65 4.75 4.75 0 00.56-2.36 4.58 4.58 0 00-1.31-3.33 4.38 4.38 0 00-3.24-1.34"/><path class="cls-1" d="M69.36 7a5.32 5.32 0 012.56.61 5.7 5.7 0 012 1.8V7.29h1.46v11.49h-1.45v-2a6.27 6.27 0 01-2.08 1.7 5.83 5.83 0 01-6.7-1.2A6 6 0 0163.42 13a5.82 5.82 0 011.75-4.24A5.67 5.67 0 0169.36 7m.11 10.72a4.58 4.58 0 002.3-.61 4.27 4.27 0 001.67-1.65 4.75 4.75 0 00.56-2.37 4.58 4.58 0 00-1.31-3.33A4.58 4.58 0 0067.2 9a4.45 4.45 0 00-1.66 1.7 4.69 4.69 0 00-.62 2.32 4.63 4.63 0 00.63 2.32 4.48 4.48 0 001.67 1.73 4.37 4.37 0 002.25.61m-.11-11.59a6.55 6.55 0 00-4.83 2 6.74 6.74 0 00-2 4.88 6.83 6.83 0 002 4.94 6.52 6.52 0 004.81 2 6.59 6.59 0 002.93-.66 9 9 0 00.79-.46.89.89 0 00.89.82h1.46a.9.9 0 00.9-.9V7.29a.9.9 0 00-.9-.9h-1.48a.91.91 0 00-.9.83 4.89 4.89 0 00-.69-.42 6.3 6.3 0 00-3-.71m.11 10.72a3.45 3.45 0 01-1.79-.49 3.61 3.61 0 01-1.35-1.39 3.78 3.78 0 010-3.76 3.59 3.59 0 013.15-1.85 3.44 3.44 0 012.59 1.07 3.67 3.67 0 011.06 2.7 3.9 3.9 0 01-.45 1.91 3.42 3.42 0 01-1.33 1.31 3.72 3.72 0 01-1.86.49"/><path class="cls-3" d="M41.57 7.29h1.51V9a5.19 5.19 0 011.42-1.51A2.81 2.81 0 0146.07 7a2.74 2.74 0 011.31.39l-.77 1.25a2.17 2.17 0 00-.79-.2A2.1 2.1 0 0044.4 9a3.8 3.8 0 00-1 1.88 18.42 18.42 0 00-.27 4v3.89h-1.56z"/><path class="cls-1" d="M46.07 7a2.74 2.74 0 011.31.39l-.78 1.24a2.13 2.13 0 00-.78-.2A2.1 2.1 0 0044.4 9a3.8 3.8 0 00-1 1.88 18.42 18.42 0 00-.27 4v3.89h-1.56V7.29h1.51V9a5.19 5.19 0 011.42-1.51A2.81 2.81 0 0146.07 7m0-.9a3.75 3.75 0 00-2.07.63l-.15.1a.92.92 0 00-.78-.44h-1.5a.9.9 0 00-.91.9v11.49a.9.9 0 00.91.9h1.51a.9.9 0 00.9-.9v-3.89a16.6 16.6 0 01.24-3.72A3.07 3.07 0 0145 9.71a1.3 1.3 0 01.83-.38 1.33 1.33 0 01.43.13.84.84 0 00.35.07.9.9 0 00.77-.42l.77-1.25a.9.9 0 00-.32-1.26 3.56 3.56 0 00-1.75-.51"/><path class="cls-3" d="M50.85 3.02h1.48v4.27h2.34v1.28h-2.34v10.21h-1.48V8.57h-2.02V7.29h2.02V3.02z"/><path class="cls-1" d="M52.33 3v4.29h2.34v1.28h-2.34v10.21h-1.48V8.57h-2V7.29h2V3h1.48m0-.9h-1.48a.9.9 0 00-.91.9v3.39h-1.11a.9.9 0 00-.9.9v1.28a.9.9 0 00.9.9h1.11v9.31a.9.9 0 00.91.9h1.48a.9.9 0 00.9-.9V9.47h1.44a.9.9 0 00.9-.9V7.29a.9.9 0 00-.9-.9h-1.44V3a.9.9 0 00-.9-.9"/><path class="cls-3" d="M56.33 7.29h1.51V9a5.21 5.21 0 011.43-1.48A2.8 2.8 0 0160.83 7a2.71 2.71 0 011.31.39l-.77 1.25a1.85 1.85 0 00-2.21.36 3.8 3.8 0 00-1 1.88 18.42 18.42 0 00-.27 4v3.89h-1.56z"/><path class="cls-1" d="M60.83 7a2.71 2.71 0 011.31.39l-.77 1.25a1.85 1.85 0 00-2.21.36 3.72 3.72 0 00-1 1.88 17.57 17.57 0 00-.28 4v3.89h-1.55V7.29h1.51V9a5.21 5.21 0 011.43-1.48A2.8 2.8 0 0160.83 7m0-.9a3.75 3.75 0 00-2.06.64l-.15.1a.92.92 0 00-.78-.44h-1.51a.9.9 0 00-.9.9v11.48a.9.9 0 00.9.9h1.51a.9.9 0 00.9-.9v-3.89a16.6 16.6 0 01.26-3.72 3 3 0 01.78-1.46 1.3 1.3 0 01.83-.38 1.4 1.4 0 01.42.13.92.92 0 00.36.07.91.91 0 00.77-.42l.77-1.25a.91.91 0 00-.33-1.26 3.56 3.56 0 00-1.75-.51"/><path class="cls-3" d="M79.14 7.29h1.48v2.06a6.14 6.14 0 012-1.77A4.84 4.84 0 0184.93 7a4.07 4.07 0 012.29.66 3.78 3.78 0 011.47 1.76 9.26 9.26 0 01.48 3.46v5.91h-1.48V13.3a13.33 13.33 0 00-.17-2.65 2.88 2.88 0 00-1-1.72 3 3 0 00-1.9-.57 3.66 3.66 0 00-2.41.88 4.25 4.25 0 00-1.4 2.2 15.37 15.37 0 00-.21 3.13v4.21h-1.46z"/><path class="cls-1" d="M84.93 7a4.07 4.07 0 012.29.66 3.84 3.84 0 011.47 1.76 9.26 9.26 0 01.48 3.46v5.91h-1.48V13.3a13.59 13.59 0 00-.16-2.65 3 3 0 00-1-1.72 3 3 0 00-1.9-.57 3.66 3.66 0 00-2.41.88 4.29 4.29 0 00-1.4 2.2 15.37 15.37 0 00-.21 3.13v4.21h-1.47V7.29h1.48v2.06a6.14 6.14 0 012-1.77A4.84 4.84 0 0184.93 7m0-.9a5.76 5.76 0 00-2.77.7 6.18 6.18 0 00-.64.4.9.9 0 00-.9-.8h-1.48a.9.9 0 00-.9.9v11.48a.9.9 0 00.9.9h1.48a.9.9 0 00.91-.9v-4.21a14.47 14.47 0 01.18-2.91 3.25 3.25 0 011.1-1.72 2.74 2.74 0 011.83-.68 2.08 2.08 0 011.36.38 2 2 0 01.66 1.21 12.35 12.35 0 01.14 2.44v5.48a.9.9 0 00.9.9h1.48a.9.9 0 00.9-.9v-5.9a10 10 0 00-.55-3.81 4.79 4.79 0 00-1.81-2.17 5 5 0 00-2.78-.8"/><path class="cls-3" d="M98.12 8.55l-1 1a3.39 3.39 0 00-2.31-1.15 1.79 1.79 0 00-1.24.47A1.48 1.48 0 0093.1 10a1.67 1.67 0 00.42 1 6 6 0 001.78 1.21 6.54 6.54 0 012.24 1.65 3 3 0 01.59 1.81 3.28 3.28 0 01-1 2.4 3.4 3.4 0 01-2.48 1 4.31 4.31 0 01-1.9-.44 4 4 0 01-1.5-1.19l.93-1.06a3.22 3.22 0 002.4 1.28 2.19 2.19 0 001.52-.57 1.77 1.77 0 00.62-1.34 1.75 1.75 0 00-.41-1.13 6.84 6.84 0 00-1.86-1.22 6 6 0 01-2.12-1.59 2.92 2.92 0 01-.56-1.81 2.92 2.92 0 01.89-2.18A3.12 3.12 0 0194.92 7a4.69 4.69 0 013.2 1.56"/><path class="cls-1" d="M94.92 7a4.69 4.69 0 013.2 1.56l-1 1a3.43 3.43 0 00-2.32-1.15 1.79 1.79 0 00-1.24.47A1.48 1.48 0 0093.1 10a1.67 1.67 0 00.42 1 6 6 0 001.78 1.21 6.54 6.54 0 012.24 1.65 3 3 0 01.59 1.81 3.24 3.24 0 01-1 2.4 3.4 3.4 0 01-2.48 1 4.31 4.31 0 01-1.9-.44 3.91 3.91 0 01-1.5-1.19l.93-1.06a3.21 3.21 0 002.4 1.28 2.17 2.17 0 001.52-.57 1.77 1.77 0 00.62-1.34 1.75 1.75 0 00-.41-1.13 6.77 6.77 0 00-1.87-1.22 6 6 0 01-2.11-1.59 2.92 2.92 0 01-.56-1.81 2.89 2.89 0 01.89-2.18A3.12 3.12 0 0194.92 7m0-.9A4 4 0 0092 7.21 3.8 3.8 0 0090.87 10a3.87 3.87 0 00.73 2.31 6.82 6.82 0 002.4 1.9 5.43 5.43 0 011.59 1 .77.77 0 01.2.54.88.88 0 01-.33.68 1.31 1.31 0 01-.91.33 2.41 2.41 0 01-1.73-1 .87.87 0 00-.67-.31.89.89 0 00-.68.31l-.93 1.05a.92.92 0 000 1.16 5.09 5.09 0 001.82 1.45 5.33 5.33 0 002.29.52 4.32 4.32 0 003.12-1.24 4.16 4.16 0 001.26-3 3.92 3.92 0 00-.76-2.34 7.4 7.4 0 00-2.56-1.92 5 5 0 01-1.49-1A.75.75 0 0194 10a.57.57 0 01.22-.44.84.84 0 01.63-.24 2.62 2.62 0 011.69.9.91.91 0 00.63.25.87.87 0 00.63-.27l1-1a.9.9 0 00.2-.67.92.92 0 00-.28-.63 5.54 5.54 0 00-3.82-1.81"/><path d="M5.2 26.91c0-.75-.09-1.66-.08-2.34-.18.63-.41 1.31-.68 2.06l-1 2.64h-.53L2 26.68c-.25-.77-.47-1.47-.63-2.11 0 .68-.06 1.59-.11 2.4l-.12 2.33H.47l.38-5.43h.89l.93 2.62c.23.67.41 1.27.55 1.84.14-.55.33-1.15.58-1.84l1-2.62h.9L6 29.3h-.67zm2.67-2.61a.43.43 0 01-.46.44.42.42 0 01-.41-.44.43.43 0 01.44-.44.42.42 0 01.44.44m-.79 1.1h.71v3.9h-.72zm2.21 0l1.29 1.7h.14v-1.7h.68v1.7h.14l1.29-1.7h.81l-1.54 1.77a1.36 1.36 0 011.17 1 10.33 10.33 0 00.43 1.09H13a6.06 6.06 0 01-.36-.89 1.07 1.07 0 00-1.11-.83h-.12v1.76h-.68v-1.72h-.13a1.06 1.06 0 00-1.12.83 6.48 6.48 0 01-.37.89h-.69a9.17 9.17 0 00.43-1.09 1.39 1.39 0 011.18-1L8.48 25.4zm5.73 0v1.57h1.86V25.4h.7v3.9h-.7v-1.76h-1.86v1.76h-.7v-3.9h.7zm5.88 3.9l-.05-.49a1.42 1.42 0 01-1.19.58 1.11 1.11 0 01-1.19-1.12c0-.94.84-1.46 2.34-1.45v-.08a.81.81 0 00-.88-.91 2 2 0 00-1 .29l-.16-.46a2.41 2.41 0 011.22-.35c1.2 0 1.48.81 1.48 1.6v1.46a5.26 5.26 0 00.07.93zm-.1-2c-.77 0-1.65.12-1.65.88a.63.63 0 00.67.68 1 1 0 00.94-.66.85.85 0 000-.22zm1.83-.63V25.4h.64v.67a1.52 1.52 0 011.38-.76 1.77 1.77 0 011.66 2 1.85 1.85 0 01-1.78 2.1 1.38 1.38 0 01-1.2-.61v2.1h-.7zm.7 1a1.27 1.27 0 000 .29 1.07 1.07 0 001.06.83c.75 0 1.19-.61 1.19-1.5s-.42-1.46-1.16-1.46a1.14 1.14 0 00-1.08.88 1.47 1.47 0 00-.05.29zm7.43-.35a1.91 1.91 0 01-1.95 2.07 1.86 1.86 0 01-1.87-2 1.91 1.91 0 011.94-2.07 1.85 1.85 0 011.88 2m-3.1 0c0 .85.49 1.5 1.18 1.5s1.15-.6 1.15-1.48c0-.66-.33-1.5-1.17-1.5s-1.2.78-1.2 1.52m7-1.96v3.37H35v1.76h-.56v-1.24H31.7v1.24h-.55v-1.76h.33a3.12 3.12 0 00.39-.8 5.25 5.25 0 00.13-1.56v-1zm-2 1.18a5.2 5.2 0 01-.18 1.42 3.91 3.91 0 01-.31.72h1.8v-2.78h-1.28zm3.94-1.18v1.57h1.85V25.4h.71v3.9h-.71v-1.76h-1.85v1.76h-.7v-3.9h.7zm4.51-1.1a.42.42 0 01-.45.44.44.44 0 010-.88.42.42 0 01.44.44m-.79 1.1H41v3.9h-.71zm5.77 3.9l-.05-.49a1.46 1.46 0 01-1.2.58 1.11 1.11 0 01-1.19-1.12c0-.94.84-1.46 2.35-1.45v-.08a.81.81 0 00-.89-.91 2.06 2.06 0 00-1 .29l-.16-.46a2.45 2.45 0 011.29-.35c1.19 0 1.48.81 1.48 1.6v1.46a6.51 6.51 0 00.06.93zm-.11-2c-.77 0-1.65.12-1.65.88a.63.63 0 00.67.68 1 1 0 00.94-.66.57.57 0 000-.22zm1.82-1.85a8.11 8.11 0 011.24-.09c.66 0 1.74.1 1.74 1a.91.91 0 01-.82.88c.57.08 1 .4 1 1 0 1-1.29 1.15-2 1.15-.44 0-.89 0-1.1-.05zm.67 3.38a3.48 3.48 0 00.57 0c.48 0 1.19-.12 1.19-.68s-.57-.69-1.24-.69h-.52zm0-1.8H49c.52 0 1.07-.15 1.07-.61s-.34-.57-1-.57a4.22 4.22 0 00-.55 0zm5.94-1.63v.56h-1.22v3.34h-.7v-3.34h-1.22v-.56h3.14zm4.05 1.92a1.91 1.91 0 01-2 2.07 1.86 1.86 0 01-1.87-2 1.91 1.91 0 011.94-2.07 1.85 1.85 0 011.88 2m-3.1 0c0 .85.49 1.5 1.19 1.5s1.18-.64 1.18-1.52c0-.66-.33-1.5-1.17-1.5s-1.2.78-1.2 1.52m7-3.24a5.62 5.62 0 01-.82.17 1.93 1.93 0 00-1.39.74 2.74 2.74 0 00-.42 1.29A1.47 1.47 0 0161 25.4c1 0 1.66.68 1.66 1.93s-.66 2.06-1.81 2.06c-1.37 0-1.82-1.31-1.82-2.61a3.44 3.44 0 01.6-2.16 2.35 2.35 0 011.68-.92 6.61 6.61 0 001-.21zm-1.4 1.84a1 1 0 00-.88.53 1.74 1.74 0 00-.19.84c0 .64.31 1.57 1.09 1.57S62 28.1 62 27.38s-.25-1.46-1.09-1.46m2.84-.52l.86 2.3c.09.26.18.57.25.8.08-.23.16-.53.25-.81l.78-2.29h.75l-1.07 2.78a5.88 5.88 0 01-1.33 2.44 2 2 0 01-.88.47l-.17-.6a2 2 0 00.62-.35 2.17 2.17 0 00.59-.79.38.38 0 00.06-.17.41.41 0 000-.18L63 25.4zM70 29.16a2.79 2.79 0 01-1.13.22 1.86 1.86 0 01-1.94-2A2 2 0 0169 25.32a2.29 2.29 0 011 .2l-.16.55a1.62 1.62 0 00-.82-.19 1.47 1.47 0 000 2.94 2 2 0 00.87-.2zm1.52-3.76v1.57h1.86V25.4h.7v3.9h-.7v-1.76h-1.86v1.76h-.7v-3.9h.7zM76 24.3a.42.42 0 01-.45.44.43.43 0 01-.43-.44.43.43 0 01.45-.44.42.42 0 01.43.44m-.79 1.1H76v3.9h-.71zm6.84 0v3.9h-.71v-3.34h-1.81v3.34h-.7v-3.9h3.22zm1.55 2.08a1.25 1.25 0 001.34 1.35 2.58 2.58 0 001.08-.2l.12.51a3.19 3.19 0 01-1.3.24 1.81 1.81 0 01-1.92-2 1.9 1.9 0 011.84-2.1 1.65 1.65 0 011.61 1.84 2.19 2.19 0 010 .33zm2.08-.48a1 1 0 00-1-1.15A1.18 1.18 0 0083.61 27zm1.57-.33V25.4h.63v.67a1.53 1.53 0 011.39-.76 1.77 1.77 0 011.65 2c0 1.41-.85 2.1-1.77 2.1a1.37 1.37 0 01-1.2-.61v2.1h-.7zm.7 1A2.36 2.36 0 0088 28a1.09 1.09 0 001.07.83c.75 0 1.18-.61 1.18-1.5s-.41-1.46-1.16-1.46a1.14 1.14 0 00-1.07.88A1.47 1.47 0 0088 27zm4.28-.19a1.25 1.25 0 001.34 1.35 2.67 2.67 0 001.09-.2l.12.51a3.23 3.23 0 01-1.3.24 1.81 1.81 0 01-1.92-2 1.89 1.89 0 011.83-2.1A1.65 1.65 0 0195 27.15a2.5 2.5 0 010 .33zm2.09-.48a1 1 0 00-1-1.15A1.18 1.18 0 0092.24 27zm1.55-1.55a8 8 0 011.24-.09c.65 0 1.73.1 1.73 1a.91.91 0 01-.81.88c.57.08 1 .4 1 1 0 1-1.29 1.15-2.06 1.15-.43 0-.88 0-1.09-.05zm.67 3.38a3.4 3.4 0 00.57 0c.48 0 1.18-.12 1.18-.68s-.56-.69-1.24-.69h-.51zm0-1.8h.54c.52 0 1.06-.15 1.06-.61s-.34-.57-1-.57a4.33 4.33 0 00-.55 0zm3.77.45a1.25 1.25 0 001.34 1.35 2.58 2.58 0 001.08-.2l.12.51a3.19 3.19 0 01-1.3.24 1.81 1.81 0 01-1.92-2 1.9 1.9 0 011.84-2.1 1.65 1.65 0 011.61 1.84 2.19 2.19 0 010 .33zm2.08-.51a1 1 0 00-1-1.15 1.18 1.18 0 00-1.07 1.18zm1.92.03h.34c.59 0 1-.27 1-.63s-.32-.57-.76-.57a1.91 1.91 0 00-1 .28l-.17-.44a2.46 2.46 0 011.3-.35c.59 0 1.32.26 1.32 1a1 1 0 01-.88.89 1 1 0 011.06 1c0 .85-.86 1.16-1.68 1.16a2.74 2.74 0 01-1.27-.31l.19-.48a2.16 2.16 0 001 .27c.59 0 1-.29 1-.67 0-.53-.55-.67-1.14-.67h-.35zm3.55.48a1.24 1.24 0 001.34 1.35 2.66 2.66 0 001.08-.2l.12.51a3.23 3.23 0 01-1.3.24 1.81 1.81 0 01-1.92-2 1.89 1.89 0 011.83-2.1 1.65 1.65 0 011.61 1.84 2.5 2.5 0 010 .33zm2.08-.51a1 1 0 00-1-1.15 1.17 1.17 0 00-1.07 1.18zm2.25-1.57v1.57h1.86V25.4h.7v3.9h-.7v-1.76h-1.86v1.76h-.7v-3.9h.7zm4.4 0v1.57h1.86V25.4h.7v3.9h-.7v-1.76h-1.86v1.76h-.7v-3.9h.7zm6.61 3.9h-.71v-1.64H122a.89.89 0 00-.65.22 2.72 2.72 0 00-.55 1.1 3.17 3.17 0 01-.16.32h-.76a2.28 2.28 0 00.24-.44 3.09 3.09 0 01.61-1.18 1 1 0 01.45-.22 1 1 0 01-1-1 .93.93 0 01.52-.84 2.68 2.68 0 011.31-.27 11.14 11.14 0 011.26.08zm-.71-3.43a3.22 3.22 0 00-.58 0c-.49 0-1.06.13-1.06.67s.62.68 1 .68h.6z" fill="#231f20"/><path class="cls-3" d="M113.81 3.68a9 9 0 11-9 9 9 9 0 019-9m0-.63a9.68 9.68 0 109.67 9.67 9.69 9.69 0 00-9.67-9.67"/><path class="cls-2" d="M105.21 13a1.31 1.31 0 00.9.65 7.84 7.84 0 01.65-4.2c-.6-.35-.24-1.08.13-1.52a3.37 3.37 0 01.45-.48 1.11 1.11 0 01.25-.21l.1-.08c.06 0 .11-.12.18-.17l.11-.07.11-.07.21-.15a12.48 12.48 0 011.7-1.05 3.55 3.55 0 00.59-.5 3.17 3.17 0 01.46-.36c-.09.13-.37.46-.43.57.4-.13.79-.38 1.47-.59a7.65 7.65 0 011.71-.35h.76c.18.09 1 0 1 .82.07 0 .52.16.73.25h.1a4.86 4.86 0 01.77.34 8.91 8.91 0 011 .64 1.89 1.89 0 01.3.25l.08.07.36.32a1.21 1.21 0 01.16.16c.06.06.1.14.18.17a1.38 1.38 0 00.12-.89c0-.07-.09-.22-.06-.27s.14.08.22.15a.36.36 0 01.18.24 2.21 2.21 0 01-.22 1c0 .07 0 .09.06.13l.28.36.17.24a7.82 7.82 0 01.6 1.07c.09.18.17.38.25.58a5.31 5.31 0 00.22.61 2.49 2.49 0 00.44-1.29 2 2 0 000-.25 1.2 1.2 0 01-.06-.24l.25.5a.79.79 0 010 .63 3.3 3.3 0 01-.34.82c-.26.4-.19.12 0 .83 0 .21.08.43.11.65a12.9 12.9 0 010 1.49 6.1 6.1 0 00.7-1.35 2.46 2.46 0 00.14-.38.39.39 0 010-.14 6.09 6.09 0 01-.16 2 6.76 6.76 0 01-1.14 2.53l-.49 1c-.12.21-.18.29-.28.46a7.74 7.74 0 01-.64.84l-.18.19-.19.19-.28.26-.11.09a2.3 2.3 0 01-.44.33c-.15.08-.38.26-.65.39 0 0-.09 0-.12.08s0 0-.1.06 0 0-.09 0h-.15l-.19.09a5 5 0 01-1.67.43 7.76 7.76 0 01-2.84-.2c-.11 0-.31-.11-.4-.12h-.49a6.53 6.53 0 01-1.32-.24l-.58-.2c-.18-.07-.41-.2-.55-.24l-.4-.23a4.72 4.72 0 01-1.08-.85 6.61 6.61 0 002 .52l-.39-.31a6.62 6.62 0 01-.85-.83l-.12-.12-.43-.54-.1-.14a3.93 3.93 0 01-1.16-.25c-.66-.33-.37-.37-.64-.77l.14.13a1.23 1.23 0 00.31.24 2.63 2.63 0 001.1.3c-.07-.09-.36-.57-.43-.7s-.27-.52-.38-.78a9.23 9.23 0 01-.45-1.28c-.15-.6 0-.4-.47-.59a1.31 1.31 0 01-.59-.38 1.4 1.4 0 010-.41m16.26 2.15a6.15 6.15 0 00.5-1.48l-.39.58s-.13.15-.15.19-.06.46-.08.58-.1.38-.12.54a1.34 1.34 0 00.24-.41M109.2 6.21l-.23.15-.44.29-.84.7s-.4.4-.52.58-.52.67-.38 1 .06.16.16.17a4.43 4.43 0 01.47-.79l.54-.71.06-.07v-.05h.06c.06 0 0 0 0 0l.12-.11V7a.88.88 0 01.27-.24l.42-.46a.61.61 0 00.13-.15 2 2 0 00-.22.14m8.41 7.71l.2-.14a13.54 13.54 0 001.31-1 9.9 9.9 0 00-.55-1.67c-.11-.26-.23-.52-.35-.75l-.2-.36-.2-.32c-.11.05-.06.08-.16.11a.59.59 0 01-.18.14s-.06.07-.11.11l-.13.1a2.19 2.19 0 01-.25.2l-.39.29a12.8 12.8 0 01-1.25.8 3.29 3.29 0 00.17.39c.36.78.67 1.45 1 2.26 0 .12.11.28.14.4.17-.06.89-.55 1-.57m-3.77-6.68a.7.7 0 00-.1.08l-.6.41c.2.25.36.53.55.81L114 9c.21.35 1.13 1.92 1.23 2.2a11.74 11.74 0 001.31-.84l.16-.12.15-.1c.16-.11.89-.7.9-.7a6.79 6.79 0 00-.63-.86l-.35-.39a8.22 8.22 0 00-1.17-1 7.1 7.1 0 00-.91-.55 8.42 8.42 0 01-.87.71m1.27-1.78a8.81 8.81 0 00-1.48-.18h-1.07a5.4 5.4 0 00-1 .15h.53a6.86 6.86 0 012.33.6.35.35 0 00.15.07 2.84 2.84 0 00.49-.72m-1.79 7.05h-.06c-.19.13-1.18.47-1.24.52l.77 1.55c0 .05.15.27.2.35s.12.24.19.36.33.62.4.7a25.89 25.89 0 002.49-1.17l.32-.18c0-.23-.79-2-.94-2.29s-.25-.5-.35-.74a3.1 3.1 0 00-.4.21l-.39.21-.41.2a2.42 2.42 0 01-.4.19l-.1.05m-.44-.11l.15-.06.45-.22h.1l.11-.06c.1-.07 1.06-.53 1.21-.66 0-.11-.17-.33-.24-.46-.25-.43-.48-.88-.73-1.32s-.33-.57-.52-.85l-.54-.83a14.06 14.06 0 01-1.29.65s-.92.4-1 .43a3.51 3.51 0 00.15.53l.49 1.45c.07.19.64 1.66.76 1.82.2 0 .83-.36 1-.39m3.48 2.58a2.79 2.79 0 00-.34.18c-.35.19-.66.34-1 .51s-1.4.61-1.42.62a2.92 2.92 0 00.17.27c.13.24 1.07 1.7 1.18 1.8.38-.15.74-.32 1.1-.48l.53-.26a4.11 4.11 0 00.51-.27 21.8 21.8 0 00-.73-2.37m-.68 3.41a5.09 5.09 0 01-.54.22 7.66 7.66 0 00.93 1 10.06 10.06 0 001.32-.63 8.63 8.63 0 00-.21-1.35c-.07 0-1.19.59-1.5.73m0 1.32l-.06-.07-.12-.12a1.36 1.36 0 01-.12-.12l-.54-.68a16.64 16.64 0 01-2.1.68l-.17.05c.22.12.4.25.69.39a6.11 6.11 0 00.74.32.94.94 0 00.44-.06l.84-.23c.13 0 .28-.11.4-.14s0 0 0-.07m-2.9-.62a2.17 2.17 0 01.49-.15l.48-.15c.31-.09.65-.23.92-.31 0-.1-.13-.17-.19-.27s-.11-.14-.17-.24-.25-.34-.35-.51l-.64-1.05c-.14 0-.51.19-.59.2s-1.62.54-2.31.67.5.61.64.77l.7.69a6 6 0 00.54.43c.16 0 .42-.12.55-.11m-.43-2.64a2.54 2.54 0 01.31-.09.82.82 0 01.25-.1l.13-.05h.06l-.09-.17-.27-.46c-.11-.21-.24-.44-.34-.65 0-.06-.17-.32-.21-.41s-.14-.28-.21-.42l-.42-.86-.72.24c-.54.16-1 .29-1.53.41a8.22 8.22 0 01-.84.15 8.08 8.08 0 00.52 1.27l.73 1.22v.09l.18.27a.62.62 0 01.11.17 16.62 16.62 0 002.23-.57m-.84-3.52c0-.07-.33-.77-.39-.91a29.79 29.79 0 01-1-2.88 4.58 4.58 0 00-.49.15c-.29.08-.74.19-1 .24l-.55.08a8.19 8.19 0 000 2v.08l.07.53a11.91 11.91 0 00.34 1.46h.11a16.11 16.11 0 003-.73m-3.27-5.2l.06-.14v.07a.16.16 0 01-.08.06 1 1 0 01-.13.18 1.3 1.3 0 00-.15.18l-.14.18-.39.58a3.61 3.61 0 00-.24.41 1.65 1.65 0 00.63.06 8.08 8.08 0 01.2-.85 3.83 3.83 0 01.29-.73M110 6.64a5.44 5.44 0 01.16-.64.79.79 0 00-.17.14 7.69 7.69 0 00-.62.67 5.22 5.22 0 00-.61 1 5.88 5.88 0 00-.48 1.45 8.3 8.3 0 001.95-.47c0-.21-.11-.43-.15-.66a5.39 5.39 0 01-.08-1.5m.36-.21a5.12 5.12 0 00.19 2.27c.21 0 1.08-.47 1.21-.49a3 3 0 01.48-.26 3.42 3.42 0 00.47-.27c0-.06-.05-.06-.06-.12l-.19-.23-.1-.13-.16-.19a4.5 4.5 0 00-.54-.54c-.37-.35-1.21-.91-1.4-.06m1-.61a2.94 2.94 0 01.4.28l.4.37a7.55 7.55 0 01.72.82s.07.1.11.14.23-.14.3-.17a9 9 0 001.17-.93c-.15 0-.37-.15-.55-.21a7 7 0 00-1.9-.35h-.71m2.8-1.23a7 7 0 00-1.46.24 3.47 3.47 0 00-1.07.42l-.14.09a17.7 17.7 0 012.04-.26 8 8 0 011.83.13c0-.58-.66-.63-1.24-.63M119 7.64l-.42-.41-.14-.13a1.79 1.79 0 00-.14-.13l-.48-.36c-.09 0-.18-.12-.27-.17a7.27 7.27 0 00-2.12-.91s-.08.15-.12.21a3.67 3.67 0 01-.43.57l.06.05A8.16 8.16 0 01116 7c.24.17.27.21.48.38a9.65 9.65 0 011.1 1.12l.32.42c.06.06.1.14.16.2l.84-.95A1.73 1.73 0 01119 8a1.32 1.32 0 00.12-.2zm1.62 2.73a8.32 8.32 0 00-.57-1.24c-.23-.39-.33-.52-.54-.83l-.2-.26c-.08.09-.13.22-.21.27a.67.67 0 01-.09.14 2.54 2.54 0 01-.34.38l-.36.37a8.72 8.72 0 01.48.87v.07a11 11 0 01.65 1.59 5.51 5.51 0 00.18.57c0-.07.17-.14.24-.22l.23-.22a6 6 0 00.85-1 6.72 6.72 0 00-.22-.69m.52 2.27a6.58 6.58 0 00-.2-1.18c-.22.25-.42.48-.64.7s-.6.57-.71.64a5.33 5.33 0 00.12.63c0 .21.07.43.1.65 0 .48.06.91.08 1.4a1.33 1.33 0 00.19-.14 4 4 0 00.54-.51l.49-.54a6.91 6.91 0 000-1.65m-.88 4.2l.35-.42a6.35 6.35 0 00.46-1.58 2 2 0 00-.25.25c-.09.1-.18.17-.27.26l-.54.46c-.17.13-.12.06-.15.35l-.15.88a3.38 3.38 0 00-.09.41zm-.07.51a9 9 0 01-.71.63c-.1.07-.14.26-.23.45s-.16.31-.23.44a7.51 7.51 0 001.17-1.52M118 19.64l.19-.24a3.37 3.37 0 00.54-.81 6.1 6.1 0 01-.75.49s-.28.08-.3.26a2.3 2.3 0 010 .59 2.78 2.78 0 01.27-.19m-.23-.84a9.1 9.1 0 00.86-.57 1.65 1.65 0 01.27-.19l.08-.08a.38.38 0 00.2-.26 6.56 6.56 0 00.32-1.51l-.24.17a8.12 8.12 0 01-.75.51l-.22.12a.91.91 0 01-.16.11l-.18.1a1.2 1.2 0 01-.21.13 2.26 2.26 0 01-.2.13c0 .31.19.77.23 1.33m-.22-1.68a.37.37 0 01.17-.1h.08c.06 0 .06-.05.12-.06a.78.78 0 01.15-.1l.08-.05.15-.1c.09-.08.77-.52 1-.7a1.13 1.13 0 01.13-.1 11.25 11.25 0 00-.07-1.42c0-.44-.13-.86-.2-1.28l-.14.11-.18.14-.37.28-.18.13-.2.13a2.86 2.86 0 01-.38.26 12 12 0 01-1.06.66 1.6 1.6 0 00.1.31c.17.48.34 1 .48 1.46a4.14 4.14 0 00.18.6zm-.14 2.73a2.18 2.18 0 00.06-.52l-.93.44c-.08 0-.1 0-.13.08.13.07.77.71 1 0m-1.66.62a4 4 0 00.77-.07 2.27 2.27 0 01-.4-.26c-.19-.16-.15-.12-.43 0s-.67.23-1 .3a2.33 2.33 0 00.46.08 4.19 4.19 0 00.5 0m-1.67.28a6.5 6.5 0 00.88 0h.06l-.46-.08c-.13 0-.31-.09-.43-.11l-.93.13a3.94 3.94 0 00.88.1m-2.48-.55a1.81 1.81 0 01.41.14 1.12 1.12 0 00.52.05 8.76 8.76 0 001-.08l-.7-.37a2.11 2.11 0 01-.4-.27.75.75 0 01-.17-.1c-.07-.05-.08-.08-.18-.05a10.31 10.31 0 01-1.45.2.8.8 0 00.22.13zm-2.37-.49a4.72 4.72 0 00.84.36 5.25 5.25 0 001 .22c-.11-.07-.28-.14-.4-.2a6.16 6.16 0 00-.56-.32h-.3l-.55-.05m-.88-1.91l.06.06.7.73.13.11c.21.2.49.41.71.58.06 0 .1.06.15.11s.07.06.2.06a6.11 6.11 0 00.86-.05c.26 0 .5-.1.74-.13l-.62-.56a1.36 1.36 0 01-.12-.12l-.46-.48a1.06 1.06 0 00-.1-.12s-.47-.58-.52-.66l-.92.13a8.6 8.6 0 01-1 .06zM107 15.51a8.71 8.71 0 00.58 1.14c0 .05.09.1.09.16a1.35 1.35 0 00.19.28h.08a4.2 4.2 0 001.06 0l.87-.11-.24-.35a12.54 12.54 0 01-1-1.86l-.33-.77a7.46 7.46 0 01-1.77 0 6.42 6.42 0 00.46 1.52m-.56-2.11v.23a5.63 5.63 0 00.84.06c.31 0 .58 0 .88-.05a3.18 3.18 0 00-.12-.43 10.87 10.87 0 01-.35-2.54c0-.4 0-.74.06-1.12a3.31 3.31 0 01-.73-.09 5.85 5.85 0 00-.58 1.87 7.66 7.66 0 000 2"/><path class="cls-2" d="M112.83 10.79l9.14-5.91-5.87 9.11-.26-.62-.52-1.18-.49-.73-1.2-.41-.8-.26z"/><path d="M112.91 10.46a6.93 6.93 0 00-1.79 1.83c-1.8 2.63-3.52 5.31-5.26 8l-1 1.58.2.17c3.48-2.28 7-4.56 10.45-6.87a2.6 2.6 0 00.66-.8q3.06-4.65 6.1-9.3c.17-.26.28-.55.54-1.06-3.45 2.26-6.68 4.33-9.87 6.47m.83 4.27a1.56 1.56 0 01-1.6-1.57 1.61 1.61 0 011.58-1.71 1.73 1.73 0 011.69 1.65 1.64 1.64 0 01-1.67 1.63m2.4-1.21a2.9 2.9 0 00-2.85-2.76l8.35-5.47s-3.75 5.54-5.5 8.23" fill="#916e31"/></g></g></svg>