<?xml version="1.0" encoding="utf-8"?>
<!-- Generator: Adobe Illustrator 15.0.0, SVG Export Plug-In . SVG Version: 6.00 Build 0)  -->
<!DOCTYPE svg PUBLIC "-//W3C//DTD SVG 1.1//EN" "http://www.w3.org/Graphics/SVG/1.1/DTD/svg11.dtd">
<svg version="1.1" id="Слой_1" xmlns="http://www.w3.org/2000/svg" xmlns:xlink="http://www.w3.org/1999/xlink" x="0px" y="0px"
	 width="1083.662px" height="107.063px" viewBox="0 0 1083.662 107.063" enable-background="new 0 0 1083.662 107.063"
	 xml:space="preserve">
<g>
	<g>
		<path fill="#ffffff" d="M26.608,106.94H0V0h26.608V106.94z"/>
		<path fill="#ffffff" d="M49.668,106.94V32.906c0-9.104,3.487-16.836,10.466-23.199c6.976-6.359,15.313-9.541,25.011-9.541
			L138.36,0c9.814,0,18.183,3.237,25.099,9.706c6.918,6.474,10.378,14.259,10.378,23.363v73.871h-26.609V32.756
			c0-1.977-0.798-3.764-2.395-5.357c-1.596-1.593-3.458-2.499-5.587-2.719h-0.887H85.145c-2.366,0-4.434,0.851-6.208,2.549
			c-1.774,1.702-2.662,3.649-2.662,5.841v73.871H49.668z"/>
		<path fill="#ffffff" d="M197.072,106.94V33.069c0-9.104,3.46-16.863,10.378-23.28c6.917-6.416,15.282-9.624,25.1-9.624L302.44,0
			v24.679h-69.89c-2.368,0-4.436,0.851-6.209,2.549c-1.773,1.702-2.66,3.649-2.66,5.841v8.063h75.388V65.81h-75.388v41.13H197.072z"
			/>
		<path fill="#ffffff" d="M360.798,106.94c-9.818,0-18.183-3.179-25.101-9.542C328.779,91.04,325.32,83.306,325.32,74.2V33.069
			c0-9.104,3.459-16.863,10.377-23.28c6.918-6.416,15.283-9.624,25.101-9.624L422.883,0c9.814,0,18.181,3.237,25.1,9.706
			c6.917,6.474,10.376,14.259,10.376,23.363V74.2c0,9.105-3.459,16.839-10.376,23.198c-6.919,6.363-15.286,9.542-25.1,9.542H360.798
			z M422.883,82.262c2.483,0,4.582-0.766,6.297-2.304c1.713-1.535,2.572-3.455,2.572-5.758V32.906c0-4.058-2.425-6.69-7.273-7.897
			c-0.238,0-0.474,0-0.709,0c-0.474-0.218-0.771-0.329-0.886-0.329h-62.084c-1.304,0.329-2.604,0.874-3.903,1.641
			c-3.312,1.639-4.967,3.883-4.967,6.727v40.848c0,2.08,0.768,3.913,2.307,5.499c1.535,1.586,3.429,2.542,5.677,2.869h0.887H422.883
			z"/>
		<path fill="#ffffff" d="M481.416,106.94V0c1.299,0,5.913,0,13.836,0h72.905c9.935,0,18.329,3.188,25.19,9.558
			c6.856,6.369,10.285,14.168,10.285,23.399c0,7.469-2.426,14.115-7.272,19.937c6.148,6.481,9.227,13.566,9.227,21.255
			c0,9.121-3.46,16.867-10.379,23.237c-6.918,6.371-15.285,9.555-25.099,9.555H481.416z M508.024,24.679v16.616h61.02
			c2.482,0,4.582-0.781,6.298-2.349c1.712-1.566,2.573-3.524,2.573-5.874c0-2.35-0.861-4.336-2.573-5.96
			c-1.716-1.622-3.815-2.433-6.298-2.433H508.024z M578.978,74.036c0-2.303-0.856-4.221-2.567-5.758
			c-1.709-1.536-3.802-2.303-6.281-2.303h-62.105v16.288h62.085c2.483,0,4.58-0.766,6.295-2.304
			c1.715-1.535,2.573-3.455,2.573-5.758V74.036z"/>
		<path fill="#ffffff" d="M752.815,0v74.036c0,9.214-3.433,17.003-10.289,23.362c-6.859,6.363-15.254,9.542-25.188,9.542h-53.216
			c-9.818,0-18.181-3.184-25.1-9.555c-6.919-6.37-10.377-14.116-10.377-23.237V0h26.608v73.871c0,2.085,0.767,3.923,2.305,5.512
			c1.536,1.59,3.431,2.55,5.678,2.879h0.886h53.216c2.483,0,4.583-0.766,6.299-2.304c1.712-1.535,2.569-3.455,2.569-5.758V0H752.815
			z"/>
		<path fill="#ffffff" d="M861.731,65.81h-50.379c-9.817,0-18.181-3.198-25.1-9.6c-6.919-6.4-10.378-14.141-10.378-23.223
			c0-9.08,3.459-16.82,10.378-23.221s15.282-9.601,25.1-9.601L908.916,0v24.679h-97.563c-2.366,0-4.434,0.843-6.21,2.524
			c-1.773,1.684-2.658,3.611-2.658,5.784c0,2.172,0.885,4.072,2.658,5.702c1.776,1.631,3.844,2.443,6.21,2.443h61.376
			c9.933,0,18.329,3.207,25.188,9.624c6.858,6.417,10.288,14.232,10.288,23.445c0,9.105-3.456,16.839-10.362,23.198
			c-6.908,6.363-15.268,9.542-25.066,9.542h-96.9V82.262h96.867c2.479,0,4.571-0.774,6.286-2.327
			c1.713-1.549,2.569-3.487,2.569-5.816c0-2.325-0.86-4.291-2.571-5.898c-1.717-1.606-3.815-2.411-6.298-2.411
			C871.662,65.81,867.996,65.81,861.731,65.81z"/>
	</g>
	<g>
		<path fill-rule="evenodd" clip-rule="evenodd" fill="#ffffff" d="M1016.223,55.006l-0.061-0.093c0,0,0.061-0.227,0.061-0.319
			c0.033-0.139,0.033-0.231,0.033-0.231V54.18l-0.768,0.183v0.184l0.042,0.14l-0.133,0.133v0.187l-1.47,0.047l1.374,0.503
			l0.042,0.231l-0.182,0.086l-0.039,0.373l-0.048,0.137v0.184l-4.369-1.331l4.057,1.924l-0.101,0.241l-0.048,0.132l-0.134,0.091
			l-0.045,0.183l-1.367-0.553l0.914,1.152l-0.081,0.274l-0.282,0.14l0.457,0.604l0.139-0.05l0.134-0.141l0.039-0.181l0.093-0.138
			l0.182,0.089c0,0,0,0,0.141-0.048c0.14-0.041,0.14-0.041,0.14-0.041l0.04-0.095c0,0,0.093-0.14,0.18-0.319l-0.133-0.278
			l0.046-0.089l0.048-0.094l0.179-0.093c0,0,0.042-0.186,0.096-0.273c0.091-0.142,0.045-0.184,0.045-0.184s0,0,0.227,0
			c0.188,0,0,0,0.126-0.05c0.147-0.04,0.147-0.133,0.147-0.133s0.088-0.053,0.088-0.191c0.085-0.09,0-0.137,0-0.137
			s-0.088-0.042-0.173-0.136c-0.063-0.091-0.095-0.138-0.095-0.138l0.032-0.323c0,0,0.063-0.05,0.147-0.137l0.045-0.326
			c0,0,0.043-0.091,0.043-0.181c0-0.144-0.043-0.144-0.043-0.144l0.235-0.089c0,0,0.033-0.04,0.135-0.227
			c0.045-0.093-0.049-0.093-0.049-0.093L1016.223,55.006z M1014.388,46.821L1014.388,46.821l-5.55,4.183l-0.955-6.765l-1.238,6.532
			l-5.685-3.449l3.908,5.151l-6.137,1.427l6.01,1.014l-3.095,5.377l4.917-3.81l1.448,6.118l0.965-5.991l5.504,3.456l-4.235-5.01
			l6.972-1.202l-6.649-1.423L1014.388,46.821z M1012.573,48.655L1012.573,48.655l-2.455,3.729l-1.061-0.046L1012.573,48.655z
			 M1007.784,47.278L1007.784,47.278l0.96,5.012l-0.96,1.155V47.278z M1002.733,49.025L1002.733,49.025l3.83,2.208l-0.053,1.01
			L1002.733,49.025z M1003.054,58.682L1003.054,58.682l2.05-3.629l1.186,0.044L1003.054,58.682z M1001.007,53.851L1001.007,53.851
			l5.504-1.193l1.054,1.017L1001.007,53.851z M1006.736,55.006L1006.736,55.006l1.048-1.014l0.099,6.398L1006.736,55.006z
			 M1012.253,58.322L1012.253,58.322l-3.276-2.075v-1.105L1012.253,58.322z M1014.803,53.809L1014.803,53.809l-5.745,1.058
			l-1.175-1.147L1014.803,53.809z M1080.511,45.661L1080.511,45.661c0,0-41.655-42.076-42.163-42.543c-8.43-6.939-15.402,0-15.402,0
			l-3.595,3.635c0,0-3.235-3.262-3.556-3.585c-8.278-7.127-15.517,0-15.517,0l-3.641,3.687c0,0-3.338-3.363-3.65-3.737
			c-8.42-6.985-15.519,0-15.519,0l-42.122,42.596c0,0-7.063,7.317,0,15.684c0.086,0.093,0.272,0.272,0.272,0.272l41.943,42.409
			c0,0,6.959,6.712,15.291,0c0.508-0.503,3.784-3.814,3.784-3.814l3.641,3.631c0,0,7.011,7.088,15.579,0
			c0.398-0.413,3.493-3.538,3.493-3.538l3.511,3.585c0,0,7.193,6.987,15.58,0c0.46-0.46,41.434-41.855,42.069-42.453
			C1087.602,52.796,1080.511,45.661,1080.511,45.661L1080.511,45.661z M1010.979,15.225L1010.979,15.225
			c-0.139,0.088-3.048,3.073-3.048,3.073l-2.916-2.985C1005.016,15.313,1007.744,13.385,1010.979,15.225L1010.979,15.225z
			 M981.474,91.385L981.474,91.385l-33.375-33.759c0,0-3.879-3.634,0-8.143c0.311-0.32,33.007-33.343,33.234-33.576
			c3.647-2.987,6.925-0.594,6.925-0.594l-29.96,30.261c0,0-7.386,7.458,0,15.963c0.632,0.645,29.913,30.172,30.005,30.265
			C984.521,94.193,981.474,91.385,981.474,91.385L981.474,91.385z M996.638,83.566L996.638,83.566c0,0-25.504-25.706-25.818-26.032
			c-3.604-4.419,0-7.911,0-7.911l25.771-26.079l3.095,3.085l-19.039,19.223c0,0-6.778,7.085,0,15.411
			c0.509,0.504,19.039,19.227,19.039,19.227L996.638,83.566z M1004.961,91.802L1004.961,91.802l2.971-2.992
			c0,0,2.947,2.992,3.048,3.089C1007.744,93.866,1004.961,91.802,1004.961,91.802L1004.961,91.802z M1007.932,72.162
			L1007.932,72.162c0,0-13.983-14.12-14.266-14.399c-4.181-4.464,0-8.417,0-8.417l14.266-14.353c0,0,14.154,14.263,14.247,14.353
			c4.053,4.553,0,8.417,0,8.417L1007.932,72.162z M1019.351,83.706L1019.351,83.706l-3.128-3.215c0,0,18.437-18.633,18.758-19
			c7.236-8.646,0-15.872,0-15.872l-18.758-18.989l3.128-3.226l25.555,25.852c0,0,4.37,3.999,0,8.645
			C1044.711,58.042,1019.351,83.706,1019.351,83.706L1019.351,83.706z M1067.896,57.492L1067.896,57.492
			c0,0-33.236,33.575-33.465,33.799c-3.424,2.852-6.748,0.608-6.748,0.608s30.112-30.408,30.244-30.548
			c7.099-8.274,0-15.591,0-15.591s-30.057-30.354-30.244-30.494c3.785-2.163,6.658,0.46,6.658,0.46s33.427,33.804,33.555,33.897
			C1071.404,53.899,1067.896,57.492,1067.896,57.492L1067.896,57.492z M1008.57,46.037L1008.57,46.037l0.129-0.043l0.319,0.043
			v1.612l0.593-1.521l0.269-0.046h0.187l0.179,0.186l0.272,0.094l-1.313,3.95c0,0,1.914-3.447,2.001-3.489c0.094,0,0,0,0.135,0
			c0.133,0,0.179,0.226,0.179,0.226s0.093,0.047,0.18,0.047c0.14,0,0.14,0.089,0.14,0.089l-0.271,1.245c0,0,0.64-0.875,0.726-0.875
			c0.147,0,0.147,0,0.147,0s0.034,0.095,0.133,0.188c0.095,0.09,0.048,0.133,0.048,0.133h0.134l0.601-0.415l-0.103-0.182
			c0,0-0.094-0.043-0.139-0.184l-0.321-0.187l0.054-0.141c0,0,0-0.039-0.054-0.183c0-0.089,0-0.04-0.085-0.089
			c-0.087-0.047-0.181,0-0.322,0c-0.133,0-0.133,0.186-0.133,0.186l-0.094-0.097l-0.138-0.04c0,0-0.041,0-0.128-0.143
			c-0.101-0.134-0.194-0.095-0.281-0.134c-0.139-0.054-0.178,0-0.178,0s-0.135-0.093-0.094-0.186c0-0.044,0.046-0.087,0.094-0.229
			c0.039-0.093-0.048-0.192-0.048-0.233c-0.046-0.086-0.087-0.046-0.181-0.046c-0.087-0.04-0.146,0.046-0.18,0.14
			c-0.047,0.09-0.147,0.184-0.147,0.184h-0.133l-0.04-0.045l-0.188-0.093l-0.272-0.046l-0.227-0.14l-0.093-0.04h-0.267v-0.228
			l-0.102-0.186l-0.273,0.133l-0.079,0.184l-0.229-0.043c0,0-0.139-0.05-0.187-0.05c-0.046,0-0.273,0-0.273,0l-0.319,0.05
			l0.047,0.644H1008.57z M1014.155,48.059L1014.155,48.059c-0.079,0-0.079,0.136-0.079,0.136l-0.274-0.363l-0.367,0.597l0.095,0.18
			l0.139,0.047l0.085,0.23l0.148,0.14l0.081,0.094l-1.136,1.238l1.589-0.594l0.045,0.091v0.18l0.182,0.141l0.046,0.136l-3.589,1.933
			l3.91-1.333c0,0,0.046,0.147,0.046,0.23c0,0.047,0,0.14,0,0.14l0.18,0.091c0,0,0,0.046,0,0.093c0.047,0.094,0.047,0.23,0.047,0.23
			l0.042,0.273l-1.676,0.597l1.82-0.039v0.179v0.372l-0.091,0.087v0.136c0,0,0.545,0.101,0.545,0c0-0.136,0.045-0.136,0.045-0.136
			l0.175-0.225l-0.047-0.326l0.047-0.184l0.094-0.044l0.053-0.141l0.094-0.276l-0.287-0.137c0,0-0.128-0.187-0.128-0.32
			c0-0.047-0.13-0.231-0.13-0.371c0-0.083-0.063-0.083-0.063-0.083s-0.032-0.054-0.032-0.147c0-0.043,0.032-0.043,0.133-0.14
			c0.092-0.09,0.135-0.04,0.135-0.04s0-0.146,0-0.186c0-0.095-0.135-0.234-0.135-0.274c0,0-0.038,0-0.133,0c-0.048,0-0.18,0-0.18,0
			s-0.053-0.047-0.095-0.139c0-0.098-0.046,0-0.091-0.098c-0.096-0.042-0.054-0.097-0.054-0.097s0.054-0.127,0-0.219
			c-0.042-0.047-0.221-0.282-0.221-0.282l0.039-0.126c0,0,0.235-0.284,0.235-0.424c0-0.09-0.19-0.042-0.415-0.136
			c-0.22-0.094-0.22,0.136-0.22,0.136s-0.055-0.042-0.101-0.136c-0.081-0.094-0.081-0.141-0.081-0.234l-0.146-0.086v-0.28
			C1014.436,48.148,1014.254,48.059,1014.155,48.059L1014.155,48.059z M1007.289,61.398L1007.289,61.398l-0.139,0.139l-0.126-0.233
			h-0.242l-0.138-1.927l-0.534,1.791l-0.141-0.137l-0.273,0.048l-0.142-0.095c0,0-0.179,0-0.227,0l1.142-4.182l-1.769,4.001
			l-0.326-0.227l0.239,0.087l-0.38-0.233l-0.088-0.14h-0.226l0.54-1.515l-1.14,1.155l-0.181-0.14l-0.047-0.093l-0.086-0.047
			l-0.134-0.18l-0.594,0.5l0.086,0.14h0.094l0.141,0.181l0.188,0.047l0.22,0.186v0.094l-0.088,0.093c0,0,0.088,0.093,0.134,0.133
			c0.087,0.093,0.087,0.14,0.087,0.14h0.146l0.089,0.046l0.133-0.046l0.133-0.097v0.097c0,0,0.045,0.046,0.14,0.046
			c0.094,0,0.141,0.048,0.141,0.048l0.133,0.089c0,0,0.181,0,0.274,0l0.173,0.136c0,0,0,0.094,0,0.233
			c0,0.133,0.055,0.091,0.055,0.091s0,0,0.086,0c0.06,0,0.1,0.042,0.1,0.042l0.313,0.098l0.193-0.14c0,0,0.034,0,0.183,0
			c0.124,0,0.124,0.14,0.124,0.14h0.142l0.414,0.089l0.044,0.23l0.229,0.093c0,0,0.087,0,0.222,0c0.132,0,0.092-0.093,0.092-0.19
			c0-0.134,0.086-0.086,0.086-0.086l0.139,0.045c0,0,0.104,0.041,0.229,0.094c0.139,0,0.139,0,0.232-0.094
			c0.182-0.045,0.134-0.045,0.134-0.045l0.127,0.14l0.101-0.053l-0.228-0.641L1007.289,61.398z M1012.98,59.426L1012.98,59.426
			l-0.188,0.09l-0.125,0.181l-0.095,0.14l-0.099,0.227l-1.134-1.057l0.553,1.424h-0.229l-0.098,0.233c0,0-0.227,0-0.321,0
			c-0.078,0-0.04,0.14-0.04,0.14l-0.18,0.041l-1.914-3.906l1.18,4.18l-0.086,0.05c0,0-0.088,0-0.234,0l-0.268,0.136l-0.546-1.374
			l-0.101,1.468c0,0-0.039,0-0.127,0c-0.093,0-0.093,0-0.093,0s-0.094,0.093-0.221,0.093c-0.101,0-0.101-0.093-0.101-0.093h-0.227
			l-0.093,0.594h0.319l0.273-0.041l0.141,0.094v0.18l0.046,0.14h0.229l0.228-0.045l0.125-0.047l0.054-0.321c0,0,0-0.045,0.093-0.045
			c0.087-0.047,0.047-0.047,0.176-0.095c0.092-0.042,0.139,0,0.238-0.042c0.088-0.051,0.035-0.098,0.035-0.098h0.364l0.142,0.098
			c0,0,0.126,0,0.267,0c0,0,0.101,0,0.193-0.051c0.087,0,0.181,0,0.181,0v-0.14l0.041-0.228c0,0,0.133,0,0.227-0.047
			c0.098,0,0.098-0.04,0.098-0.04s0.081-0.097,0.174-0.146c0.055-0.039,0.142-0.039,0.142-0.039l0.179-0.191l0.227,0.097
			c0,0,0.369-0.14,0.461-0.228c0.087-0.139,0-0.093,0-0.093l0.039-0.14c0,0,0.048-0.043,0.095-0.043c0.088,0,0.041,0,0.088-0.05
			c0.091-0.041,0.091-0.14,0.185-0.179c0.103-0.047,0.182-0.094,0.182-0.094l0.185-0.047l0.089-0.273l0.139-0.094l-0.732-0.463
			L1012.98,59.426z M1002.733,47.966L1002.733,47.966l0.095-0.044l0.046-0.09l0.267-0.183l1.234,0.959l-0.639-1.373
			c0,0,0,0,0.091-0.051c0.134-0.089,0.047-0.042,0.134-0.042c0.093-0.047,0.093-0.047,0.093-0.047l0.093-0.093l0.229-0.18
			l2.136,3.628c0,0-1.407-3.866-1.317-3.906c0.089-0.097,0.183-0.049,0.183-0.049l0.055-0.047l0.405-0.273l0.595,1.424l0.214-1.424
			h0.138c0,0,0,0,0.048-0.092c0-0.138,0.091-0.044,0.091-0.044l0.15,0.091c0,0,0.079,0,0.218,0c0.094-0.046,0.094,0,0.094,0
			l0.134-0.875c0,0-0.134,0.053-0.445,0.053c-0.335,0-0.241,0-0.241,0s0,0-0.094,0c-0.173,0-0.267,0-0.267,0s0-0.186-0.039-0.287
			c0-0.087-0.093,0-0.276-0.045c-0.231,0-0.1,0.045-0.144,0.1c-0.041,0.047-0.221,0.32-0.221,0.364c0,0.097,0,0.137,0,0.137
			s0,0.046-0.047,0.14c0,0.046-0.095,0-0.095,0s-0.272,0-0.455,0c-0.178,0-0.09,0.09-0.09,0.09l-0.235-0.184l-0.079-0.086
			c0,0-0.233,0-0.288,0c-0.08,0-0.218,0-0.218,0l-0.049,0.086l-0.088,0.184l-0.093,0.324c0,0-0.18,0.085-0.273,0.139
			c-0.095,0.04-0.14,0.04-0.14,0.04l-0.133,0.237c0,0-0.133,0-0.267-0.097c-0.101-0.046-0.101-0.046-0.233-0.046
			c-0.088-0.041-0.134,0-0.134,0l-0.228,0.143l-0.092,0.458c0,0-0.047,0.093-0.047,0.183c0,0.094-0.081,0.051-0.081,0.051h-0.146
			l-0.139,0.18l-0.183,0.139l-0.133,0.095l0.682,0.459L1002.733,47.966z M1001.826,59.606L1001.826,59.606l0.089,0.043l0.317-0.691
			c0,0-0.14-0.041-0.227-0.23c-0.091-0.139,0-0.086,0-0.185c0-0.04-0.047-0.04-0.134-0.04c-0.093,0-0.181-0.095-0.181-0.095
			l1.097-1.38l-1.509,0.874l-0.045-0.138c0,0-0.049-0.045-0.096-0.137c-0.052-0.091-0.132-0.091-0.132-0.091s0-0.132-0.047-0.279
			c0-0.094-0.088-0.04-0.088-0.04l-0.086-0.188l3.77-2.021l-4.058,1.425c0,0-0.041-0.047-0.094-0.136c0-0.094,0-0.188,0-0.281
			c0,0-0.04-0.047-0.04-0.14c0-0.044,0-0.086,0-0.086l-0.125-0.192l1.452-0.59c0,0-1.592,0-1.592-0.093
			c0-0.094-0.054-0.134-0.054-0.187c0-0.087,0,0,0-0.087c-0.048-0.093,0-0.184,0-0.184l0.054-0.229l-0.594-0.092l-0.049,0.092
			l-0.045,0.229l0.094,0.091v0.273l-0.049,0.141l-0.094,0.137v0.276l0.094,0.271l0.228,0.144v0.133c0,0,0,0,0,0.093
			c0,0.093,0,0.187,0,0.187l0.22,0.134l0.062,0.146l0.08,0.18l-0.175,0.141l-0.145,0.136v0.137l0.098,0.086v0.094
			c0,0,0.047,0.1,0.142,0.146c0.134,0,0.08-0.047,0.08-0.047h0.14l0.133,0.087c0,0,0.086,0.136,0.139,0.276
			c0.041,0.091,0.041,0.091,0.041,0.091l0.094,0.092l0.094,0.184l0.187,0.237l0.033,0.221l-0.087,0.279l0.142,0.184
			c0,0,0.179,0,0.274-0.048c0.045-0.041,0.141,0.048,0.141,0.048l0.124,0.183l0.095,0.09l0.098,0.146L1001.826,59.606z
			 M999.457,52.796L999.457,52.796v0.142v0.138v0.179c0,0,0,0.191,0,0.277c0,0.046,0,0.093,0,0.093l0.589-0.133l0.086-0.283
			l0.054-0.133l-0.054-0.324l1.783-0.227l-1.511-0.604c0,0-0.04-0.047-0.04-0.138c0-0.089,0.04-0.089,0.04-0.089
			s0.146-0.136,0.146-0.23c0-0.047-0.094-0.184-0.094-0.184l4.044,1.058l-3.861-1.753c0,0,0,0,0.179-0.087
			c0.188-0.09,0-0.047,0-0.141c0-0.046,0.054-0.046,0.087-0.086c0.102-0.096,0.102-0.047,0.146-0.139c0.035-0.098,0-0.194,0-0.194
			l1.682,0.608l-1.234-1.288l0.147-0.094c0,0,0.045-0.044,0.133-0.227l0.093-0.233l-0.46-0.643l-0.133,0.183l-0.094,0.14
			c0,0-0.099,0.181-0.134,0.227c-0.045,0.094-0.146,0.141-0.18,0.141c-0.086,0-0.232-0.094-0.232-0.094s0,0-0.089,0.047
			c-0.146,0.047-0.187,0.141-0.187,0.141l0.187,0.234v0.358c0,0-0.146,0.095-0.187,0.188c-0.086,0.094-0.086,0.273-0.086,0.273
			l-0.179,0.414h-0.229l-0.145,0.187c0,0,0,0.087,0,0.14c0,0.094,0.046,0.183,0.046,0.183v0.184l-0.046,0.137v0.276l-0.083,0.228
			l-0.138,0.05l-0.049,0.089l-0.094,0.184v0.184v0.139l0.143,0.182L999.457,52.796z"/>
	</g>
</g>
</svg>
