<svg xmlns="http://www.w3.org/2000/svg" width="140.34" height="40" viewBox="0 0 140.34 40"><defs><style>.a{fill:#00e676;}</style></defs><title>whatsapp</title><path class="a" d="M10.49,34.38l.65.32a16.92,16.92,0,0,0,8.75,2.38h0A17.27,17.27,0,0,0,32.11,7.57,17.2,17.2,0,0,0,2.7,19.89,17.72,17.72,0,0,0,5.3,29l.43.65L4,36Z"/><path d="M34,5.84A19.45,19.45,0,0,0,20,0,19.74,19.74,0,0,0,.22,19.89a20.9,20.9,0,0,0,2.59,9.84L0,40l10.49-2.7a19.31,19.31,0,0,0,9.4,2.38h0a19.9,19.9,0,0,0,19.79-19.9A19.63,19.63,0,0,0,34,5.84ZM20,36.32h0a16,16,0,0,1-8.32-2.27L11,33.73,4.76,35.35l1.62-6.16L6,28.54a16.41,16.41,0,1,1,22.59,5.3A15.77,15.77,0,0,1,20,36.32Zm9.51-12-1.19-.54s-1.73-.75-2.81-1.29c-.1,0-.21-.11-.32-.11a1.66,1.66,0,0,0-.76.21h0s-.11.11-1.62,1.84a.59.59,0,0,1-.54.33h-.11a.81.81,0,0,1-.43-.22l-.54-.22h0a10.47,10.47,0,0,1-3.14-2.05c-.21-.22-.54-.43-.75-.65A12.11,12.11,0,0,1,15.24,19l-.1-.22c-.11-.11-.11-.22-.22-.43a.79.79,0,0,1,.11-.54s.43-.54.75-.87.33-.54.54-.75a1.32,1.32,0,0,0,.22-1.08A40.42,40.42,0,0,0,14.81,11a1.2,1.2,0,0,0-.76-.54H12.86c-.21,0-.43.1-.64.1l-.11.11c-.22.11-.43.33-.65.44s-.32.43-.54.64a5.53,5.53,0,0,0-1.19,3.36h0a6.49,6.49,0,0,0,.54,2.48l.11.33a18,18,0,0,0,4,5.51l.43.43a6.49,6.49,0,0,1,.87.87,19.27,19.27,0,0,0,7.78,4.1c.32.11.76.11,1.08.22h1.08a4.09,4.09,0,0,0,1.62-.43c.33-.22.54-.22.76-.43l.22-.22c.21-.22.43-.32.64-.54a2.88,2.88,0,0,0,.55-.65,6.52,6.52,0,0,0,.43-1.51v-.76A1.36,1.36,0,0,0,29.51,24.32Z"/><path d="M54.27,24.32h-.11L51.24,13.51H49L46.16,24.32h-.11L43.57,13.51H40.86L44.76,28h2.48l2.92-10.27h.11L53.19,28h2.38l3.78-14.38H56.76Zm13.19-7.56a4.83,4.83,0,0,0-2.16.54A3.24,3.24,0,0,0,64,18.7h-.22V12.76H61.3V28h2.48V21.62a2.6,2.6,0,0,1,2.71-2.7,2.48,2.48,0,0,1,1.73.65,2.37,2.37,0,0,1,.54,1.84v6.48h2.59v-7a4.39,4.39,0,0,0-1-3,4.08,4.08,0,0,0-2.92-1.08Zm10.81,0a5.6,5.6,0,0,0-3.24.86,3.44,3.44,0,0,0-1.41,2.27H76a1.89,1.89,0,0,1,.76-.86,3.26,3.26,0,0,1,1.4-.33,2.49,2.49,0,0,1,1.52.44,1.78,1.78,0,0,1,.54,1.29v1l-2.81.21a5.68,5.68,0,0,0-3.14,1A2.79,2.79,0,0,0,73.19,25a3.18,3.18,0,0,0,3.57,3.25,4.16,4.16,0,0,0,1.94-.44A4.41,4.41,0,0,0,80,26.59h.22v1.52h2.37V20.54a2.93,2.93,0,0,0-1.18-2.7,3.88,3.88,0,0,0-3.14-1.08Zm2,7.24a1.94,1.94,0,0,1-.76,1.62,3,3,0,0,1-1.84.65,2.18,2.18,0,0,1-1.4-.43,1.32,1.32,0,0,1-.54-1.08c0-.87.64-1.41,2-1.52l2.49-.1V24Zm8.21-9.62H86v2.7H84.11v2H86V25a2.53,2.53,0,0,0,.86,2.27,3.9,3.9,0,0,0,2.7.65,5.16,5.16,0,0,0,1.3-.11V26H90a2.13,2.13,0,0,1-1.19-.33,1.53,1.53,0,0,1-.33-1.19V19h2.38v-2H88.43Zm9.95,7.35-1.95-.43a2.49,2.49,0,0,1-1.19-.54A1,1,0,0,1,95.35,19a2.22,2.22,0,0,1,1.41-.33,2.92,2.92,0,0,1,1.4.33,1.54,1.54,0,0,1,.65,1h2.38a3,3,0,0,0-1.3-2.38,6.49,6.49,0,0,0-3.13-.86,5.4,5.4,0,0,0-3.14,1,3,3,0,0,0-1.19,2.38,2.61,2.61,0,0,0,.76,1.94,4.82,4.82,0,0,0,2.38,1.09l1.94.43c1,.21,1.52.65,1.52,1.29a1.15,1.15,0,0,1-.54,1,2.47,2.47,0,0,1-1.52.32,3.52,3.52,0,0,1-1.51-.32,1.76,1.76,0,0,1-.76-1H92.22a2.82,2.82,0,0,0,1.4,2.38,5.84,5.84,0,0,0,3.24.87,6.18,6.18,0,0,0,3.36-1,3,3,0,0,0,1.29-2.6,2.62,2.62,0,0,0-.75-1.95,8.12,8.12,0,0,0-2.38-.86Zm9.08-8.22L102.27,28h2.59l1.3-3.68h5.41L112.76,28h2.81l-5.19-14.49Zm-.65,8.76,2-5.95H109l2,5.95Zm16.43-5.41a4.42,4.42,0,0,0-2,.55,3.82,3.82,0,0,0-1.41,1.51h-.21V17.08h-2.38V31.57h2.49V26.38h.21a4.06,4.06,0,0,0,1.3,1.4,3.4,3.4,0,0,0,2,.44,4.05,4.05,0,0,0,3.25-1.52,6.39,6.39,0,0,0,1.19-4.11,6.2,6.2,0,0,0-1.19-4.1,3.52,3.52,0,0,0-3.25-1.63Zm1.19,8.22a2.58,2.58,0,0,1-3.67.33l-.33-.33a4.31,4.31,0,0,1-.75-2.59,4.32,4.32,0,0,1,.75-2.6,2.59,2.59,0,0,1,3.68-.32l.32.32a4.56,4.56,0,0,1,.76,2.6,4.31,4.31,0,0,1-.76,2.59Zm14.6-6.7a4,4,0,0,0-3.35-1.52,4.43,4.43,0,0,0-2.06.55,3.73,3.73,0,0,0-1.4,1.51H132V17.08h-2.27V31.57h2.49V26.38h.21a2.7,2.7,0,0,0,1.3,1.4,3.4,3.4,0,0,0,2.05.44,4.12,4.12,0,0,0,3.36-1.52,6.32,6.32,0,0,0,1.18-4.11A7,7,0,0,0,139,18.38ZM137,25.08a2.58,2.58,0,0,1-3.67.33l-.33-.33a4.31,4.31,0,0,1-.75-2.59,4.32,4.32,0,0,1,.75-2.6,2.59,2.59,0,0,1,3.68-.32l.32.32a4.56,4.56,0,0,1,.76,2.6,5.13,5.13,0,0,1-.76,2.59Z"/></svg>