<svg xmlns="http://www.w3.org/2000/svg" width="501.3" height="157.36" viewBox="0 0 501.3 157.36"><defs><style>.a{fill:#4c963f;}</style></defs><title>landskape1</title><polygon class="a" points="309.84 93.05 309.84 79.38 310.77 79.38 310.89 87.2 311.69 87.2 311.69 73.46 312.86 73.46 312.8 83.69 313.85 83.69 314.03 69.64 315.02 69.64 315.02 76.54 315.82 76.54 315.88 66.62 317.05 66.56 317.05 70.69 318.16 70.67 318.14 62.84 318.88 62.83 318.9 70.63 322.5 70.55 322.56 62.81 323.32 62.8 323.37 70.55 324.47 70.54 324.5 66.62 325.4 66.56 325.37 76.17 326.32 76.14 326.41 69.7 327.34 69.64 327.37 83.29 328.29 83.29 328.32 73.52 329.4 73.52 329.52 87.11 330.48 87.14 330.42 79.44 331.43 79.44 331.5 92.99 309.84 93.05"/><path class="a" d="M.25,157.2,0,128.66l10.1-9h6.29v-1.73l4.8.13.12,1.6,3.7.12.37-2.09h3.7v2.09h2.71V115.6h3.08v4.67h2.59v-2.2H36.22v-1.23h1.23c0-1.61.38-2.74,2-2.71.17-.58,0-.59.06-1.64l-1.38,0c-.54-.43-.48-.8,0-1.11h1.7v-1.79a.78.78,0,0,1,1.41,0l0,1.73h1.49c.51.37.67.74,0,1.11H41.42l0,1.53c1.15-.16,2.17.8,2.34,2.94L45,117l0,1.35-1.35,0v1.82c.48.08,2.81,0,3.68,0,.15-.8,0-2.24,1.13-2.07l16.35.19.1-.8h1l.06-3.6,4.83,0v2l9.61-.25-.08-3.82h2.66l.11,1.9,8.89-6,3,3,11,0-.2,46.58Z"/><path class="a" d="M118.61,41.22c0,.34,0,.68,0,1h-.83c0,.34,0,.68,0,1.16.23,0,.31,0,.74,0l-.07,4.72-.82-2.31,0,5.7-1.13-.06.06,1.49h1v2.9h-.82v1l.94.06-.06,2h-1v.88l-1-.06.06,2.16-1,0v1.31h1l.15,4.36h-1l0,2h-1.28v-3h-1v6.8l-.37.61-.36-5.31-.64,5.19-.49-5.19L110.13,74h-1.71l.25,2.19,1.7.28v1.71h-2.71v2h2c-.35,2.53.22,7.61-.21,10.12-.11.63-1.19-.89-1.25.4s.29,4.89.24,6.4-1-.43-1,.85.37,3.7.27,4.33c-1-.31-1,.52-1.92,1.1-.21,2.55.22,4.63.31,7.23l-.25,46.8,65-.24c.17-19-.56-37.1-.61-56.56l-4.45-11.32-11.1-.09v-2l-1,0,0-2-.85,0-.09-1.83V79.4l-1.92-.06,0-2.93-.88,0-.15-8.81-1.13-7.5V59.06h.7v-.49h-.73v-.76h-.49v.76h-.61V59h.67l-.06,1.1-.58,7.5v5.88l-1.67,0,0-5.82-.46-7.56c0-.51,0-.8,0-1.16l.7,0v-.52h-.64l0-.7H145v.67l-.61,0a2.13,2.13,0,0,0,0,.52l.58,0c0,.35,0,.72-.09,1.16l-.46,3.81-.49,3.72-.06,8.93H143v.85L142.79,88l-14.37-.07-.06-9.48-1.06-.06,0-2h1.28l-.06-1.8-2,.06-.06-2h-1l-.06-5.09-.86.06c-.31-2.69-.24-5-.49-7.66l-.61,7.66H122.2l-.06-4.55.89.1V61.9h-.86V60h-.7l-.06-.91-.85-.06V56.93h1l0-.89-.94,0,0-2.93,1-.06V51.77h-1.1l-.09-5.91-.83,2.34V43.42c.31,0,.72-.05.89,0,0-.33,0-1,0-1.07-.3,0-.37,0-.86,0,0-.49,0-.66,0-1.07-.17,0-.82,0-1.12,0Zm0,12.35h1.1l0,2h-1.1Zm-1.4,10.25,3.26.06V66.8h-3.23l0-3Z"/><path class="a" d="M298.23,0l-1.31,17.9-.37.91-.36,8.78-.49.31-.46,6.71-.61.42-.24,4.33-1,0,0-3-1.49-11.29-1.28,11.29-.06,10.79h.76l0,1,1,0,0,.92.88,0,.06,9.79-3.9,0-.06-5.92c-.46-4.21-.47-8.32-.76-12.53-.33,4.27-.86,8.26-1.07,12.44v11h-1c-1.48.57-1,1.16-1,1.74h1.8l.06.94,2,1v48.93l-1.71,0v-1.22l-1.52,0,.09-6.4s0,.14.58.08c2.06-.75,0-1.34-.06-1.34h-1.07l-1-4-.06-7c-.16-3.16-.34-5.84-.67-.06l-.06,7.08-1.28,3.84-1.13-.06c-1.17.46-1.23.94.06,1.4l.58,0,.06,7.5-2.44.06L273,109.43l-.28-4.18c-.24-1-.45-2.63-.85,0l-.19,4.24L259.2,122.36l-1-.06-.06,2h1v1.16H260v12.41l-2.84,0V130h-.85v-6.62h.94l-1.22-1v-.8l-1.67,0v-1.06c3.45-.42.39-5.28-2.21-4.71l0-6.62,1.22.06v-1.28h-1l.06-2.74-1.15-.83v-1.28c1.11-.59,1.18-1.24,0-1.95l-1-8.66-1.22,8.66c-.76.51-1.69,1,0,1.86v1.28l-1.43.82,0,2.81-.8,0v1.19l1,.12.09,6.32c-3.45-.57-5.34,5.31-2.1,4.7v1.07h-1.32l.1.79-3.66,2.38v6.56l-2,0v-6l-2.19-.06,0,4.94-3.66,0,0-9.82L231,120l-.12-7.65c1.32-1.07.56-1.78,0-2.53-1.4,0-2.28-.08-2.38-1.59-.56-14-9.82-19.64-18.29-22.1l.09-7.78h1.4l.09-1.74h-1.58c0-4.21-2.38-4.71-4.33-5.21l-.46-5.34-.76-.06-.61,5.4c-2.23.6-4.67,1-4.64,5.21l-1.64.19v1.4l1.73.06v7.87c-14.73,2.92-18.22,15-18.11,21.49l-4.27,3.42.1,12.62h-2.81V125l1.83.09.09,1.13-1-.09v3.93l-4.45-.18.13,27.38,230.66,0,0-57,2.93-2.44.09-19.39L403,61.07l0-1.16h.88l0-.94H403V57h-.85l0,1.95-1,0v1h1l0,1.19-1.53,17.29h-.88l-1.07-11.74s.74-.36.73-.91-.48-.95-1.13-1a1.07,1.07,0,0,0-1.12.92c-.11.54.73.94.73.94l-1.22,9.18h-.89l-4.81-26.71V42.41l1,0v-1l-.82,0,0-.89c.81-.64,1.2-1.32,0-2h-1c-.91.61-1.19,1.28,0,2v.86h-1l0,1.09H390l0,6.71h-6.86l-.06-6.8.88,0V41.25l-.91,0-.06-.94c1.25-.87.22-1.71-.06-1.77s-1,0-1,0c-1.29.73-.55,1.26,0,1.77l0,.88-1.12,0v1.1l1.12,0,.16,6.77-5.07,26.34-.82,0-.73-8.81s.66-.6.64-1.06a1.14,1.14,0,0,0-1-1.07,1.08,1.08,0,0,0-1.06,1.1c0,.5.79,1,.79,1l-.61,11.5-1,0L371.75,60.8l0-.92,1,0V58.85l-.94,0,0-1.74h-.88v1.77h-1v1l1,0,0,.95c-.54,5.46-.63,11.28-1.31,17.44l-.12,19.45,2.81,2.5v8.26l-16.62.19-.37,1-.39,1.13,0,1.71h-1l0,1.16-2,0-.15-45.89c.42-.2,1.19-.74,2.13-1.22v-.94h1.86c.09-.91.1-1.56-1-1.8l-1,0-.09-10.71-.86-12.65-1,12.53.06,5.09-3.72,0-.09-9.75.82,0,0-1,.92,0,0-1h.94l-.09-9.66-1.34-10.7-1.53,10.67,0,2.83-.85,0-.49-4-.48-.73s-.77-5.87-.86-6.1-.25-.21-.3-.7c-.28-2.44-.4-8.84-.4-8.84l-.4-1-1-17.9-1,17.9-.43.94-.54,8.69-.37.55L340,34.55l-.61.85-.18,4-1.07,0-.06-3-1.5-10.77-1.34,10.77v9.72l1.07.06v1l1,.06.06.95h1L338.3,58l-3.93-.06c0-2.07,0-2.78-.12-4.94l-1-12.56-.95,12.5.07,10.64-.83.09c-.88.47-1.36.36-1.28,2h2v1a9.35,9.35,0,0,1,1.92,1.07L334.31,93l-2.9.06-.09-4.67h-.95l-1.83-2.13,0-3.84-.91-.09-2-2.08V76.56l-2-2.1-.09-3.78-1.77,0-.09-9.52c.64.27,2.15,0,1.95-1.21l.95,0c1.17-.4.85-.78.06-1.18l-1,0c.16-.93-.62-1.41-1.92-1.19V56c-.4-1.07-1.12-1.36-1.89,0v1.5c-1-.37-2.4.48-2,1.25h-.88c-1,.63-.41.88,0,1.18l.82,0c.36,1.25.87,1.35,1.92,1.21l.21,9.52h-2.07v3.81l-1.89,2.07-.06,3.81-2,2-.95.07.06,3.93L311,88.18l-.18,5.12c-1.31,0-2.18,0-3.72,0L307,67.66l2-1,0-1h1.83c0-.8.05-1-.91-1.83l-.95,0,0-10.76c-.39-3.49-.12-10.3-1-12.69-.11,2.9-.6,10.31-1,12.69l.06,5.94-4-.06V49.21h1l0-1h1.07l0-.89.79,0,0-11L304.64,25,303,36.44l0,2.83-1,0-.34-4.11L301,34.7l-.64-6.77L300,27.6l-.24-8.75-.43-1Zm21.19,58.08.52,0v.71h-1.55c-.05-.67.5-.75,1-.74Zm1.95,0c.62,0,1.65-.18,1.59.71l-1.62,0,0-.74Zm-3,1.77h1.52v.73C319.29,60.6,318.33,60.73,318.39,59.85Zm3,0H323c.06.88-.94.75-1.56.73Z"/><path class="a" d="M401.62,157.24l0-13.31,2-.09-.23-22.45-1.64.08c.28-1.83,1.12-1.51,1.81-2.09l-.08-1.91,6.27-12.41h7.56l3.29,8.58,1.23-.17,6.94-15.73h7.32l3.47,8.87h1.94v-6.4l-.8-.1c-.28-1.15-1.22-1.63-2.17-2.12h2.2l10.49-13.17.11-2.51c-1.11.34-1.46-.55-1.79-1.47l-.06-11.24L450.62,58a84.66,84.66,0,0,0,1.29,9.32,3,3,0,0,0,1.53-.07L457,30.51l3.42,36.8,1.68.09L464,58l.87,11.39c.21,3.89.09,7.78.05,11.66a1.93,1.93,0,0,1-1.71,1.7l-.09,2.45,9.29,12.65,2.68.06a2.9,2.9,0,0,0-2.1,2.2l-1,.17.13,42.62,11.14,0,.16-14.75h-.8c.21-.7-.34-1.41,1-1.32l.19-1.35a3.88,3.88,0,0,1,3.73-2.31l-.07-2.74c-1.1.24-1.06-1.34-1-2.88l-.68-1.07A5.79,5.79,0,0,1,485,114c-.15-1.34-.41-2.69.58-3.12l1.2-.25,0-1.71c-2.25.22-1.46-3.6-1.14-4.1h.79l0-2.85c.14-1.69,1.07-2.59,2.81-3.14l.19-1.62c-2.81-1-1.56-5.19,0-5.16,1.33,0,2.41.51,2.35,1.9-.06,1.56,0,2.48-.53,3.13,3,.83,2.29,2.29,2.79,3.54l0,6.08c1.3.47,2.17.15,2,2.53h1l0-3.29c.46-1.69,1.14-1,1.83-.19.79.34,1.06,1.19,1.17,2.83,1.41,3.88,1.63,7.55.08,9.84a2.85,2.85,0,0,1-2.84,1l0,4.69c1.63,0,2.32.67,2.58,1.6v31.47Z"/></svg>