<svg xmlns="http://www.w3.org/2000/svg" width="72.22" height="76.21" viewBox="0 0 72.22 76.21"><defs><style>.a{fill:#665ca7;}.b{fill:none;stroke:#665ca7;stroke-linecap:round;stroke-linejoin:round;stroke-width:1.93px;}</style></defs><title>viber-icon</title><path class="a" d="M64.15,7.45c-1.9-1.7-9.5-7.3-26.6-7.4,0,0-20.1-1.2-29.9,7.8-5.5,5.5-7.4,13.4-7.6,23.3s-.5,28.4,17.4,33.5h0v7.7s-.1,3.1,1.9,3.7c2.5.8,3.9-1.6,6.3-4.1,1.3-1.4,3.1-3.4,4.4-5a68,68,0,0,0,22.7-1.7c2.5-.8,16.4-2.6,18.7-21.1C73.85,25,70.45,12.85,64.15,7.45Zm2.1,35.2c-1.9,15.5-13.2,16.5-15.3,17.1a65,65,0,0,1-19.5,1.7s-7.7,9.3-10.2,11.8a1.53,1.53,0,0,1-1.1.5c-.4-.1-.5-.6-.5-1.3,0-1,.1-12.8.1-12.8h0c-15.1-4.2-14.2-20-14.1-28.3s1.7-15,6.3-19.6c8.3-7.5,25.4-6.4,25.4-6.4,14.4.1,21.3,4.4,22.9,5.9C65.45,15.85,68.15,26.75,66.25,42.65Z"/><path class="b" d="M44.55,30.75c-.2-3.8-2.1-5.8-5.8-6"/><path class="b" d="M49.55,32.35a12.18,12.18,0,0,0-3.1-8.8,13,13,0,0,0-9-4"/><path class="b" d="M54.55,34.35c0-6.1-1.9-10.9-5.5-14.4a18.63,18.63,0,0,0-13.5-5.3"/><path class="a" d="M39,43.65a2.68,2.68,0,0,0,2.1-.8l1.4-1.8a3.15,3.15,0,0,1,4-.6,29.84,29.84,0,0,1,3.5,2.3c1.1.8,3.3,2.6,3.3,2.6a2.74,2.74,0,0,1,.6,3.6h0a12.52,12.52,0,0,1-3,3.6h0a6.08,6.08,0,0,1-3,1.5h-.4a5.85,5.85,0,0,1-1.3-.2h0a45.83,45.83,0,0,1-8.3-3.8,51.55,51.55,0,0,1-6.9-4.6,26.13,26.13,0,0,1-3.1-2.8l-.1-.1-.1-.1h0l-.1-.1-.1-.1a37.32,37.32,0,0,1-2.8-3.1,51.55,51.55,0,0,1-4.6-6.9c-2.3-4.2-3.4-6.7-3.8-8.3h0a5.07,5.07,0,0,1-.2-1.3v-.4a5.34,5.34,0,0,1,1.5-3h0a16.89,16.89,0,0,1,3.6-3h0a2.74,2.74,0,0,1,3.6.6s1.8,2.2,2.6,3.3,1.7,2.6,2.3,3.5a3.31,3.31,0,0,1-.5,4l-1.8,1.4a2.68,2.68,0,0,0-.8,2.1S29.05,41.05,39,43.65Z"/></svg>