<svg xmlns="http://www.w3.org/2000/svg" width="125.99" height="40" viewBox="0 0 125.99 40"><defs><style>.a{fill:#655cac;}.b{fill:#665ca7;}.c{fill:none;stroke:#665ca7;stroke-linecap:round;stroke-linejoin:round;stroke-width:1.93px;}</style></defs><title>Ресурс 1</title><path class="a" d="M51.67,27.58,44,8.37a4.81,4.81,0,0,1-.27-.78,4.93,4.93,0,0,1-.1-.84,2.69,2.69,0,0,1,.84-2,3,3,0,0,1,2.15-.79,2.09,2.09,0,0,1,1.52.58,4.46,4.46,0,0,1,1.1,1.89L54.45,20.5l5-13.91a5.18,5.18,0,0,1,1.16-2.1,2.48,2.48,0,0,1,1.68-.58,2.75,2.75,0,0,1,2,.68,2.65,2.65,0,0,1,.74,2,7.48,7.48,0,0,1-.11,1,7,7,0,0,1-.26,1L57.29,27.37a4.7,4.7,0,0,1-1.16,1.84,2.73,2.73,0,0,1-1.73.58,2.34,2.34,0,0,1-1.63-.53A5.85,5.85,0,0,1,51.67,27.58Z"/><path class="a" d="M72,25.9a5.23,5.23,0,0,1-.63,2.89,2.21,2.21,0,0,1-1.94.95,2.24,2.24,0,0,1-2-.95,5.23,5.23,0,0,1-.63-2.89V15.3a5.25,5.25,0,0,1,.63-2.89,2.24,2.24,0,0,1,2-.94,2.15,2.15,0,0,1,1.94.94A5.25,5.25,0,0,1,72,15.3Z"/><path class="a" d="M80,11.63A6.6,6.6,0,0,1,82,10.42,7,7,0,0,1,84.37,10a7.81,7.81,0,0,1,6.14,2.89A10.41,10.41,0,0,1,93,20.08,9.87,9.87,0,0,1,90.41,27a7.91,7.91,0,0,1-6,2.88,6.72,6.72,0,0,1-2.57-.47,5.31,5.31,0,0,1-2-1.42,4.39,4.39,0,0,1-1.2,1.37,2.5,2.5,0,0,1-1.47.47,2.33,2.33,0,0,1-2.1-1,5.34,5.34,0,0,1-.69-3.09V8A5.46,5.46,0,0,1,75,4.91a2.35,2.35,0,0,1,2.1-1,2.3,2.3,0,0,1,2.1,1A5.44,5.44,0,0,1,79.91,8v3.62ZM79.54,20a5.74,5.74,0,0,0,1.1,3.68,3.67,3.67,0,0,0,5.78,0A5.86,5.86,0,0,0,87.57,20a5.94,5.94,0,0,0-1.1-3.72,3.52,3.52,0,0,0-2.89-1.42,3.44,3.44,0,0,0-2.88,1.42A5.62,5.62,0,0,0,79.54,20Z"/><path class="a" d="M99.28,21.55A3.81,3.81,0,0,0,100.9,24a4.68,4.68,0,0,0,2.94.9,8.88,8.88,0,0,0,3.52-.9,8.49,8.49,0,0,1,2.36-.89,2.18,2.18,0,0,1,1.63.63,2.15,2.15,0,0,1,.63,1.58c0,1.2-.84,2.25-2.52,3.25a11.93,11.93,0,0,1-5.93,1.47,9.27,9.27,0,0,1-6.93-2.83,9.78,9.78,0,0,1-2.78-7.09A10.07,10.07,0,0,1,96.49,13a8.9,8.9,0,0,1,6.72-2.83,8.76,8.76,0,0,1,6.51,2.67,9.14,9.14,0,0,1,2.63,6.57,2.4,2.4,0,0,1-.58,1.78,3.57,3.57,0,0,1-2.21.52H99.28Zm-.21-3.31h8.24a4.21,4.21,0,0,0-1.26-2.83,4.23,4.23,0,0,0-5.51-.06A5.12,5.12,0,0,0,99.07,18.24Z"/><path class="a" d="M113.92,25.64V14.36a5.26,5.26,0,0,1,.68-3,2.35,2.35,0,0,1,2.1-1,2.92,2.92,0,0,1,1.52.42,3.79,3.79,0,0,1,1.16,1.36,6.56,6.56,0,0,1,1.84-1.42,4.46,4.46,0,0,1,1.94-.47,2.66,2.66,0,0,1,2,.84A2.53,2.53,0,0,1,126,13c0,1.1-1,2-3.09,2.84a11.13,11.13,0,0,0-1.68.68,3.1,3.1,0,0,0-1.42,1.1,5.23,5.23,0,0,0-.37,2.21v5.82a5.55,5.55,0,0,1-.68,3.1,2.71,2.71,0,0,1-4.2,0A6.63,6.63,0,0,1,113.92,25.64Z"/><path class="a" d="M66.58,6.8a2.82,2.82,0,0,1,.89-2,2.8,2.8,0,0,1,2.1-.84,2.77,2.77,0,0,1,2.05.84,2.81,2.81,0,0,1,.84,2.05,2.73,2.73,0,0,1-.84,2.05,2.81,2.81,0,0,1-2.05.84,2.84,2.84,0,0,1-2.1-.84A2.51,2.51,0,0,1,66.58,6.8Z"/><path class="b" d="M33.67,3.91c-1-.89-5-3.83-14-3.88C19.71,0,9.16-.6,4,4.12,1.13,7,.13,11.16,0,16.35S-.24,31.26,9.16,33.93h0v4s-.06,1.62,1,1.94c1.32.42,2-.84,3.31-2.15.68-.74,1.63-1.79,2.31-2.63a35.54,35.54,0,0,0,11.91-.89c1.32-.42,8.61-1.37,9.82-11.08C38.76,13.1,37,6.75,33.67,3.91Zm1.1,18.48c-1,8.13-6.93,8.66-8,9a33.9,33.9,0,0,1-10.24.89s-4,4.89-5.35,6.2a.8.8,0,0,1-.58.26c-.21-.05-.26-.31-.26-.68,0-.53,0-6.72,0-6.72h0C2.44,29.11,2.91,20.81,3,16.46s.9-7.88,3.31-10.29C10.63,2.23,19.6,2.81,19.6,2.81c7.56,0,11.18,2.31,12,3.1C34.35,8.32,35.77,14,34.77,22.39Z"/><path class="c" d="M23.38,16.14a2.92,2.92,0,0,0-3-3.15"/><path class="c" d="M26,17a6.37,6.37,0,0,0-1.62-4.62,6.87,6.87,0,0,0-4.73-2.1"/><path class="c" d="M28.63,18a10.1,10.1,0,0,0-2.89-7.56,9.8,9.8,0,0,0-7.08-2.78"/><path class="b" d="M20.44,22.91a1.41,1.41,0,0,0,1.1-.42l.74-.94a1.66,1.66,0,0,1,2.1-.32,15.14,15.14,0,0,1,1.83,1.21c.58.42,1.74,1.36,1.74,1.36a1.44,1.44,0,0,1,.31,1.89h0a6.44,6.44,0,0,1-1.57,1.89h0a3.11,3.11,0,0,1-1.58.79H24.9a3.19,3.19,0,0,1-.68-.1h0a24,24,0,0,1-4.36-2,28.74,28.74,0,0,1-3.62-2.41,14.36,14.36,0,0,1-1.62-1.47l-.06-.06-.05,0h0l0-.05-.05-.05a18.79,18.79,0,0,1-1.47-1.63,27,27,0,0,1-2.42-3.62,21,21,0,0,1-2-4.36h0a2.36,2.36,0,0,1-.11-.68v-.21a2.8,2.8,0,0,1,.79-1.57h0A9,9,0,0,1,11.1,8.53h0A1.43,1.43,0,0,1,13,8.85s.94,1.15,1.36,1.73.89,1.36,1.21,1.83a1.74,1.74,0,0,1-.26,2.1l-1,.74a1.41,1.41,0,0,0-.42,1.1S15.24,21.55,20.44,22.91Z"/></svg>