<svg xmlns="http://www.w3.org/2000/svg" viewBox="0 0 123.48 31.09"><defs><style>.cls-1{fill:#fff;}.cls-2{fill:#5fba4f;}.cls-3{fill:#3255a5;}.cls-4{fill:#231f20;}.cls-5{fill:#916e31;}</style></defs><title>Ресурс 2</title><g id="Шар_2" data-name="Шар 2"><g id="Слой_1" data-name="Слой 1"><path class="cls-1" d="M16.32,3.24,9.56,18.78H9.22L2.64,3.44a.15.15,0,0,1,.13-.2H4.25l5.15,12,5.23-12h1.69m0-.9H14.63a.91.91,0,0,0-.83.54L9.4,13,5.08,2.89a.92.92,0,0,0-.83-.55H2.56a.9.9,0,0,0-.76.41.91.91,0,0,0-.07.85L8.39,19.14a.9.9,0,0,0,.83.54h.34a.91.91,0,0,0,.83-.54L17.15,3.6a.9.9,0,0,0-.83-1.26"/><path class="cls-2" d="M9.56,21.34H9.22a2.57,2.57,0,0,1-2.35-1.55L.21,4.25A2.55,2.55,0,0,1,2.56.69H4.25A2.57,2.57,0,0,1,6.6,2.24L9.42,8.81l2.87-6.59A2.54,2.54,0,0,1,14.63.69h1.69a2.54,2.54,0,0,1,1.95.9h.57l-.23.53a2.51,2.51,0,0,1,.05,2.14L11.9,19.8a2.55,2.55,0,0,1-2.34,1.54"/><path class="cls-1" d="M19.2,2.56a1.18,1.18,0,0,1,.86.36,1.16,1.16,0,0,1,.36.86A1.23,1.23,0,0,1,19.2,5a1.16,1.16,0,0,1-.85-.36A1.18,1.18,0,0,1,18,3.78a1.16,1.16,0,0,1,.36-.86,1.16,1.16,0,0,1,.85-.36m.74,16.22H18.47V7.29h1.47ZM19.2,1.65a2,2,0,0,0-1.49.63,2.08,2.08,0,0,0-.62,1.5,2,2,0,0,0,.62,1.49,2,2,0,0,0,1.49.63,2.09,2.09,0,0,0,1.5-.63,2,2,0,0,0,.62-1.49A2.13,2.13,0,0,0,19.2,1.65m.74,4.74H18.47a.9.9,0,0,0-.91.9V18.78a.9.9,0,0,0,.91.9h1.47a.9.9,0,0,0,.91-.9V7.29a.9.9,0,0,0-.91-.9"/><path class="cls-2" d="M19.94,21.34H18.46a2.56,2.56,0,0,1-2.55-2.56V7.29a2.58,2.58,0,0,1,.3-1.21A3.78,3.78,0,0,1,19.2,0a3.77,3.77,0,0,1,3,6.08,2.47,2.47,0,0,1,.31,1.21V18.78a2.56,2.56,0,0,1-2.56,2.56m-.74-18a.49.49,0,0,0-.31.13.51.51,0,0,0-.13.31.48.48,0,0,0,.13.3.44.44,0,0,0,.31.13.52.52,0,0,0,.32-.13.47.47,0,0,0,.12-.3.5.5,0,0,0-.12-.31.52.52,0,0,0-.32-.13"/><path class="cls-1" d="M24.27,18.78H22.8V2.85h1.47ZM24.27,2H22.8a.9.9,0,0,0-.91.9V18.78a.9.9,0,0,0,.91.9h1.47a.9.9,0,0,0,.91-.9V2.85a.9.9,0,0,0-.91-.9"/><path class="cls-2" d="M24.27,21.34H22.8a2.56,2.56,0,0,1-2.56-2.56V2.85A2.56,2.56,0,0,1,22.8.3h1.47a2.56,2.56,0,0,1,2.56,2.55V18.78a2.56,2.56,0,0,1-2.56,2.56"/><path class="cls-1" d="M32.77,7a5.35,5.35,0,0,1,2.56.61,5.88,5.88,0,0,1,2,1.8V7.29H38.8V18.78H37.34v-2a6.3,6.3,0,0,1-2.09,1.7,5.82,5.82,0,0,1-6.69-1.2A6,6,0,0,1,26.83,13a5.81,5.81,0,0,1,1.74-4.24A5.67,5.67,0,0,1,32.77,7m.11,10.72a4.61,4.61,0,0,0,2.3-.61,4.34,4.34,0,0,0,1.67-1.65,4.75,4.75,0,0,0,.59-2.36,4.55,4.55,0,0,0-1.32-3.33,4.35,4.35,0,0,0-3.23-1.34A4.43,4.43,0,0,0,30.61,9,4.38,4.38,0,0,0,29,10.73a4.65,4.65,0,0,0,0,4.64,4.63,4.63,0,0,0,1.67,1.73,4.41,4.41,0,0,0,2.26.61M32.77,6.09a6.57,6.57,0,0,0-4.84,2,6.73,6.73,0,0,0-2,4.88,6.86,6.86,0,0,0,2,4.94,6.74,6.74,0,0,0,7.74,1.38,7.75,7.75,0,0,0,.79-.46.9.9,0,0,0,.9.82H38.8a.9.9,0,0,0,.9-.9V7.29a.9.9,0,0,0-.9-.9H37.34a.9.9,0,0,0-.9.83,4.89,4.89,0,0,0-.69-.42,6.33,6.33,0,0,0-3-.71m.11,10.72a3.48,3.48,0,0,1-1.8-.49,3.66,3.66,0,0,1-1.34-1.39,3.77,3.77,0,0,1-.51-1.88,3.84,3.84,0,0,1,.5-1.88,3.55,3.55,0,0,1,1.33-1.36,3.51,3.51,0,0,1,1.83-.49,3.47,3.47,0,0,1,2.59,1.07,3.66,3.66,0,0,1,1.05,2.7A3.8,3.8,0,0,1,36.06,15a3.39,3.39,0,0,1-1.32,1.31,3.75,3.75,0,0,1-1.86.49"/><path class="cls-2" d="M32.73,21.63a8.21,8.21,0,0,1-6-2.54A8.41,8.41,0,0,1,24.27,13a8.32,8.32,0,0,1,2.49-6,8.17,8.17,0,0,1,6-2.52A8,8,0,0,1,36,5.1a2.53,2.53,0,0,1,1.31-.37H38.8a2.56,2.56,0,0,1,2.55,2.56V18.78a2.56,2.56,0,0,1-2.55,2.56H37.34A2.59,2.59,0,0,1,36,21a8.26,8.26,0,0,1-3.29.66M32.89,11a1.92,1.92,0,0,0-1.72,1,2.17,2.17,0,0,0-.28,1.07,2.13,2.13,0,0,0,.29,1.07,2,2,0,0,0,.74.77,1.75,1.75,0,0,0,1,.27,2.06,2.06,0,0,0,1-.28,1.7,1.7,0,0,0,.7-.68,2.17,2.17,0,0,0,.26-1.11,2.05,2.05,0,0,0-.58-1.54A1.83,1.83,0,0,0,32.89,11"/><path class="cls-1" d="M69.36,7a5.32,5.32,0,0,1,2.56.61,5.7,5.7,0,0,1,2,1.8V7.29h1.46V18.78H73.93v-2a6.27,6.27,0,0,1-2.08,1.7,5.83,5.83,0,0,1-6.7-1.2A6,6,0,0,1,63.42,13a5.82,5.82,0,0,1,1.75-4.24A5.67,5.67,0,0,1,69.36,7m.11,10.72a4.58,4.58,0,0,0,2.3-.61,4.27,4.27,0,0,0,1.67-1.65A4.75,4.75,0,0,0,74,13.09a4.58,4.58,0,0,0-1.31-3.33A4.58,4.58,0,0,0,67.2,9a4.45,4.45,0,0,0-1.66,1.7,4.69,4.69,0,0,0-.62,2.32,4.63,4.63,0,0,0,.63,2.32,4.48,4.48,0,0,0,1.67,1.73,4.37,4.37,0,0,0,2.25.61M69.36,6.09a6.55,6.55,0,0,0-4.83,2,6.74,6.74,0,0,0-2,4.88,6.83,6.83,0,0,0,2,4.94,6.52,6.52,0,0,0,4.81,2,6.59,6.59,0,0,0,2.93-.66,9,9,0,0,0,.79-.46.89.89,0,0,0,.89.82h1.46a.9.9,0,0,0,.9-.9V7.29a.9.9,0,0,0-.9-.9H73.93a.91.91,0,0,0-.9.83,4.89,4.89,0,0,0-.69-.42,6.3,6.3,0,0,0-3-.71m.11,10.72a3.45,3.45,0,0,1-1.79-.49,3.61,3.61,0,0,1-1.35-1.39,3.78,3.78,0,0,1,0-3.76,3.59,3.59,0,0,1,3.15-1.85,3.44,3.44,0,0,1,2.59,1.07,3.67,3.67,0,0,1,1.06,2.7A3.9,3.9,0,0,1,72.66,15a3.42,3.42,0,0,1-1.33,1.31,3.72,3.72,0,0,1-1.86.49"/><path class="cls-2" d="M69.32,21.63a8.23,8.23,0,0,1-6-2.54A8.4,8.4,0,0,1,60.87,13a8.31,8.31,0,0,1,2.48-6,8.19,8.19,0,0,1,6-2.52,8,8,0,0,1,3.26.66,2.59,2.59,0,0,1,1.31-.37h1.46A2.56,2.56,0,0,1,78,7.29V18.78a2.56,2.56,0,0,1-2.56,2.56H73.93A2.56,2.56,0,0,1,72.62,21a8.31,8.31,0,0,1-3.3.66M69.48,11a1.86,1.86,0,0,0-1,.26,1.77,1.77,0,0,0-.72.74,2.08,2.08,0,0,0-.29,1.07,2.13,2.13,0,0,0,.29,1.07,2,2,0,0,0,.74.77,1.77,1.77,0,0,0,1,.27,2.12,2.12,0,0,0,1-.28,1.68,1.68,0,0,0,.69-.68,2.17,2.17,0,0,0,.26-1.11,2.05,2.05,0,0,0-.58-1.54A1.81,1.81,0,0,0,69.48,11"/><path class="cls-1" d="M46.07,7a2.74,2.74,0,0,1,1.31.39L46.6,8.63a2.13,2.13,0,0,0-.78-.2A2.1,2.1,0,0,0,44.4,9a3.8,3.8,0,0,0-1,1.88,18.42,18.42,0,0,0-.27,4v3.89H41.57V7.29h1.51V9A5.19,5.19,0,0,1,44.5,7.49,2.81,2.81,0,0,1,46.07,7m0-.9A3.75,3.75,0,0,0,44,6.73l-.15.1a.92.92,0,0,0-.78-.44H41.57a.9.9,0,0,0-.91.9V18.78a.9.9,0,0,0,.91.9h1.51a.9.9,0,0,0,.9-.9V14.89a16.6,16.6,0,0,1,.24-3.72A3.07,3.07,0,0,1,45,9.71a1.3,1.3,0,0,1,.83-.38,1.33,1.33,0,0,1,.43.13.84.84,0,0,0,.35.07.9.9,0,0,0,.77-.42l.77-1.25a.9.9,0,0,0-.32-1.26,3.56,3.56,0,0,0-1.75-.51"/><path class="cls-2" d="M43.08,21.34H41.57A2.56,2.56,0,0,1,39,18.78V7.29a2.56,2.56,0,0,1,2.56-2.56h1.51a2.58,2.58,0,0,1,.87.16,5.08,5.08,0,0,1,4.67.26,2.55,2.55,0,0,1,1.23,1.59,2.61,2.61,0,0,1-.3,2L48.78,10A2.53,2.53,0,0,1,46,11.11a4.19,4.19,0,0,0-.18.5,15.65,15.65,0,0,0-.18,3.28v3.89a2.56,2.56,0,0,1-2.55,2.56"/><path class="cls-1" d="M52.33,3V7.29h2.34V8.57H52.33V18.78H50.85V8.57h-2V7.29h2V3h1.48m0-.9H50.85a.9.9,0,0,0-.91.9V6.39H48.83a.9.9,0,0,0-.9.9V8.57a.9.9,0,0,0,.9.9h1.11v9.31a.9.9,0,0,0,.91.9h1.48a.9.9,0,0,0,.9-.9V9.47h1.44a.9.9,0,0,0,.9-.9V7.29a.9.9,0,0,0-.9-.9H53.23V3a.9.9,0,0,0-.9-.9"/><path class="cls-2" d="M52.33,21.34H50.85a2.56,2.56,0,0,1-2.56-2.56V11.07a2.57,2.57,0,0,1-2-2.5V7.29a2.56,2.56,0,0,1,2-2.5V3A2.56,2.56,0,0,1,50.85.47h1.48A2.55,2.55,0,0,1,54.88,3V4.74a2.57,2.57,0,0,1,2.35,2.55V8.57a2.55,2.55,0,0,1-2.35,2.54v7.67a2.56,2.56,0,0,1-2.55,2.56"/><path class="cls-1" d="M60.83,7a2.71,2.71,0,0,1,1.31.39l-.77,1.25A1.85,1.85,0,0,0,59.16,9a3.72,3.72,0,0,0-1,1.88,17.57,17.57,0,0,0-.28,4v3.89H56.33V7.29h1.51V9a5.21,5.21,0,0,1,1.43-1.48A2.8,2.8,0,0,1,60.83,7m0-.9a3.75,3.75,0,0,0-2.06.64l-.15.1a.92.92,0,0,0-.78-.44H56.33a.9.9,0,0,0-.9.9V18.78a.9.9,0,0,0,.9.9h1.51a.9.9,0,0,0,.9-.9V14.89A16.6,16.6,0,0,1,59,11.17a3,3,0,0,1,.78-1.46,1.3,1.3,0,0,1,.83-.38,1.4,1.4,0,0,1,.42.13.92.92,0,0,0,.36.07.91.91,0,0,0,.77-.42l.77-1.25a.91.91,0,0,0-.33-1.26,3.56,3.56,0,0,0-1.75-.51"/><path class="cls-2" d="M57.84,21.34H56.33a2.56,2.56,0,0,1-2.56-2.56V7.29a2.56,2.56,0,0,1,2.56-2.56h1.51a2.58,2.58,0,0,1,.87.16,5.07,5.07,0,0,1,4.68.27,2.56,2.56,0,0,1,.92,3.57L63.54,10a2.55,2.55,0,0,1-2.17,1.21,2.49,2.49,0,0,1-.61-.08,2.94,2.94,0,0,0-.18.5,15.65,15.65,0,0,0-.18,3.28v3.89a2.56,2.56,0,0,1-2.56,2.56"/><path class="cls-1" d="M84.93,7a4.07,4.07,0,0,1,2.29.66,3.84,3.84,0,0,1,1.47,1.76,9.26,9.26,0,0,1,.48,3.46v5.91H87.69V13.3a13.59,13.59,0,0,0-.16-2.65,3,3,0,0,0-1-1.72,3,3,0,0,0-1.9-.57,3.66,3.66,0,0,0-2.41.88,4.29,4.29,0,0,0-1.4,2.2,15.37,15.37,0,0,0-.21,3.13v4.21H79.14V7.29h1.48V9.35a6.14,6.14,0,0,1,2-1.77A4.84,4.84,0,0,1,84.93,7m0-.9a5.76,5.76,0,0,0-2.77.7,6.18,6.18,0,0,0-.64.4.9.9,0,0,0-.9-.8H79.14a.9.9,0,0,0-.9.9V18.78a.9.9,0,0,0,.9.9h1.48a.9.9,0,0,0,.91-.9V14.57a14.47,14.47,0,0,1,.18-2.91,3.25,3.25,0,0,1,1.1-1.72,2.74,2.74,0,0,1,1.83-.68A2.08,2.08,0,0,1,86,9.64a2,2,0,0,1,.66,1.21h0a12.35,12.35,0,0,1,.14,2.44v5.48a.9.9,0,0,0,.9.9h1.48a.9.9,0,0,0,.9-.9V12.87a10,10,0,0,0-.55-3.81,4.79,4.79,0,0,0-1.81-2.17,5,5,0,0,0-2.78-.8"/><path class="cls-2" d="M89.17,21.34H87.69a2.56,2.56,0,0,1-2.56-2.56V13.3a13.36,13.36,0,0,0-.09-2v-.07a.89.89,0,0,0-.09-.25,1.12,1.12,0,0,0-.3,0,1.14,1.14,0,0,0-.77.29,1.59,1.59,0,0,0-.56.87,13.24,13.24,0,0,0-.13,2.5v4.21a2.56,2.56,0,0,1-2.56,2.56H79.14a2.56,2.56,0,0,1-2.55-2.56V7.29a2.56,2.56,0,0,1,2.55-2.56h1.48a2.63,2.63,0,0,1,1.28.34,7.38,7.38,0,0,1,3-.63,6.59,6.59,0,0,1,3.69,1.07A6.41,6.41,0,0,1,91,8.41a11.28,11.28,0,0,1,.68,4.46v5.91a2.56,2.56,0,0,1-2.55,2.56"/><path class="cls-1" d="M94.92,7a4.69,4.69,0,0,1,3.2,1.56l-1,1a3.43,3.43,0,0,0-2.32-1.15,1.79,1.79,0,0,0-1.24.47A1.48,1.48,0,0,0,93.1,10,1.67,1.67,0,0,0,93.52,11a6,6,0,0,0,1.78,1.21,6.54,6.54,0,0,1,2.24,1.65,3,3,0,0,1,.59,1.81,3.24,3.24,0,0,1-1,2.4,3.4,3.4,0,0,1-2.48,1,4.31,4.31,0,0,1-1.9-.44,3.91,3.91,0,0,1-1.5-1.19l.93-1.06a3.21,3.21,0,0,0,2.4,1.28,2.17,2.17,0,0,0,1.52-.57,1.77,1.77,0,0,0,.62-1.34,1.75,1.75,0,0,0-.41-1.13,6.77,6.77,0,0,0-1.87-1.22,6,6,0,0,1-2.11-1.59A2.92,2.92,0,0,1,91.77,10a2.89,2.89,0,0,1,.89-2.18A3.12,3.12,0,0,1,94.92,7m0-.9A4,4,0,0,0,92,7.21,3.8,3.8,0,0,0,90.87,10a3.87,3.87,0,0,0,.73,2.31A6.82,6.82,0,0,0,94,14.21a5.43,5.43,0,0,1,1.59,1,.77.77,0,0,1,.2.54.88.88,0,0,1-.33.68,1.31,1.31,0,0,1-.91.33,2.41,2.41,0,0,1-1.73-1,.87.87,0,0,0-.67-.31h0a.89.89,0,0,0-.68.31l-.93,1.05a.92.92,0,0,0,0,1.16,5.09,5.09,0,0,0,1.82,1.45,5.33,5.33,0,0,0,2.29.52,4.32,4.32,0,0,0,3.12-1.24,4.16,4.16,0,0,0,1.26-3,3.92,3.92,0,0,0-.76-2.34,7.4,7.4,0,0,0-2.56-1.92,5,5,0,0,1-1.49-1A.75.75,0,0,1,94,10a.57.57,0,0,1,.22-.44.84.84,0,0,1,.63-.24,2.62,2.62,0,0,1,1.69.9.91.91,0,0,0,.63.25h0a.87.87,0,0,0,.63-.27l1-1A.9.9,0,0,0,99,8.53a.92.92,0,0,0-.28-.63,5.54,5.54,0,0,0-3.82-1.81"/><path class="cls-2" d="M94.65,21.63a7,7,0,0,1-3-.68A6.7,6.7,0,0,1,89.23,19a2.56,2.56,0,0,1,.1-3.26l.93-1a2.66,2.66,0,0,1,.72-.58,6.14,6.14,0,0,1-.73-.82,5.49,5.49,0,0,1-1-3.27,5.48,5.48,0,0,1,1.67-4,5.71,5.71,0,0,1,4-1.58,7.12,7.12,0,0,1,5,2.27,2.55,2.55,0,0,1,.06,3.61l-1,1-.21.19a5.93,5.93,0,0,1,.81.87,5.57,5.57,0,0,1,1.08,3.33,5.78,5.78,0,0,1-1.75,4.21,5.94,5.94,0,0,1-4.28,1.72"/><polygon class="cls-3" points="2.56 3.24 4.25 3.24 9.4 15.25 14.63 3.24 16.32 3.24 9.56 18.78 9.22 18.78 2.56 3.24"/><path class="cls-1" d="M16.32,3.24,9.56,18.78H9.22L2.56,3.24H4.25l5.15,12,5.23-12h1.69m0-.9H14.63a.91.91,0,0,0-.83.54L9.4,13,5.08,2.89a.92.92,0,0,0-.83-.55H2.56A.9.9,0,0,0,1.73,3.6L8.39,19.14a.9.9,0,0,0,.83.54h.34a.91.91,0,0,0,.83-.54L17.15,3.6a.9.9,0,0,0-.83-1.26"/><path class="cls-3" d="M19.2,2.56a1.18,1.18,0,0,1,.86.36,1.15,1.15,0,0,1,.36.86A1.23,1.23,0,0,1,19.2,5a1.14,1.14,0,0,1-.85-.36A1.18,1.18,0,0,1,18,3.78a1.15,1.15,0,0,1,.36-.86,1.14,1.14,0,0,1,.85-.36m-.74,4.73h1.48V18.78H18.46Z"/><path class="cls-1" d="M19.2,2.56a1.18,1.18,0,0,1,.86.36,1.16,1.16,0,0,1,.36.86A1.23,1.23,0,0,1,19.2,5a1.16,1.16,0,0,1-.85-.36A1.18,1.18,0,0,1,18,3.78a1.16,1.16,0,0,1,.36-.86,1.16,1.16,0,0,1,.85-.36m.74,16.22H18.47V7.29h1.47ZM19.2,1.65a2,2,0,0,0-1.49.63,2.08,2.08,0,0,0-.62,1.5,2,2,0,0,0,.62,1.49,2,2,0,0,0,1.49.63,2.09,2.09,0,0,0,1.5-.63,2,2,0,0,0,.62-1.49A2.13,2.13,0,0,0,19.2,1.65m.74,4.74H18.47a.9.9,0,0,0-.91.9V18.78a.9.9,0,0,0,.91.9h1.47a.9.9,0,0,0,.91-.9V7.29a.9.9,0,0,0-.91-.9"/><rect class="cls-3" x="22.8" y="2.85" width="1.48" height="15.93"/><path class="cls-1" d="M24.27,18.78H22.8V2.85h1.47ZM24.27,2H22.8a.9.9,0,0,0-.91.9V18.78a.9.9,0,0,0,.91.9h1.47a.9.9,0,0,0,.91-.9V2.85a.9.9,0,0,0-.91-.9"/><path class="cls-3" d="M38.8,7.29V18.78H37.34v-2a6.3,6.3,0,0,1-2.09,1.7,5.82,5.82,0,0,1-6.69-1.2A6,6,0,0,1,26.83,13a5.81,5.81,0,0,1,1.74-4.24A5.69,5.69,0,0,1,32.77,7a5.35,5.35,0,0,1,2.56.61,5.88,5.88,0,0,1,2,1.8V7.29ZM32.89,8.42A4.43,4.43,0,0,0,30.61,9,4.38,4.38,0,0,0,29,10.73a4.65,4.65,0,0,0,0,4.64,4.63,4.63,0,0,0,1.67,1.73,4.45,4.45,0,0,0,2.26.62,4.62,4.62,0,0,0,2.3-.62,4.34,4.34,0,0,0,1.67-1.65,4.75,4.75,0,0,0,.59-2.36,4.55,4.55,0,0,0-1.32-3.33,4.35,4.35,0,0,0-3.23-1.34"/><path class="cls-1" d="M32.77,7a5.35,5.35,0,0,1,2.56.61,5.88,5.88,0,0,1,2,1.8V7.29H38.8V18.78H37.34v-2a6.3,6.3,0,0,1-2.09,1.7,5.82,5.82,0,0,1-6.69-1.2A6,6,0,0,1,26.83,13a5.81,5.81,0,0,1,1.74-4.24A5.67,5.67,0,0,1,32.77,7m.11,10.72a4.61,4.61,0,0,0,2.3-.61,4.34,4.34,0,0,0,1.67-1.65,4.75,4.75,0,0,0,.59-2.36,4.55,4.55,0,0,0-1.32-3.33,4.35,4.35,0,0,0-3.23-1.34A4.43,4.43,0,0,0,30.61,9,4.38,4.38,0,0,0,29,10.73a4.65,4.65,0,0,0,0,4.64,4.63,4.63,0,0,0,1.67,1.73,4.41,4.41,0,0,0,2.26.61M32.77,6.09a6.57,6.57,0,0,0-4.84,2,6.73,6.73,0,0,0-2,4.88,6.86,6.86,0,0,0,2,4.94,6.74,6.74,0,0,0,7.74,1.38,7.75,7.75,0,0,0,.79-.46.9.9,0,0,0,.9.82H38.8a.9.9,0,0,0,.9-.9V7.29a.9.9,0,0,0-.9-.9H37.34a.9.9,0,0,0-.9.83,4.89,4.89,0,0,0-.69-.42,6.33,6.33,0,0,0-3-.71m.11,10.72a3.48,3.48,0,0,1-1.8-.49,3.66,3.66,0,0,1-1.34-1.39,3.77,3.77,0,0,1-.51-1.88,3.84,3.84,0,0,1,.5-1.88,3.55,3.55,0,0,1,1.33-1.36,3.51,3.51,0,0,1,1.83-.49,3.47,3.47,0,0,1,2.59,1.07,3.66,3.66,0,0,1,1.05,2.7A3.8,3.8,0,0,1,36.06,15a3.39,3.39,0,0,1-1.32,1.31,3.75,3.75,0,0,1-1.86.49"/><path class="cls-3" d="M75.39,7.29V18.78H73.93v-2a6.37,6.37,0,0,1-2.08,1.7,5.83,5.83,0,0,1-6.7-1.2A6,6,0,0,1,63.42,13a5.78,5.78,0,0,1,1.75-4.24A5.67,5.67,0,0,1,69.36,7a5.32,5.32,0,0,1,2.56.61,5.7,5.7,0,0,1,2,1.8V7.29ZM69.48,8.42a4.47,4.47,0,0,0-3.94,2.31,4.69,4.69,0,0,0-.62,2.32,4.63,4.63,0,0,0,.63,2.32,4.48,4.48,0,0,0,1.67,1.73,4.38,4.38,0,0,0,2.25.62,4.59,4.59,0,0,0,2.3-.62,4.27,4.27,0,0,0,1.67-1.65A4.75,4.75,0,0,0,74,13.09a4.58,4.58,0,0,0-1.31-3.33,4.38,4.38,0,0,0-3.24-1.34"/><path class="cls-1" d="M69.36,7a5.32,5.32,0,0,1,2.56.61,5.7,5.7,0,0,1,2,1.8V7.29h1.46V18.78H73.93v-2a6.27,6.27,0,0,1-2.08,1.7,5.83,5.83,0,0,1-6.7-1.2A6,6,0,0,1,63.42,13a5.82,5.82,0,0,1,1.75-4.24A5.67,5.67,0,0,1,69.36,7m.11,10.72a4.58,4.58,0,0,0,2.3-.61,4.27,4.27,0,0,0,1.67-1.65A4.75,4.75,0,0,0,74,13.09a4.58,4.58,0,0,0-1.31-3.33A4.58,4.58,0,0,0,67.2,9a4.45,4.45,0,0,0-1.66,1.7,4.69,4.69,0,0,0-.62,2.32,4.63,4.63,0,0,0,.63,2.32,4.48,4.48,0,0,0,1.67,1.73,4.37,4.37,0,0,0,2.25.61M69.36,6.09a6.55,6.55,0,0,0-4.83,2,6.74,6.74,0,0,0-2,4.88,6.83,6.83,0,0,0,2,4.94,6.52,6.52,0,0,0,4.81,2,6.59,6.59,0,0,0,2.93-.66,9,9,0,0,0,.79-.46.89.89,0,0,0,.89.82h1.46a.9.9,0,0,0,.9-.9V7.29a.9.9,0,0,0-.9-.9H73.93a.91.91,0,0,0-.9.83,4.89,4.89,0,0,0-.69-.42,6.3,6.3,0,0,0-3-.71m.11,10.72a3.45,3.45,0,0,1-1.79-.49,3.61,3.61,0,0,1-1.35-1.39,3.78,3.78,0,0,1,0-3.76,3.59,3.59,0,0,1,3.15-1.85,3.44,3.44,0,0,1,2.59,1.07,3.67,3.67,0,0,1,1.06,2.7A3.9,3.9,0,0,1,72.66,15a3.42,3.42,0,0,1-1.33,1.31,3.72,3.72,0,0,1-1.86.49"/><path class="cls-3" d="M41.57,7.29h1.51V9A5.19,5.19,0,0,1,44.5,7.49,2.81,2.81,0,0,1,46.07,7a2.74,2.74,0,0,1,1.31.39l-.77,1.25a2.17,2.17,0,0,0-.79-.2A2.1,2.1,0,0,0,44.4,9a3.8,3.8,0,0,0-1,1.88,18.42,18.42,0,0,0-.27,4v3.89H41.57Z"/><path class="cls-1" d="M46.07,7a2.74,2.74,0,0,1,1.31.39L46.6,8.63a2.13,2.13,0,0,0-.78-.2A2.1,2.1,0,0,0,44.4,9a3.8,3.8,0,0,0-1,1.88,18.42,18.42,0,0,0-.27,4v3.89H41.57V7.29h1.51V9A5.19,5.19,0,0,1,44.5,7.49,2.81,2.81,0,0,1,46.07,7m0-.9A3.75,3.75,0,0,0,44,6.73l-.15.1a.92.92,0,0,0-.78-.44H41.57a.9.9,0,0,0-.91.9V18.78a.9.9,0,0,0,.91.9h1.51a.9.9,0,0,0,.9-.9V14.89a16.6,16.6,0,0,1,.24-3.72A3.07,3.07,0,0,1,45,9.71a1.3,1.3,0,0,1,.83-.38,1.33,1.33,0,0,1,.43.13.84.84,0,0,0,.35.07.9.9,0,0,0,.77-.42l.77-1.25a.9.9,0,0,0-.32-1.26,3.56,3.56,0,0,0-1.75-.51"/><polygon class="cls-3" points="50.85 3.02 52.33 3.02 52.33 7.29 54.67 7.29 54.67 8.57 52.33 8.57 52.33 18.78 50.85 18.78 50.85 8.57 48.83 8.57 48.83 7.29 50.85 7.29 50.85 3.02"/><path class="cls-1" d="M52.33,3V7.29h2.34V8.57H52.33V18.78H50.85V8.57h-2V7.29h2V3h1.48m0-.9H50.85a.9.9,0,0,0-.91.9V6.39H48.83a.9.9,0,0,0-.9.9V8.57a.9.9,0,0,0,.9.9h1.11v9.31a.9.9,0,0,0,.91.9h1.48a.9.9,0,0,0,.9-.9V9.47h1.44a.9.9,0,0,0,.9-.9V7.29a.9.9,0,0,0-.9-.9H53.23V3a.9.9,0,0,0-.9-.9"/><path class="cls-3" d="M56.33,7.29h1.51V9a5.21,5.21,0,0,1,1.43-1.48A2.8,2.8,0,0,1,60.83,7a2.71,2.71,0,0,1,1.31.39l-.77,1.25A1.85,1.85,0,0,0,59.16,9a3.8,3.8,0,0,0-1,1.88,18.42,18.42,0,0,0-.27,4v3.89H56.33Z"/><path class="cls-1" d="M60.83,7a2.71,2.71,0,0,1,1.31.39l-.77,1.25A1.85,1.85,0,0,0,59.16,9a3.72,3.72,0,0,0-1,1.88,17.57,17.57,0,0,0-.28,4v3.89H56.33V7.29h1.51V9a5.21,5.21,0,0,1,1.43-1.48A2.8,2.8,0,0,1,60.83,7m0-.9a3.75,3.75,0,0,0-2.06.64l-.15.1a.92.92,0,0,0-.78-.44H56.33a.9.9,0,0,0-.9.9V18.78a.9.9,0,0,0,.9.9h1.51a.9.9,0,0,0,.9-.9V14.89A16.6,16.6,0,0,1,59,11.17a3,3,0,0,1,.78-1.46,1.3,1.3,0,0,1,.83-.38,1.4,1.4,0,0,1,.42.13.92.92,0,0,0,.36.07.91.91,0,0,0,.77-.42l.77-1.25a.91.91,0,0,0-.33-1.26,3.56,3.56,0,0,0-1.75-.51"/><path class="cls-3" d="M79.14,7.29h1.48V9.35a6.14,6.14,0,0,1,2-1.77A4.84,4.84,0,0,1,84.93,7a4.07,4.07,0,0,1,2.29.66,3.78,3.78,0,0,1,1.47,1.76,9.26,9.26,0,0,1,.48,3.46v5.91H87.69V13.3a13.33,13.33,0,0,0-.17-2.65,2.88,2.88,0,0,0-1-1.72,3,3,0,0,0-1.9-.57,3.66,3.66,0,0,0-2.41.88,4.25,4.25,0,0,0-1.4,2.2,15.37,15.37,0,0,0-.21,3.13v4.21H79.14Z"/><path class="cls-1" d="M84.93,7a4.07,4.07,0,0,1,2.29.66,3.84,3.84,0,0,1,1.47,1.76,9.26,9.26,0,0,1,.48,3.46v5.91H87.69V13.3a13.59,13.59,0,0,0-.16-2.65,3,3,0,0,0-1-1.72,3,3,0,0,0-1.9-.57,3.66,3.66,0,0,0-2.41.88,4.29,4.29,0,0,0-1.4,2.2,15.37,15.37,0,0,0-.21,3.13v4.21H79.14V7.29h1.48V9.35a6.14,6.14,0,0,1,2-1.77A4.84,4.84,0,0,1,84.93,7m0-.9a5.76,5.76,0,0,0-2.77.7,6.18,6.18,0,0,0-.64.4.9.9,0,0,0-.9-.8H79.14a.9.9,0,0,0-.9.9V18.78a.9.9,0,0,0,.9.9h1.48a.9.9,0,0,0,.91-.9V14.57a14.47,14.47,0,0,1,.18-2.91,3.25,3.25,0,0,1,1.1-1.72,2.74,2.74,0,0,1,1.83-.68A2.08,2.08,0,0,1,86,9.64a2,2,0,0,1,.66,1.21h0a12.35,12.35,0,0,1,.14,2.44v5.48a.9.9,0,0,0,.9.9h1.48a.9.9,0,0,0,.9-.9V12.87a10,10,0,0,0-.55-3.81,4.79,4.79,0,0,0-1.81-2.17,5,5,0,0,0-2.78-.8"/><path class="cls-3" d="M98.12,8.55l-1,1a3.39,3.39,0,0,0-2.31-1.15,1.79,1.79,0,0,0-1.24.47A1.48,1.48,0,0,0,93.1,10,1.67,1.67,0,0,0,93.52,11a6,6,0,0,0,1.78,1.21,6.54,6.54,0,0,1,2.24,1.65,3,3,0,0,1,.59,1.81,3.28,3.28,0,0,1-1,2.4,3.4,3.4,0,0,1-2.48,1,4.31,4.31,0,0,1-1.9-.44,4,4,0,0,1-1.5-1.19l.93-1.06a3.22,3.22,0,0,0,2.4,1.28,2.19,2.19,0,0,0,1.52-.57,1.77,1.77,0,0,0,.62-1.34,1.75,1.75,0,0,0-.41-1.13,6.84,6.84,0,0,0-1.86-1.22,6,6,0,0,1-2.12-1.59A2.92,2.92,0,0,1,91.77,10a2.92,2.92,0,0,1,.89-2.18A3.12,3.12,0,0,1,94.92,7a4.69,4.69,0,0,1,3.2,1.56"/><path class="cls-1" d="M94.92,7a4.69,4.69,0,0,1,3.2,1.56l-1,1a3.43,3.43,0,0,0-2.32-1.15,1.79,1.79,0,0,0-1.24.47A1.48,1.48,0,0,0,93.1,10,1.67,1.67,0,0,0,93.52,11a6,6,0,0,0,1.78,1.21,6.54,6.54,0,0,1,2.24,1.65,3,3,0,0,1,.59,1.81,3.24,3.24,0,0,1-1,2.4,3.4,3.4,0,0,1-2.48,1,4.31,4.31,0,0,1-1.9-.44,3.91,3.91,0,0,1-1.5-1.19l.93-1.06a3.21,3.21,0,0,0,2.4,1.28,2.17,2.17,0,0,0,1.52-.57,1.77,1.77,0,0,0,.62-1.34,1.75,1.75,0,0,0-.41-1.13,6.77,6.77,0,0,0-1.87-1.22,6,6,0,0,1-2.11-1.59A2.92,2.92,0,0,1,91.77,10a2.89,2.89,0,0,1,.89-2.18A3.12,3.12,0,0,1,94.92,7m0-.9A4,4,0,0,0,92,7.21,3.8,3.8,0,0,0,90.87,10a3.87,3.87,0,0,0,.73,2.31A6.82,6.82,0,0,0,94,14.21a5.43,5.43,0,0,1,1.59,1,.77.77,0,0,1,.2.54.88.88,0,0,1-.33.68,1.31,1.31,0,0,1-.91.33,2.41,2.41,0,0,1-1.73-1,.87.87,0,0,0-.67-.31h0a.89.89,0,0,0-.68.31l-.93,1.05a.92.92,0,0,0,0,1.16,5.09,5.09,0,0,0,1.82,1.45,5.33,5.33,0,0,0,2.29.52,4.32,4.32,0,0,0,3.12-1.24,4.16,4.16,0,0,0,1.26-3,3.92,3.92,0,0,0-.76-2.34,7.4,7.4,0,0,0-2.56-1.92,5,5,0,0,1-1.49-1A.75.75,0,0,1,94,10a.57.57,0,0,1,.22-.44.84.84,0,0,1,.63-.24,2.62,2.62,0,0,1,1.69.9.91.91,0,0,0,.63.25h0a.87.87,0,0,0,.63-.27l1-1A.9.9,0,0,0,99,8.53a.92.92,0,0,0-.28-.63,5.54,5.54,0,0,0-3.82-1.81"/><path class="cls-4" d="M5.2,26.91c0-.75-.09-1.66-.08-2.34h0c-.18.63-.41,1.31-.68,2.06l-1,2.64H2.91L2,26.68c-.25-.77-.47-1.47-.63-2.11h0c0,.68-.06,1.59-.11,2.4L1.14,29.3H.47l.38-5.43h.89l.93,2.62c.23.67.41,1.27.55,1.84h0c.14-.55.33-1.15.58-1.84l1-2.62h.9L6,29.3H5.33Z"/><path class="cls-4" d="M7.87,24.3a.43.43,0,0,1-.46.44A.42.42,0,0,1,7,24.3a.43.43,0,0,1,.44-.44.42.42,0,0,1,.44.44m-.79,1.1h.71v3.9H7.08Z"/><path class="cls-4" d="M9.3,25.4l1.29,1.7h.14V25.4h.68v1.7h.14l1.29-1.7h.81l-1.54,1.77a1.36,1.36,0,0,1,1.17,1,10.33,10.33,0,0,0,.43,1.09H13a6.06,6.06,0,0,1-.36-.89,1.07,1.07,0,0,0-1.11-.83h-.12V29.3h-.68V27.58H10.6a1.06,1.06,0,0,0-1.12.83,6.48,6.48,0,0,1-.37.89H8.42a9.17,9.17,0,0,0,.43-1.09,1.39,1.39,0,0,1,1.18-1L8.48,25.4Z"/><polygon class="cls-4" points="15.03 25.4 15.03 26.97 16.89 26.97 16.89 25.4 17.59 25.4 17.59 29.3 16.89 29.3 16.89 27.54 15.03 27.54 15.03 29.3 14.33 29.3 14.33 25.4 15.03 25.4"/><path class="cls-4" d="M20.91,29.3l-.05-.49h0a1.42,1.42,0,0,1-1.19.58,1.11,1.11,0,0,1-1.19-1.12c0-.94.84-1.46,2.34-1.45v-.08a.81.81,0,0,0-.88-.91,2,2,0,0,0-1,.29l-.16-.46A2.41,2.41,0,0,1,20,25.31c1.2,0,1.48.81,1.48,1.6v1.46a5.26,5.26,0,0,0,.07.93Zm-.1-2c-.77,0-1.65.12-1.65.88a.63.63,0,0,0,.67.68,1,1,0,0,0,.94-.66.85.85,0,0,0,0-.22Z"/><path class="cls-4" d="M22.64,26.67c0-.5,0-.9,0-1.27h.64l0,.67h0a1.52,1.52,0,0,1,1.38-.76,1.77,1.77,0,0,1,1.66,2,1.85,1.85,0,0,1-1.78,2.1,1.38,1.38,0,0,1-1.2-.61h0V30.9h-.7Zm.7,1a1.27,1.27,0,0,0,0,.29,1.07,1.07,0,0,0,1.06.83c.75,0,1.19-.61,1.19-1.5s-.42-1.46-1.16-1.46a1.14,1.14,0,0,0-1.08.88,1.47,1.47,0,0,0-.05.29Z"/><path class="cls-4" d="M30.77,27.32a1.91,1.91,0,0,1-1.95,2.07,1.86,1.86,0,0,1-1.87-2,1.91,1.91,0,0,1,1.94-2.07,1.85,1.85,0,0,1,1.88,2m-3.1,0c0,.85.49,1.5,1.18,1.5S30,28.22,30,27.34c0-.66-.33-1.5-1.17-1.5s-1.2.78-1.2,1.52"/><path class="cls-4" d="M34.63,25.4v3.37H35l0,1.76h-.56l0-1.24H31.7l0,1.24h-.55l0-1.76h.33a3.12,3.12,0,0,0,.39-.8A5.25,5.25,0,0,0,32,26.41v-1Zm-2,1.18A5.2,5.2,0,0,1,32.45,28a3.91,3.91,0,0,1-.31.72h1.8V25.94H32.66Z"/><polygon class="cls-4" points="36.57 25.4 36.57 26.97 38.42 26.97 38.42 25.4 39.13 25.4 39.13 29.3 38.42 29.3 38.42 27.54 36.57 27.54 36.57 29.3 35.87 29.3 35.87 25.4 36.57 25.4"/><path class="cls-4" d="M41.08,24.3a.42.42,0,0,1-.45.44.44.44,0,0,1,0-.88.42.42,0,0,1,.44.44m-.79,1.1H41v3.9h-.71Z"/><path class="cls-4" d="M46.05,29.3,46,28.81h0a1.46,1.46,0,0,1-1.2.58,1.11,1.11,0,0,1-1.19-1.12c0-.94.84-1.46,2.35-1.45v-.08a.81.81,0,0,0-.89-.91,2.06,2.06,0,0,0-1,.29l-.16-.46a2.45,2.45,0,0,1,1.29-.35c1.19,0,1.48.81,1.48,1.6v1.46a6.51,6.51,0,0,0,.06.93Zm-.11-2c-.77,0-1.65.12-1.65.88a.63.63,0,0,0,.67.68,1,1,0,0,0,.94-.66.57.57,0,0,0,0-.22Z"/><path class="cls-4" d="M47.76,25.45A8.11,8.11,0,0,1,49,25.36c.66,0,1.74.1,1.74,1a.91.91,0,0,1-.82.88v0c.57.08,1,.4,1,1,0,1-1.29,1.15-2,1.15-.44,0-.89,0-1.1-.05Zm.67,3.38a3.48,3.48,0,0,0,.57,0c.48,0,1.19-.12,1.19-.68s-.57-.69-1.24-.69h-.52Zm0-1.8H49c.52,0,1.07-.15,1.07-.61s-.34-.57-1-.57a4.22,4.22,0,0,0-.55,0Z"/><polygon class="cls-4" points="54.37 25.4 54.37 25.96 53.15 25.96 53.15 29.3 52.45 29.3 52.45 25.96 51.23 25.96 51.23 25.4 54.37 25.4"/><path class="cls-4" d="M58.42,27.32a1.91,1.91,0,0,1-2,2.07,1.86,1.86,0,0,1-1.87-2,1.91,1.91,0,0,1,1.94-2.07,1.85,1.85,0,0,1,1.88,2m-3.1,0c0,.85.49,1.5,1.19,1.5s1.18-.64,1.18-1.52c0-.66-.33-1.5-1.17-1.5s-1.2.78-1.2,1.52"/><path class="cls-4" d="M62.27,24.08a5.62,5.62,0,0,1-.82.17,1.93,1.93,0,0,0-1.39.74,2.74,2.74,0,0,0-.42,1.29h0A1.47,1.47,0,0,1,61,25.4c1,0,1.66.68,1.66,1.93s-.66,2.06-1.81,2.06c-1.37,0-1.82-1.31-1.82-2.61a3.44,3.44,0,0,1,.6-2.16,2.35,2.35,0,0,1,1.68-.92,6.61,6.61,0,0,0,1-.21Zm-1.4,1.84a1,1,0,0,0-.88.53,1.74,1.74,0,0,0-.19.84c0,.64.31,1.57,1.09,1.57S62,28.1,62,27.38s-.25-1.46-1.09-1.46"/><path class="cls-4" d="M63.75,25.4l.86,2.3c.09.26.18.57.25.8h0c.08-.23.16-.53.25-.81l.78-2.29h.75l-1.07,2.78a5.88,5.88,0,0,1-1.33,2.44,2,2,0,0,1-.88.47l-.17-.6a2,2,0,0,0,.62-.35,2.17,2.17,0,0,0,.59-.79.38.38,0,0,0,.06-.17.41.41,0,0,0,0-.18L63,25.4Z"/><path class="cls-4" d="M70,29.16a2.79,2.79,0,0,1-1.13.22,1.86,1.86,0,0,1-1.94-2A2,2,0,0,1,69,25.32a2.29,2.29,0,0,1,1,.2l-.16.55a1.62,1.62,0,0,0-.82-.19,1.47,1.47,0,0,0,0,2.94,2,2,0,0,0,.87-.2Z"/><polygon class="cls-4" points="71.52 25.4 71.52 26.97 73.38 26.97 73.38 25.4 74.08 25.4 74.08 29.3 73.38 29.3 73.38 27.54 71.52 27.54 71.52 29.3 70.82 29.3 70.82 25.4 71.52 25.4"/><path class="cls-4" d="M76,24.3a.42.42,0,0,1-.45.44.43.43,0,0,1-.43-.44.43.43,0,0,1,.45-.44.42.42,0,0,1,.43.44m-.79,1.1H76v3.9h-.71Z"/><polygon class="cls-4" points="82.05 25.4 82.05 29.3 81.34 29.3 81.34 25.96 79.53 25.96 79.53 29.3 78.83 29.3 78.83 25.4 82.05 25.4"/><path class="cls-4" d="M83.6,27.48a1.25,1.25,0,0,0,1.34,1.35,2.58,2.58,0,0,0,1.08-.2l.12.51a3.19,3.19,0,0,1-1.3.24,1.81,1.81,0,0,1-1.92-2,1.9,1.9,0,0,1,1.84-2.1,1.65,1.65,0,0,1,1.61,1.84,2.19,2.19,0,0,1,0,.33ZM85.68,27a1,1,0,0,0-1-1.15A1.18,1.18,0,0,0,83.61,27Z"/><path class="cls-4" d="M87.25,26.67c0-.5,0-.9,0-1.27h.63l0,.67h0a1.53,1.53,0,0,1,1.39-.76,1.77,1.77,0,0,1,1.65,2c0,1.41-.85,2.1-1.77,2.1a1.37,1.37,0,0,1-1.2-.61h0V30.9h-.7Zm.7,1A2.36,2.36,0,0,0,88,28a1.09,1.09,0,0,0,1.07.83c.75,0,1.18-.61,1.18-1.5s-.41-1.46-1.16-1.46a1.14,1.14,0,0,0-1.07.88A1.47,1.47,0,0,0,88,27Z"/><path class="cls-4" d="M92.23,27.48a1.25,1.25,0,0,0,1.34,1.35,2.67,2.67,0,0,0,1.09-.2l.12.51a3.23,3.23,0,0,1-1.3.24,1.81,1.81,0,0,1-1.92-2,1.89,1.89,0,0,1,1.83-2.1A1.65,1.65,0,0,1,95,27.15a2.5,2.5,0,0,1,0,.33ZM94.32,27a1,1,0,0,0-1-1.15A1.18,1.18,0,0,0,92.24,27Z"/><path class="cls-4" d="M95.87,25.45a8,8,0,0,1,1.24-.09c.65,0,1.73.1,1.73,1a.91.91,0,0,1-.81.88v0c.57.08,1,.4,1,1,0,1-1.29,1.15-2.06,1.15-.43,0-.88,0-1.09-.05Zm.67,3.38a3.4,3.4,0,0,0,.57,0c.48,0,1.18-.12,1.18-.68s-.56-.69-1.24-.69h-.51Zm0-1.8h.54c.52,0,1.06-.15,1.06-.61s-.34-.57-1-.57a4.33,4.33,0,0,0-.55,0Z"/><path class="cls-4" d="M100.31,27.48a1.25,1.25,0,0,0,1.34,1.35,2.58,2.58,0,0,0,1.08-.2l.12.51a3.19,3.19,0,0,1-1.3.24,1.81,1.81,0,0,1-1.92-2,1.9,1.9,0,0,1,1.84-2.1,1.65,1.65,0,0,1,1.61,1.84,2.19,2.19,0,0,1,0,.33Zm2.08-.51a1,1,0,0,0-1-1.15A1.18,1.18,0,0,0,100.32,27Z"/><path class="cls-4" d="M104.31,27h.34c.59,0,1-.27,1-.63s-.32-.57-.76-.57a1.91,1.91,0,0,0-1,.28l-.17-.44a2.46,2.46,0,0,1,1.3-.35c.59,0,1.32.26,1.32,1a1,1,0,0,1-.88.89h0a1,1,0,0,1,1.06,1c0,.85-.86,1.16-1.68,1.16a2.74,2.74,0,0,1-1.27-.31l.19-.48a2.16,2.16,0,0,0,1,.27c.59,0,1-.29,1-.67,0-.53-.55-.67-1.14-.67h-.35Z"/><path class="cls-4" d="M107.86,27.48a1.24,1.24,0,0,0,1.34,1.35,2.66,2.66,0,0,0,1.08-.2l.12.51a3.23,3.23,0,0,1-1.3.24,1.81,1.81,0,0,1-1.92-2,1.89,1.89,0,0,1,1.83-2.1,1.65,1.65,0,0,1,1.61,1.84,2.5,2.5,0,0,1,0,.33Zm2.08-.51a1,1,0,0,0-1-1.15A1.17,1.17,0,0,0,107.87,27Z"/><polygon class="cls-4" points="112.19 25.4 112.19 26.97 114.05 26.97 114.05 25.4 114.75 25.4 114.75 29.3 114.05 29.3 114.05 27.54 112.19 27.54 112.19 29.3 111.49 29.3 111.49 25.4 112.19 25.4"/><polygon class="cls-4" points="116.59 25.4 116.59 26.97 118.45 26.97 118.45 25.4 119.15 25.4 119.15 29.3 118.45 29.3 118.45 27.54 116.59 27.54 116.59 29.3 115.89 29.3 115.89 25.4 116.59 25.4"/><path class="cls-4" d="M123.2,29.3h-.71V27.66H122a.89.89,0,0,0-.65.22,2.72,2.72,0,0,0-.55,1.1,3.17,3.17,0,0,1-.16.32h-.76a2.28,2.28,0,0,0,.24-.44,3.09,3.09,0,0,1,.61-1.18,1,1,0,0,1,.45-.22v0a1,1,0,0,1-1-1,.93.93,0,0,1,.52-.84,2.68,2.68,0,0,1,1.31-.27,11.14,11.14,0,0,1,1.26.08Zm-.71-3.43a3.22,3.22,0,0,0-.58,0c-.49,0-1.06.13-1.06.67s.62.68,1,.68h.6Z"/><path class="cls-3" d="M113.81,3.68a9,9,0,1,1-9,9,9,9,0,0,1,9-9m0-.63a9.68,9.68,0,1,0,9.67,9.67,9.69,9.69,0,0,0-9.67-9.67"/><path class="cls-2" d="M105.21,13h0v0h0v0a1.31,1.31,0,0,0,.9.65,7.84,7.84,0,0,1,.65-4.2c-.6-.35-.24-1.08.13-1.52a3.37,3.37,0,0,1,.45-.48,1.11,1.11,0,0,1,.25-.21h0l0,0a0,0,0,0,0,0,0,0,0,0,0,1,0,0l0,0,.1-.08c.06,0,.11-.12.18-.17l.11-.07.11-.07.21-.15A12.48,12.48,0,0,1,110,5.65a3.55,3.55,0,0,0,.59-.5,3.17,3.17,0,0,1,.46-.36c-.09.13-.37.46-.43.57.4-.13.79-.38,1.47-.59a7.65,7.65,0,0,1,1.71-.35s.1,0,.16,0h.6c.18.09,1,0,1,.82.07,0,.52.16.73.25l.1,0a4.86,4.86,0,0,1,.77.34,8.91,8.91,0,0,1,1,.64,1.89,1.89,0,0,1,.3.25l.08.07s0,0,0,0h0l.36.32a1.21,1.21,0,0,1,.16.16c.06.06.1.14.18.17a1.38,1.38,0,0,0,.12-.89c0-.07-.09-.22-.06-.27s.14.08.22.15a.36.36,0,0,1,.18.24,2.21,2.21,0,0,1-.22,1c0,.07,0,.09.06.13l.28.36.17.24a7.82,7.82,0,0,1,.6,1.07c.09.18.17.38.25.58a5.31,5.31,0,0,0,.22.61,2.49,2.49,0,0,0,.44-1.29,2,2,0,0,0,0-.25,1.2,1.2,0,0,1-.06-.24l.25.5a.79.79,0,0,1,0,.63,3.3,3.3,0,0,1-.34.82c-.26.4-.19.12,0,.83,0,.21.08.43.11.65a12.9,12.9,0,0,1,0,1.49,6.1,6.1,0,0,0,.7-1.35,2.46,2.46,0,0,0,.14-.38.39.39,0,0,1,0-.14,6.09,6.09,0,0,1-.16,2A6.76,6.76,0,0,1,121,16.46l-.49,1c-.12.21-.18.29-.28.46a7.74,7.74,0,0,1-.64.84l-.18.19-.19.19-.28.26-.11.09a2.3,2.3,0,0,1-.44.33h0s0,0,0,0,0,0,0,0h0c-.15.08-.38.26-.65.39,0,0-.09,0-.12.08s0,0-.1.06,0,0-.09,0,0,0-.15,0l-.19.09a5,5,0,0,1-1.67.43,7.76,7.76,0,0,1-2.84-.2c-.11,0-.31-.11-.4-.12l-.49,0a6.53,6.53,0,0,1-1.32-.24l-.58-.2c-.18-.07-.41-.2-.55-.24l-.4-.23a4.72,4.72,0,0,1-1.08-.85,6.61,6.61,0,0,0,2,.52l-.39-.31a6.62,6.62,0,0,1-.85-.83l-.12-.12-.43-.54-.1-.14a3.93,3.93,0,0,1-1.16-.25c-.66-.33-.37-.37-.64-.77l.14.13a1.23,1.23,0,0,0,.31.24,2.63,2.63,0,0,0,1.1.3c-.07-.09-.36-.57-.43-.7s-.27-.52-.38-.78a9.23,9.23,0,0,1-.45-1.28c-.15-.6,0-.4-.47-.59a1.31,1.31,0,0,1-.59-.38,1.4,1.4,0,0,1,0-.41m16.26,2.15a6.15,6.15,0,0,0,.5-1.48l-.39.58s-.13.15-.15.19-.06.46-.08.58-.1.38-.12.54a1.34,1.34,0,0,0,.24-.41M109.2,6.21l-.23.15-.44.29-.84.7s-.4.4-.52.58-.52.67-.38,1,.06.16.16.17a4.43,4.43,0,0,1,.47-.79l.54-.71.06-.07,0,0,0,0h0s0,0,0,0l0,0v0l0-.05s0,0,.06,0,0,0,0,0v0s0,0,0,0v0s0,0,0,0v0s0,0,0,0l0,0s0,0,0,0l.12-.11V7s0,0,0,0V7s0,0,0,0,0,0,0,0a.88.88,0,0,1,.27-.24l.42-.46a.61.61,0,0,0,.13-.15,2,2,0,0,0-.22.14m8.41,7.71h0l0,0,0,0,.2-.14a13.54,13.54,0,0,0,1.31-1,9.9,9.9,0,0,0-.55-1.67c-.11-.26-.23-.52-.35-.75l-.2-.36-.2-.32h0c-.11.05-.06.08-.16.11s0,0,0,0,0,0,0,0,0,0,0,0,0,0,0,0a.59.59,0,0,1-.18.14s0,0,0,0,0,0,0,0-.06.07-.11.11l-.13.1a2.19,2.19,0,0,1-.25.2l-.39.29a12.8,12.8,0,0,1-1.25.8,3.29,3.29,0,0,0,.17.39c.36.78.67,1.45,1,2.26,0,.12.11.28.14.4.17-.06.89-.55,1-.57s0,0,0,0m-3.77-6.68a.7.7,0,0,0-.1.08l-.6.41h0c.2.25.36.53.55.81L114,9c.21.35,1.13,1.92,1.23,2.2a11.74,11.74,0,0,0,1.31-.84l.16-.12.15-.1c.16-.11.89-.7.9-.7s0,0,0,0,0,0,0,0,0,0,0,0,0,0,0,0a6.79,6.79,0,0,0-.63-.86l-.35-.39a8.22,8.22,0,0,0-1.17-1,7.1,7.1,0,0,0-.91-.55,8.42,8.42,0,0,1-.87.71m1.27-1.78a8.81,8.81,0,0,0-1.48-.18c-.37,0-.7,0-1.07,0a5.4,5.4,0,0,0-1,.15l.53,0a6.86,6.86,0,0,1,2.33.6.35.35,0,0,0,.15.07,2.84,2.84,0,0,0,.49-.72m-1.79,7.05h0l-.06,0c-.19.13-1.18.47-1.24.52l.77,1.55c0,.05.15.27.2.35s.12.24.19.36.33.62.4.7A25.89,25.89,0,0,0,116,14.85l.32-.18c0-.23-.79-2-.94-2.29s-.25-.5-.35-.74a3.1,3.1,0,0,0-.4.21l-.39.21-.41.2a2.42,2.42,0,0,1-.4.19l-.1.05h0s0,0,0,0m-.44-.11.15-.06.45-.22h0l.1,0,.11-.06c.1-.07,1.06-.53,1.21-.66,0-.11-.17-.33-.24-.46-.25-.43-.48-.88-.73-1.32s-.33-.57-.52-.85l-.54-.83a14.06,14.06,0,0,1-1.29.65s0,0,0,0-.92.4-1,.43a3.51,3.51,0,0,0,.15.53l.49,1.45c.07.19.64,1.66.76,1.82.2,0,.83-.36,1-.39M116.47,15a2.79,2.79,0,0,0-.34.18c-.35.19-.66.34-1,.51s-1.4.61-1.42.62a2.92,2.92,0,0,0,.17.27c.13.24,1.07,1.7,1.18,1.8.38-.15.74-.32,1.1-.48l.53-.26a4.11,4.11,0,0,0,.51-.27,21.8,21.8,0,0,0-.73-2.37m-.68,3.41a5.09,5.09,0,0,1-.54.22,7.66,7.66,0,0,0,.93,1A10.06,10.06,0,0,0,117.5,19a8.63,8.63,0,0,0-.21-1.35c-.07,0-1.19.59-1.5.73m0,1.32-.06-.07-.12-.12a1.36,1.36,0,0,1-.12-.12l-.54-.68a16.64,16.64,0,0,1-2.1.68l-.17.05,0,0c.22.12.4.25.69.39a6.11,6.11,0,0,0,.74.32.94.94,0,0,0,.44-.06l.84-.23c.13,0,.28-.11.4-.14s0,0,0-.07m-2.9-.62a2.17,2.17,0,0,1,.49-.15l.48-.15c.31-.09.65-.23.92-.31,0-.1-.13-.17-.19-.27s-.11-.14-.17-.24-.25-.34-.35-.51l-.64-1.05c-.14,0-.51.19-.59.2s-1.62.54-2.31.67h0s0,0,0,0,.5.61.64.77l.7.69a6,6,0,0,0,.54.43c.16,0,.42-.12.55-.11m-.43-2.64a2.54,2.54,0,0,1,.31-.09.82.82,0,0,1,.25-.1l.13-.05.06,0,0,0a0,0,0,0,1,0,0l-.09-.17-.27-.46c-.11-.21-.24-.44-.34-.65,0-.06-.17-.32-.21-.41s-.14-.28-.21-.42l-.42-.86-.72.24c-.54.16-1,.29-1.53.41a8.22,8.22,0,0,1-.84.15,8.08,8.08,0,0,0,.52,1.27h0l.73,1.22,0,.09.18.27a.62.62,0,0,1,.11.17,16.62,16.62,0,0,0,2.23-.57m-.84-3.52c0-.07-.33-.77-.39-.91a29.79,29.79,0,0,1-1-2.88,4.58,4.58,0,0,0-.49.15c-.29.08-.74.19-1,.24l-.55.08a8.19,8.19,0,0,0,0,2v.08l.07.53a11.91,11.91,0,0,0,.34,1.46h.11a16.11,16.11,0,0,0,3-.73m-3.27-5.2.06-.14,0,.07a.16.16,0,0,1-.08.06,1,1,0,0,1-.13.18,1.3,1.3,0,0,0-.15.18l-.14.18-.39.58a3.61,3.61,0,0,0-.24.41,1.65,1.65,0,0,0,.63.06,8.08,8.08,0,0,1,.2-.85,3.83,3.83,0,0,1,.29-.73m1.55-1.06a5.44,5.44,0,0,1,.16-.64.79.79,0,0,0-.17.14,7.69,7.69,0,0,0-.62.67,5.22,5.22,0,0,0-.61,1,5.88,5.88,0,0,0-.48,1.45,8.3,8.3,0,0,0,1.95-.47c0-.21-.11-.43-.15-.66a5.39,5.39,0,0,1-.08-1.5m.36-.21a5.12,5.12,0,0,0,.19,2.27c.21,0,1.08-.47,1.21-.49l0,0h0a3,3,0,0,1,.48-.26,3.42,3.42,0,0,0,.47-.27c0-.06-.05-.06-.06-.12s0,0,0,0l-.19-.23-.1-.13L112.2,7a4.5,4.5,0,0,0-.54-.54c-.37-.35-1.21-.91-1.4-.06m1-.61,0,0a2.94,2.94,0,0,1,.4.28l.4.37a7.55,7.55,0,0,1,.72.82s.07.1.11.14.23-.14.3-.17a9,9,0,0,0,1.17-.93c-.15,0-.37-.15-.55-.21a7,7,0,0,0-1.9-.35h-.71s0,0,0,0M114,4.51a7,7,0,0,0-1.46.24,3.47,3.47,0,0,0-1.07.42l-.14.09A17.7,17.7,0,0,1,113.37,5a8,8,0,0,1,1.83.13c0-.58-.66-.63-1.24-.63M119,7.64l-.42-.41-.14-.13a1.79,1.79,0,0,0-.14-.13l-.48-.36c-.09,0-.18-.12-.27-.17a7.27,7.27,0,0,0-2.12-.91s-.08.15-.12.21a3.67,3.67,0,0,1-.43.57l.06.05A8.16,8.16,0,0,1,116,7c.24.17.27.21.48.38a9.65,9.65,0,0,1,1.1,1.12l.32.42c.06.06.1.14.16.2l.84-.95A1.73,1.73,0,0,1,119,8a1.32,1.32,0,0,0,.12-.2Zm1.62,2.73a8.32,8.32,0,0,0-.57-1.24c-.23-.39-.33-.52-.54-.83l-.2-.26h0c-.08.09-.13.22-.21.27h0s0,0,0,0,0,0,0,0,0,0,0,0,0,0,0,0a.67.67,0,0,1-.09.14l0,0h0l0,0h0a2.54,2.54,0,0,1-.34.38l-.36.37a8.72,8.72,0,0,1,.48.87s0,0,0,0h0c0,.07,0,0,0,.07a11,11,0,0,1,.65,1.59,5.51,5.51,0,0,0,.18.57c0-.07.17-.14.24-.22l.23-.22a6,6,0,0,0,.85-1,6.72,6.72,0,0,0-.22-.69m.52,2.27a6.58,6.58,0,0,0-.2-1.18c-.22.25-.42.48-.64.7s-.6.57-.71.64a5.33,5.33,0,0,0,.12.63c0,.21.07.43.1.65,0,.48.06.91.08,1.4a1.33,1.33,0,0,0,.19-.14,4,4,0,0,0,.54-.51l.49-.54a6.91,6.91,0,0,0,0-1.65m-.88,4.2.35-.42a6.35,6.35,0,0,0,.46-1.58,2,2,0,0,0-.25.25c-.09.1-.18.17-.27.26l-.54.46c-.17.13-.12.06-.15.35l-.15.88a3.38,3.38,0,0,0-.09.41Zm-.07.51a9,9,0,0,1-.71.63c-.1.07-.14.26-.23.45s-.16.31-.23.44a7.51,7.51,0,0,0,1.17-1.52M118,19.64s0,0,0,0,0,0,0,0,0,0,0,0,0,0,0,0,0,0,0,0,0,0,0,0,0,0,0,0,0,0,0,0l.19-.24a3.37,3.37,0,0,0,.54-.81,6.1,6.1,0,0,1-.75.49s0,0,0,0,0,0,0,0-.28.08-.3.26a2.3,2.3,0,0,1,0,.59,2.78,2.78,0,0,1,.27-.19m-.23-.84a9.1,9.1,0,0,0,.86-.57,1.65,1.65,0,0,1,.27-.19s0,0,0,0,0,0,.08-.08a.38.38,0,0,0,.2-.26,6.56,6.56,0,0,0,.32-1.51l-.24.17a8.12,8.12,0,0,1-.75.51l-.22.12s0,0,0,0a.91.91,0,0,1-.16.11l-.18.1a1.2,1.2,0,0,1-.21.13,2.26,2.26,0,0,1-.2.13c0,.31.19.77.23,1.33m-.22-1.68a.37.37,0,0,1,.17-.1l0,0s0,0,0,0l0,0,.08,0,0,0c.06,0,.06-.05.12-.06a.78.78,0,0,1,.15-.1l.08-.05.15-.1c.09-.08.77-.52,1-.7a1.13,1.13,0,0,1,.13-.1,11.25,11.25,0,0,0-.07-1.42c0-.44-.13-.86-.2-1.28l0,0-.14.11-.18.14-.37.28-.18.13-.2.13a2.86,2.86,0,0,1-.38.26h0a12,12,0,0,1-1.06.66,1.6,1.6,0,0,0,.1.31c.17.48.34,1,.48,1.46a4.14,4.14,0,0,0,.18.6Zm-.14,2.73a2.18,2.18,0,0,0,.06-.52l-.93.44c-.08,0-.1,0-.13.08.13.07.77.71,1,0m-1.66.62a4,4,0,0,0,.77-.07h0s0,0,0,0a2.27,2.27,0,0,1-.4-.26c-.19-.16-.15-.12-.43,0s-.67.23-1,.3a2.33,2.33,0,0,0,.46.08,4.19,4.19,0,0,0,.5,0m-1.67.28a6.5,6.5,0,0,0,.88,0h.06l-.46-.08c-.13,0-.31-.09-.43-.11l-.93.13a3.94,3.94,0,0,0,.88.1m-2.48-.55s0,0,0,0a1.81,1.81,0,0,1,.41.14,1.12,1.12,0,0,0,.52.05,8.76,8.76,0,0,0,1-.08l-.7-.37a2.11,2.11,0,0,1-.4-.27.75.75,0,0,1-.17-.1c-.07-.05-.08-.08-.18-.05a10.31,10.31,0,0,1-1.45.2.8.8,0,0,0,.22.13Zm-2.37-.49a4.72,4.72,0,0,0,.84.36,5.25,5.25,0,0,0,1,.22c-.11-.07-.28-.14-.4-.2a6.16,6.16,0,0,0-.56-.32h-.3l-.55-.05m-.88-1.91s0,0,.06.06l.7.73.13.11c.21.2.49.41.71.58.06,0,.1.06.15.11s.07.06.2.06a6.11,6.11,0,0,0,.86-.05c.26,0,.5-.1.74-.13l-.62-.56a1.36,1.36,0,0,1-.12-.12l-.46-.48a1.06,1.06,0,0,0-.1-.12s-.47-.58-.52-.66l-.92.13a8.6,8.6,0,0,1-1,.06ZM107,15.51a8.71,8.71,0,0,0,.58,1.14c0,.05.09.1.09.16a1.35,1.35,0,0,0,.19.28l0,0h0l0,0s0,0,.08,0a4.2,4.2,0,0,0,1.06,0l.87-.11-.24-.35a12.54,12.54,0,0,1-1-1.86L108.3,14a7.46,7.46,0,0,1-1.77,0,6.42,6.42,0,0,0,.46,1.52m-.56-2.11,0,.23,0,0a5.63,5.63,0,0,0,.84.06c.31,0,.58,0,.88-.05a3.18,3.18,0,0,0-.12-.43,10.87,10.87,0,0,1-.35-2.54c0-.4,0-.74.06-1.12a3.31,3.31,0,0,1-.73-.09,5.85,5.85,0,0,0-.58,1.87,7.66,7.66,0,0,0,0,2"/><polygon class="cls-2" points="112.83 10.79 121.97 4.88 116.1 13.99 115.84 13.37 115.32 12.19 114.83 11.46 113.63 11.05 112.83 10.79"/><path class="cls-5" d="M112.91,10.46a6.93,6.93,0,0,0-1.79,1.83c-1.8,2.63-3.52,5.31-5.26,8l-1,1.58.2.17c3.48-2.28,7-4.56,10.45-6.87a2.6,2.6,0,0,0,.66-.8q3.06-4.65,6.1-9.3c.17-.26.28-.55.54-1.06-3.45,2.26-6.68,4.33-9.87,6.47m.83,4.27a1.56,1.56,0,0,1-1.6-1.57,1.61,1.61,0,0,1,1.58-1.71,1.73,1.73,0,0,1,1.69,1.65,1.64,1.64,0,0,1-1.67,1.63m2.4-1.21a2.9,2.9,0,0,0-2.85-2.76l8.35-5.47s-3.75,5.54-5.5,8.23"/></g></g></svg>