<svg xmlns="http://www.w3.org/2000/svg" width="36.7" height="37" viewBox="0 0 36.7 37"><defs><style>.a{fill:#00e676;}</style></defs><title>whatsapp</title><path class="a" d="M9.7,31.8l.6.3a15.67,15.67,0,0,0,8.1,2.2h0A16,16,0,0,0,29.7,7,15.91,15.91,0,0,0,2.5,18.4a16.4,16.4,0,0,0,2.4,8.4l.4.6L3.7,33.3Z"/><path d="M31.4,5.4A18,18,0,0,0,18.5,0,18.27,18.27,0,0,0,.2,18.4a19.31,19.31,0,0,0,2.4,9.1L0,37l9.7-2.5a17.86,17.86,0,0,0,8.7,2.2h0A18.39,18.39,0,0,0,36.7,18.3,18.15,18.15,0,0,0,31.4,5.4ZM18.5,33.6h0a14.86,14.86,0,0,1-7.7-2.1l-.6-.3L4.4,32.7,5.9,27l-.4-.6a15.18,15.18,0,1,1,20.9,4.9A14.58,14.58,0,0,1,18.5,33.6Zm8.8-11.1L26.2,22s-1.6-.7-2.6-1.2c-.1,0-.2-.1-.3-.1a1.45,1.45,0,0,0-.7.2h0s-.1.1-1.5,1.7a.55.55,0,0,1-.5.3h-.1a.76.76,0,0,1-.4-.2l-.5-.2h0a9.72,9.72,0,0,1-2.9-1.9c-.2-.2-.5-.4-.7-.6a11.17,11.17,0,0,1-1.9-2.4l-.1-.2c-.1-.1-.1-.2-.2-.4a.75.75,0,0,1,.1-.5s.4-.5.7-.8.3-.5.5-.7a1.23,1.23,0,0,0,.2-1,38.93,38.93,0,0,0-1.6-3.8,1.16,1.16,0,0,0-.7-.5H11.9c-.2,0-.4.1-.6.1l-.1.1c-.2.1-.4.3-.6.4s-.3.4-.5.6A5.1,5.1,0,0,0,9,14H9a5.93,5.93,0,0,0,.5,2.3l.1.3a16.66,16.66,0,0,0,3.7,5.1l.4.4a6,6,0,0,1,.8.8,17.87,17.87,0,0,0,7.2,3.8c.3.1.7.1,1,.2h1a3.71,3.71,0,0,0,1.5-.4c.3-.2.5-.2.7-.4l.2-.2c.2-.2.4-.3.6-.5a2.65,2.65,0,0,0,.5-.6,5.73,5.73,0,0,0,.4-1.4v-.7A1.24,1.24,0,0,0,27.3,22.5Z"/></svg>