<svg xmlns="http://www.w3.org/2000/svg" width="1083.662" height="107.063"><path d="M26.608 106.94H0V0h26.608v106.94zm23.06 0V32.906c0-9.104 3.487-16.836 10.466-23.199C67.11 3.348 75.447.166 85.145.166L138.36 0c9.814 0 18.183 3.237 25.099 9.706 6.918 6.474 10.378 14.259 10.378 23.363v73.871h-26.609V32.756c0-1.977-.798-3.764-2.395-5.357-1.596-1.593-3.458-2.499-5.587-2.719H85.145c-2.366 0-4.434.851-6.208 2.549-1.774 1.702-2.662 3.649-2.662 5.841v73.871H49.668zm147.404 0V33.069c0-9.104 3.46-16.863 10.378-23.28 6.917-6.416 15.282-9.624 25.1-9.624L302.44 0v24.679h-69.89c-2.368 0-4.436.851-6.209 2.549-1.773 1.702-2.66 3.649-2.66 5.841v8.063h75.388V65.81h-75.388v41.13h-26.609zm163.726 0c-9.818 0-18.183-3.179-25.101-9.542-6.918-6.358-10.377-14.092-10.377-23.198V33.069c0-9.104 3.459-16.863 10.377-23.28C342.615 3.373 350.98.165 360.798.165L422.883 0c9.814 0 18.181 3.237 25.1 9.706 6.917 6.474 10.376 14.259 10.376 23.363V74.2c0 9.105-3.459 16.839-10.376 23.198-6.919 6.363-15.286 9.542-25.1 9.542h-62.085zm62.085-24.678c2.483 0 4.582-.766 6.297-2.304 1.713-1.535 2.572-3.455 2.572-5.758V32.906c0-4.058-2.425-6.69-7.273-7.897h-.709c-.474-.218-.771-.329-.886-.329H360.8c-1.304.329-2.604.874-3.903 1.641-3.312 1.639-4.967 3.883-4.967 6.727v40.848c0 2.08.768 3.913 2.307 5.499 1.535 1.586 3.429 2.542 5.677 2.869h62.969zm58.533 24.678V0h86.741c9.935 0 18.329 3.188 25.19 9.558 6.856 6.369 10.285 14.168 10.285 23.399 0 7.469-2.426 14.115-7.272 19.937 6.148 6.481 9.227 13.566 9.227 21.255 0 9.121-3.46 16.867-10.379 23.237-6.918 6.371-15.285 9.555-25.099 9.555h-88.693zm26.608-82.261v16.616h61.02c2.482 0 4.582-.781 6.298-2.349 1.712-1.566 2.573-3.524 2.573-5.874 0-2.35-.861-4.336-2.573-5.96-1.716-1.622-3.815-2.433-6.298-2.433h-61.02zm70.954 49.357c0-2.303-.856-4.221-2.567-5.758-1.709-1.536-3.802-2.303-6.281-2.303h-62.105v16.288h62.085c2.483 0 4.58-.766 6.295-2.304 1.715-1.535 2.573-3.455 2.573-5.758v-.165zM752.815 0v74.036c0 9.214-3.433 17.003-10.289 23.362-6.859 6.363-15.254 9.542-25.188 9.542h-53.216c-9.818 0-18.181-3.184-25.1-9.555-6.919-6.37-10.377-14.116-10.377-23.237V0h26.608v73.871c0 2.085.767 3.923 2.305 5.512 1.536 1.59 3.431 2.55 5.678 2.879h54.102c2.483 0 4.583-.766 6.299-2.304 1.712-1.535 2.569-3.455 2.569-5.758V0h26.609zm108.916 65.81h-50.379c-9.817 0-18.181-3.198-25.1-9.6-6.919-6.4-10.378-14.141-10.378-23.223 0-9.08 3.459-16.82 10.378-23.221s15.282-9.601 25.1-9.601L908.916 0v24.679h-97.563c-2.366 0-4.434.843-6.21 2.524-1.773 1.684-2.658 3.611-2.658 5.784 0 2.172.885 4.072 2.658 5.702 1.776 1.631 3.844 2.443 6.21 2.443h61.376c9.933 0 18.329 3.207 25.188 9.624 6.858 6.417 10.288 14.232 10.288 23.445 0 9.105-3.456 16.839-10.362 23.198-6.908 6.363-15.268 9.542-25.066 9.542h-96.9V82.262h96.867c2.479 0 4.571-.774 6.286-2.327 1.713-1.549 2.569-3.487 2.569-5.816 0-2.325-.86-4.291-2.571-5.898-1.717-1.606-3.815-2.411-6.298-2.411h-10.999z" fill="#fff"/><path fill-rule="evenodd" clip-rule="evenodd" fill="#fff" d="M1016.223 55.006l-.061-.093s.061-.227.061-.319c.033-.139.033-.231.033-.231v-.183l-.768.183v.184l.042.14-.133.133v.187l-1.47.047 1.374.503.042.231-.182.086-.039.373-.048.137v.184l-4.369-1.331 4.057 1.924-.101.241-.048.132-.134.091-.045.183-1.367-.553.914 1.152-.081.274-.282.14.457.604.139-.05.134-.141.039-.181.093-.138.182.089.141-.048.14-.041.04-.095s.093-.14.18-.319l-.133-.278.046-.089.048-.094.179-.093s.042-.186.096-.273c.091-.142.045-.184.045-.184h.227c.188 0 0 0 .126-.05.147-.04.147-.133.147-.133s.088-.053.088-.191c.085-.09 0-.137 0-.137s-.088-.042-.173-.136l-.095-.138.032-.323s.063-.05.147-.137l.045-.326s.043-.091.043-.181c0-.144-.043-.144-.043-.144l.235-.089s.033-.04.135-.227c.045-.093-.049-.093-.049-.093l-.086-.179zm-1.835-8.185l-5.55 4.183-.955-6.765-1.238 6.532-5.685-3.449 3.908 5.151-6.137 1.427 6.01 1.014-3.095 5.377 4.917-3.81 1.448 6.118.965-5.991 5.504 3.456-4.235-5.01 6.972-1.202-6.649-1.423 3.82-5.608zm-1.815 1.834l-2.455 3.729-1.061-.046 3.516-3.683zm-4.789-1.377l.96 5.012-.96 1.155v-6.167zm-5.051 1.747l3.83 2.208-.053 1.01-3.777-3.218zm.321 9.657l2.05-3.629 1.186.044-3.236 3.585zm-2.047-4.831l5.504-1.193 1.054 1.017-6.558.176zm5.729 1.155l1.048-1.014.099 6.398-1.147-5.384zm5.517 3.316l-3.276-2.075v-1.105l3.276 3.18zm2.55-4.513l-5.745 1.058-1.175-1.147 6.92.089zm65.708-8.148s-41.655-42.076-42.163-42.543c-8.43-6.939-15.402 0-15.402 0l-3.595 3.635-3.556-3.585c-8.278-7.127-15.517 0-15.517 0l-3.641 3.687s-3.338-3.363-3.65-3.737c-8.42-6.985-15.519 0-15.519 0l-42.122 42.596s-7.063 7.317 0 15.684c.086.093.272.272.272.272l41.943 42.409s6.959 6.712 15.291 0c.508-.503 3.784-3.814 3.784-3.814l3.641 3.631s7.011 7.088 15.579 0c.398-.413 3.493-3.538 3.493-3.538l3.511 3.585s7.193 6.987 15.58 0c.46-.46 41.434-41.855 42.069-42.453 7.093-8.694.002-15.829.002-15.829zm-69.532-30.436c-.139.088-3.048 3.073-3.048 3.073l-2.916-2.985c.001 0 2.729-1.928 5.964-.088zm-29.505 76.16l-33.375-33.759s-3.879-3.634 0-8.143c.311-.32 33.007-33.343 33.234-33.576 3.647-2.987 6.925-.594 6.925-.594l-29.96 30.261s-7.386 7.458 0 15.963c.632.645 29.913 30.172 30.005 30.265-3.782 2.391-6.829-.417-6.829-.417zm15.164-7.819S971.134 57.86 970.82 57.534c-3.604-4.419 0-7.911 0-7.911l25.771-26.079 3.095 3.085-19.039 19.223s-6.778 7.085 0 15.411c.509.504 19.039 19.227 19.039 19.227l-3.048 3.076zm8.323 8.236l2.971-2.992s2.947 2.992 3.048 3.089c-3.236 1.967-6.019-.097-6.019-.097zm2.971-19.64s-13.983-14.12-14.266-14.399c-4.181-4.464 0-8.417 0-8.417l14.266-14.353s14.154 14.263 14.247 14.353c4.053 4.553 0 8.417 0 8.417l-14.247 14.399zm11.419 11.544l-3.128-3.215s18.437-18.633 18.758-19c7.236-8.646 0-15.872 0-15.872l-18.758-18.989 3.128-3.226 25.555 25.852s4.37 3.999 0 8.645c-.195.141-25.555 25.805-25.555 25.805zm48.545-26.214s-33.236 33.575-33.465 33.799c-3.424 2.852-6.748.608-6.748.608s30.112-30.408 30.244-30.548c7.099-8.274 0-15.591 0-15.591s-30.057-30.354-30.244-30.494c3.785-2.163 6.658.46 6.658.46s33.427 33.804 33.555 33.897c3.508 4.276 0 7.869 0 7.869zm-59.326-11.455l.129-.043.319.043v1.612l.593-1.521.269-.046h.187l.179.186.272.094-1.313 3.95s1.914-3.447 2.001-3.489h.135c.133 0 .179.226.179.226s.093.047.18.047c.14 0 .14.089.14.089l-.271 1.245s.64-.875.726-.875h.147s.034.095.133.188c.095.09.048.133.048.133h.134l.601-.415-.103-.182s-.094-.043-.139-.184l-.321-.187.054-.141s0-.039-.054-.183c0-.089 0-.04-.085-.089-.087-.047-.181 0-.322 0-.133 0-.133.186-.133.186l-.094-.097-.138-.04s-.041 0-.128-.143c-.101-.134-.194-.095-.281-.134-.139-.054-.178 0-.178 0s-.135-.093-.094-.186c0-.044.046-.087.094-.229.039-.093-.048-.192-.048-.233-.046-.086-.087-.046-.181-.046-.087-.04-.146.046-.18.14a.859.859 0 01-.147.184h-.133l-.04-.045-.188-.093-.272-.046-.227-.14-.093-.04h-.267v-.228l-.102-.186-.273.133-.079.184-.229-.043s-.139-.05-.187-.05h-.273l-.319.05.047.644h.325zm5.585 2.022c-.079 0-.079.136-.079.136l-.274-.363-.367.597.095.18.139.047.085.23.148.14.081.094-1.136 1.238 1.589-.594.045.091v.18l.182.141.046.136-3.589 1.933 3.91-1.333s.046.147.046.23v.14l.18.091v.093c.047.094.047.23.047.23l.042.273-1.676.597 1.82-.039v.551l-.091.087v.136s.545.101.545 0c0-.136.045-.136.045-.136l.175-.225-.047-.326.047-.184.094-.044.053-.141.094-.276-.287-.137s-.128-.187-.128-.32c0-.047-.13-.231-.13-.371 0-.083-.063-.083-.063-.083s-.032-.054-.032-.147c0-.043.032-.043.133-.14.092-.09.135-.04.135-.04v-.186c0-.095-.135-.234-.135-.274h-.313s-.053-.047-.095-.139c0-.098-.046 0-.091-.098-.096-.042-.054-.097-.054-.097s.054-.127 0-.219c-.042-.047-.221-.282-.221-.282l.039-.126s.235-.284.235-.424c0-.09-.19-.042-.415-.136-.22-.094-.22.136-.22.136s-.055-.042-.101-.136c-.081-.094-.081-.141-.081-.234l-.146-.086v-.28a.82.82 0 00-.279-.091zm-6.866 13.339l-.139.139-.126-.233h-.242l-.138-1.927-.534 1.791-.141-.137-.273.048-.142-.095h-.227l1.142-4.182-1.769 4.001-.326-.227.239.087-.38-.233-.088-.14h-.226l.54-1.515-1.14 1.155-.181-.14-.047-.093-.086-.047-.134-.18-.594.5.086.14h.094l.141.181.188.047.22.186v.094l-.088.093s.088.093.134.133c.087.093.087.14.087.14h.146l.089.046.133-.046.133-.097v.097s.045.046.14.046c.094 0 .141.048.141.048l.133.089h.274l.173.136v.233c0 .133.055.091.055.091h.086c.06 0 .1.042.1.042l.313.098.193-.14h.183c.124 0 .124.14.124.14h.142l.414.089.044.23.229.093h.222c.132 0 .092-.093.092-.19 0-.134.086-.086.086-.086l.139.045s.104.041.229.094c.139 0 .139 0 .232-.094.182-.045.134-.045.134-.045l.127.14.101-.053-.228-.641-.229.049zm5.691-1.972l-.188.09-.125.181-.095.14-.099.227-1.134-1.057.553 1.424h-.229l-.098.233h-.321c-.078 0-.04.14-.04.14l-.18.041-1.914-3.906 1.18 4.18-.086.05h-.234l-.268.136-.546-1.374-.101 1.468h-.22s-.094.093-.221.093c-.101 0-.101-.093-.101-.093h-.227l-.093.594h.319l.273-.041.141.094v.18l.046.14h.229l.228-.045.125-.047.054-.321s0-.045.093-.045c.087-.047.047-.047.176-.095.092-.042.139 0 .238-.042.088-.051.035-.098.035-.098h.364l.142.098h.267s.101 0 .193-.051h.181v-.14l.041-.228s.133 0 .227-.047c.098 0 .098-.04.098-.04s.081-.097.174-.146c.055-.039.142-.039.142-.039l.179-.191.227.097s.369-.14.461-.228c.087-.139 0-.093 0-.093l.039-.14s.048-.043.095-.043c.088 0 .041 0 .088-.05.091-.041.091-.14.185-.179.103-.047.182-.094.182-.094l.185-.047.089-.273.139-.094-.732-.463-.136.144zm-10.247-11.46l.095-.044.046-.09.267-.183 1.234.959-.639-1.373.091-.051c.134-.089.047-.042.134-.042l.093-.047.093-.093.229-.18 2.136 3.628s-1.407-3.866-1.317-3.906c.089-.097.183-.049.183-.049l.055-.047.405-.273.595 1.424.214-1.424h.138l.048-.092c0-.138.091-.044.091-.044l.15.091h.218c.094-.046.094 0 .094 0l.134-.875s-.134.053-.445.053h-.602s0-.186-.039-.287c0-.087-.093 0-.276-.045-.231 0-.1.045-.144.1-.041.047-.221.32-.221.364v.137s0 .046-.047.14c0 .046-.095 0-.095 0h-.455c-.178 0-.09.09-.09.09l-.235-.184-.079-.086h-.506l-.049.086-.088.184-.093.324s-.18.085-.273.139c-.095.04-.14.04-.14.04l-.133.237s-.133 0-.267-.097c-.101-.046-.101-.046-.233-.046-.088-.041-.134 0-.134 0l-.228.143-.092.458s-.047.093-.047.183c0 .094-.081.051-.081.051h-.146l-.139.18-.183.139-.133.095.682.459.224-.146zm-.907 11.64l.089.043.317-.691s-.14-.041-.227-.23c-.091-.139 0-.086 0-.185 0-.04-.047-.04-.134-.04-.093 0-.181-.095-.181-.095l1.097-1.38-1.509.874-.045-.138s-.049-.045-.096-.137c-.052-.091-.132-.091-.132-.091s0-.132-.047-.279c0-.094-.088-.04-.088-.04l-.086-.188 3.77-2.021-4.058 1.425s-.041-.047-.094-.136v-.281s-.04-.047-.04-.14v-.086l-.125-.192 1.452-.59s-1.592 0-1.592-.093c0-.094-.054-.134-.054-.187v-.087c-.048-.093 0-.184 0-.184l.054-.229-.594-.092-.049.092-.045.229.094.091v.273l-.049.141-.094.137v.276l.094.271.228.144v.413l.22.134.062.146.08.18-.175.141-.145.136v.137l.098.086v.094s.047.1.142.146c.134 0 .08-.047.08-.047h.14l.133.087s.086.136.139.276l.041.091.094.092.094.184.187.237.033.221-.087.279.142.184s.179 0 .274-.048c.045-.041.141.048.141.048l.124.183.095.09.098.146.134.18zm-2.369-6.81v.829l.589-.133.086-.283.054-.133-.054-.324 1.783-.227-1.511-.604s-.04-.047-.04-.138c0-.089.04-.089.04-.089s.146-.136.146-.23c0-.047-.094-.184-.094-.184l4.044 1.058-3.861-1.753.179-.087c.188-.09 0-.047 0-.141 0-.046.054-.046.087-.086.102-.096.102-.047.146-.139.035-.098 0-.194 0-.194l1.682.608-1.234-1.288.147-.094s.045-.044.133-.227l.093-.233-.46-.643-.133.183-.094.14s-.099.181-.134.227c-.045.094-.146.141-.18.141-.086 0-.232-.094-.232-.094l-.089.047c-.146.047-.187.141-.187.141l.187.234v.358s-.146.095-.187.188c-.086.094-.086.273-.086.273l-.179.414h-.229l-.145.187v.14c0 .094.046.183.046.183v.184l-.046.137v.276l-.083.228-.138.05-.049.089-.094.184v.323l.143.182-.046.32z"/></svg>